<?xml version="1.0" encoding="UTF-8" standalone="no"?>
<!DOCTYPE svg PUBLIC "-//W3C//DTD SVG 1.1//EN"
 "http://www.w3.org/Graphics/SVG/1.1/DTD/svg11.dtd">
<!-- Generated by graphviz version 2.44.0 (0)
 -->
<!-- Pages: 1 -->
<svg width="2351pt" height="1519pt"
 viewBox="0.00 0.00 2351.30 1518.98" xmlns="http://www.w3.org/2000/svg" xmlns:xlink="http://www.w3.org/1999/xlink">
<g id="graph0" class="graph" transform="scale(1 1) rotate(0) translate(4 1514.98)">
<polygon fill="white" stroke="transparent" points="-4,4 -4,-1514.98 2347.3,-1514.98 2347.3,4 -4,4"/>
<!-- Gender_F -->
<g id="node1" class="node">
<title>Gender_F</title>
<ellipse fill="none" stroke="black" cx="1285.01" cy="-1132.98" rx="34.96" ry="18"/>
<text text-anchor="middle" x="1285.01" y="-1130.48" font-family="Helvetica" font-size="10.00">Gender_F</text>
</g>
<!-- Avg_Days_per_DrugTest -->
<g id="node17" class="node">
<title>Avg_Days_per_DrugTest</title>
<ellipse fill="none" stroke="black" cx="2270.89" cy="-738.98" rx="72.31" ry="18"/>
<text text-anchor="middle" x="2270.89" y="-736.48" font-family="Helvetica" font-size="10.00">Avg_Days_per_DrugTest</text>
</g>
<!-- Gender_F&#45;&gt;Avg_Days_per_DrugTest -->
<g id="edge1" class="edge">
<title>Gender_F&#45;&gt;Avg_Days_per_DrugTest</title>
<path fill="none" stroke="black" d="M1319.61,-1135.43C1387.06,-1140.14 1543.79,-1149.98 1675.66,-1149.98 1675.66,-1149.98 1675.66,-1149.98 1870.83,-1149.98 2000.89,-1149.98 2062.27,-1208.88 2162.49,-1125.98 2219.61,-1078.73 2255.94,-842.97 2266.61,-764.46"/>
<polygon fill="black" stroke="black" points="2269.06,-764.63 2267.56,-757.36 2264.2,-763.97 2269.06,-764.63"/>
</g>
<!-- Race_BLACK -->
<g id="node2" class="node">
<title>Race_BLACK</title>
<ellipse fill="none" stroke="black" cx="45.33" cy="-1111.98" rx="45.15" ry="18"/>
<text text-anchor="middle" x="45.33" y="-1109.48" font-family="Helvetica" font-size="10.00">Race_BLACK</text>
</g>
<!-- Race_BLACK&#45;&gt;Gender_F -->
<g id="edge2" class="edge">
<title>Race_BLACK&#45;&gt;Gender_F</title>
<path fill="none" stroke="black" d="M59.95,-1129.13C74.48,-1146.04 99.17,-1171.05 126.65,-1182.98 229.71,-1227.7 265.94,-1206.98 378.28,-1206.98 378.28,-1206.98 378.28,-1206.98 601.12,-1206.98 847.43,-1206.98 1140.81,-1158.81 1244.98,-1140.2"/>
<polygon fill="black" stroke="black" points="1245.69,-1142.56 1252.15,-1138.91 1244.82,-1137.74 1245.69,-1142.56"/>
</g>
<!-- Age_at_Release_18&#45;22 -->
<g id="node3" class="node">
<title>Age_at_Release_18&#45;22</title>
<ellipse fill="none" stroke="black" cx="195.53" cy="-584.98" rx="68.75" ry="18"/>
<text text-anchor="middle" x="195.53" y="-582.48" font-family="Helvetica" font-size="10.00">Age_at_Release_18&#45;22</text>
</g>
<!-- Race_BLACK&#45;&gt;Age_at_Release_18&#45;22 -->
<g id="edge3" class="edge">
<title>Race_BLACK&#45;&gt;Age_at_Release_18&#45;22</title>
<path fill="none" stroke="black" d="M51.43,-1093.84C73.63,-1014.89 161.86,-701.14 187.5,-609.95"/>
<polygon fill="black" stroke="black" points="189.91,-610.45 189.45,-603.04 185.19,-609.12 189.91,-610.45"/>
</g>
<!-- Age_at_Release_33&#45;37 -->
<g id="node6" class="node">
<title>Age_at_Release_33&#45;37</title>
<ellipse fill="none" stroke="black" cx="1502.91" cy="-385.98" rx="68.75" ry="18"/>
<text text-anchor="middle" x="1502.91" y="-383.48" font-family="Helvetica" font-size="10.00">Age_at_Release_33&#45;37</text>
</g>
<!-- Race_BLACK&#45;&gt;Age_at_Release_33&#45;37 -->
<g id="edge4" class="edge">
<title>Race_BLACK&#45;&gt;Age_at_Release_33&#45;37</title>
<path fill="none" stroke="black" d="M46.97,-1093.79C50.47,-1001.32 69.26,-583.2 126.65,-468.98 196.18,-330.61 223.43,-227.98 378.28,-227.98 378.28,-227.98 378.28,-227.98 1059.29,-227.98 1221.26,-227.98 1398.18,-322.98 1469.47,-365.65"/>
<polygon fill="black" stroke="black" points="1468.38,-367.85 1475.64,-369.37 1470.91,-363.66 1468.38,-367.85"/>
</g>
<!-- Age_at_Release_38&#45;42 -->
<g id="node7" class="node">
<title>Age_at_Release_38&#45;42</title>
<ellipse fill="none" stroke="black" cx="1676.66" cy="-440.98" rx="68.75" ry="18"/>
<text text-anchor="middle" x="1676.66" y="-438.48" font-family="Helvetica" font-size="10.00">Age_at_Release_38&#45;42</text>
</g>
<!-- Race_BLACK&#45;&gt;Age_at_Release_38&#45;42 -->
<g id="edge5" class="edge">
<title>Race_BLACK&#45;&gt;Age_at_Release_38&#45;42</title>
<path fill="none" stroke="black" d="M46.79,-1093.65C49.94,-975.05 69.89,-319.11 126.65,-252.98 201.75,-165.5 263,-189.98 378.28,-189.98 378.28,-189.98 378.28,-189.98 1286.01,-189.98 1453.22,-189.98 1605.7,-355.35 1657.2,-417.63"/>
<polygon fill="black" stroke="black" points="1655.53,-419.47 1661.86,-423.33 1659.32,-416.36 1655.53,-419.47"/>
</g>
<!-- Age_at_Release_43&#45;47 -->
<g id="node8" class="node">
<title>Age_at_Release_43&#45;47</title>
<ellipse fill="none" stroke="black" cx="2078.31" cy="-761.98" rx="68.75" ry="18"/>
<text text-anchor="middle" x="2078.31" y="-759.48" font-family="Helvetica" font-size="10.00">Age_at_Release_43&#45;47</text>
</g>
<!-- Race_BLACK&#45;&gt;Age_at_Release_43&#45;47 -->
<g id="edge6" class="edge">
<title>Race_BLACK&#45;&gt;Age_at_Release_43&#45;47</title>
<path fill="none" stroke="black" d="M53.88,-1129.81C83.91,-1197.52 201.78,-1434.98 378.28,-1434.98 378.28,-1434.98 378.28,-1434.98 844.33,-1434.98 1399.47,-1434.98 1942.24,-902.85 2055.7,-784.93"/>
<polygon fill="black" stroke="black" points="2057.7,-786.38 2060.78,-779.63 2054.16,-782.99 2057.7,-786.38"/>
</g>
<!-- Age_at_Release_48 or older -->
<g id="node9" class="node">
<title>Age_at_Release_48 or older</title>
<ellipse fill="none" stroke="black" cx="1285.01" cy="-593.98" rx="81.65" ry="18"/>
<text text-anchor="middle" x="1285.01" y="-591.48" font-family="Helvetica" font-size="10.00">Age_at_Release_48 or older</text>
</g>
<!-- Race_BLACK&#45;&gt;Age_at_Release_48 or older -->
<g id="edge7" class="edge">
<title>Race_BLACK&#45;&gt;Age_at_Release_48 or older</title>
<path fill="none" stroke="black" d="M45.97,-1093.92C44.67,-1006.68 43.97,-630.25 126.65,-557.98 400.37,-318.74 581.07,-548.18 944.58,-551.98 1029.67,-552.87 1051.69,-544.44 1135.99,-555.98 1167.98,-560.36 1203,-569.16 1230.94,-577.19"/>
<polygon fill="black" stroke="black" points="1230.49,-579.61 1237.89,-579.21 1231.85,-574.91 1230.49,-579.61"/>
</g>
<!-- Gang_Affiliated -->
<g id="node10" class="node">
<title>Gang_Affiliated</title>
<ellipse fill="none" stroke="black" cx="1502.91" cy="-875.98" rx="48.72" ry="18"/>
<text text-anchor="middle" x="1502.91" y="-873.48" font-family="Helvetica" font-size="10.00">Gang_Affiliated</text>
</g>
<!-- Race_BLACK&#45;&gt;Gang_Affiliated -->
<g id="edge8" class="edge">
<title>Race_BLACK&#45;&gt;Gang_Affiliated</title>
<path fill="none" stroke="black" d="M81.47,-1123.18C217.02,-1165.05 719.05,-1307.95 1135.99,-1266.98 1254.16,-1255.37 1312.73,-1297.57 1398.04,-1214.98 1448.85,-1165.79 1413.76,-1127.73 1434.04,-1059.98 1451.47,-1001.72 1477.61,-935.2 1491.83,-900.3"/>
<polygon fill="black" stroke="black" points="1494.12,-901.15 1494.51,-893.75 1489.59,-899.3 1494.12,-901.15"/>
</g>
<!-- Prior_Arrest_Episodes_Property_high -->
<g id="node12" class="node">
<title>Prior_Arrest_Episodes_Property_high</title>
<ellipse fill="none" stroke="black" cx="600.12" cy="-1121.98" rx="105.92" ry="18"/>
<text text-anchor="middle" x="600.12" y="-1119.48" font-family="Helvetica" font-size="10.00">Prior_Arrest_Episodes_Property_high</text>
</g>
<!-- Race_BLACK&#45;&gt;Prior_Arrest_Episodes_Property_high -->
<g id="edge9" class="edge">
<title>Race_BLACK&#45;&gt;Prior_Arrest_Episodes_Property_high</title>
<path fill="none" stroke="black" d="M90.82,-1112.18C166.35,-1112.6 324.49,-1113.8 458.16,-1116.98 468.21,-1117.22 478.65,-1117.51 489.11,-1117.83"/>
<polygon fill="black" stroke="black" points="489.28,-1120.29 496.35,-1118.06 489.43,-1115.39 489.28,-1120.29"/>
</g>
<!-- Prior_Arrest_Episodes_Drug_high -->
<g id="node13" class="node">
<title>Prior_Arrest_Episodes_Drug_high</title>
<ellipse fill="none" stroke="black" cx="1285.01" cy="-1040.98" rx="96.58" ry="18"/>
<text text-anchor="middle" x="1285.01" y="-1038.48" font-family="Helvetica" font-size="10.00">Prior_Arrest_Episodes_Drug_high</text>
</g>
<!-- Race_BLACK&#45;&gt;Prior_Arrest_Episodes_Drug_high -->
<g id="edge10" class="edge">
<title>Race_BLACK&#45;&gt;Prior_Arrest_Episodes_Drug_high</title>
<path fill="none" stroke="black" d="M82.82,-1122.43C143.57,-1138.89 269.52,-1168.98 378.28,-1168.98 378.28,-1168.98 378.28,-1168.98 601.12,-1168.98 837.95,-1168.98 1113.19,-1093.69 1228.62,-1058.6"/>
<polygon fill="black" stroke="black" points="1229.35,-1060.93 1235.33,-1056.55 1227.91,-1056.25 1229.35,-1060.93"/>
</g>
<!-- Prior_Conviction_Episodes_Felony_high -->
<g id="node14" class="node">
<title>Prior_Conviction_Episodes_Felony_high</title>
<ellipse fill="none" stroke="black" cx="1285.01" cy="-1187.98" rx="113.05" ry="18"/>
<text text-anchor="middle" x="1285.01" y="-1185.48" font-family="Helvetica" font-size="10.00">Prior_Conviction_Episodes_Felony_high</text>
</g>
<!-- Race_BLACK&#45;&gt;Prior_Conviction_Episodes_Felony_high -->
<g id="edge11" class="edge">
<title>Race_BLACK&#45;&gt;Prior_Conviction_Episodes_Felony_high</title>
<path fill="none" stroke="black" d="M56.11,-1129.79C69.26,-1152.08 94.71,-1189.87 126.65,-1210.98 223.7,-1275.11 261.96,-1282.98 378.28,-1282.98 378.28,-1282.98 378.28,-1282.98 844.33,-1282.98 987.33,-1282.98 1150.7,-1234.38 1232.14,-1206.7"/>
<polygon fill="black" stroke="black" points="1232.99,-1209 1238.82,-1204.42 1231.4,-1204.37 1232.99,-1209"/>
</g>
<!-- Race_BLACK&#45;&gt;Avg_Days_per_DrugTest -->
<g id="edge12" class="edge">
<title>Race_BLACK&#45;&gt;Avg_Days_per_DrugTest</title>
<path fill="none" stroke="black" d="M48.63,-1130.04C54.7,-1171.57 74.44,-1275.47 126.65,-1342.98 208.93,-1449.34 243.81,-1510.98 378.28,-1510.98 378.28,-1510.98 378.28,-1510.98 1870.83,-1510.98 2011.17,-1510.98 2078.05,-1502.08 2162.49,-1389.98 2239.13,-1288.23 2263.67,-871.9 2268.79,-764.4"/>
<polygon fill="black" stroke="black" points="2271.24,-764.31 2269.12,-757.21 2266.35,-764.08 2271.24,-764.31"/>
</g>
<!-- Delinquency_Reports_high -->
<g id="node19" class="node">
<title>Delinquency_Reports_high</title>
<ellipse fill="none" stroke="black" cx="379.28" cy="-82.98" rx="78.76" ry="18"/>
<text text-anchor="middle" x="379.28" y="-80.48" font-family="Helvetica" font-size="10.00">Delinquency_Reports_high</text>
</g>
<!-- Race_BLACK&#45;&gt;Delinquency_Reports_high -->
<g id="edge13" class="edge">
<title>Race_BLACK&#45;&gt;Delinquency_Reports_high</title>
<path fill="none" stroke="black" d="M46.73,-1093.71C49.64,-969.52 68.88,-251.79 126.65,-175.98 166.99,-123.05 240.69,-100.23 297.95,-90.4"/>
<polygon fill="black" stroke="black" points="298.69,-92.76 305.2,-89.21 297.89,-87.93 298.69,-92.76"/>
</g>
<!-- Age_at_Release_23&#45;27 -->
<g id="node4" class="node">
<title>Age_at_Release_23&#45;27</title>
<ellipse fill="none" stroke="black" cx="379.28" cy="-584.98" rx="68.75" ry="18"/>
<text text-anchor="middle" x="379.28" y="-582.48" font-family="Helvetica" font-size="10.00">Age_at_Release_23&#45;27</text>
</g>
<!-- Age_at_Release_18&#45;22&#45;&gt;Age_at_Release_23&#45;27 -->
<g id="edge14" class="edge">
<title>Age_at_Release_18&#45;22&#45;&gt;Age_at_Release_23&#45;27</title>
<path fill="none" stroke="black" d="M259.84,-578.51C275.3,-578.19 291.93,-578.14 307.71,-578.38"/>
<polygon fill="black" stroke="black" points="307.84,-580.83 314.89,-578.51 307.93,-575.93 307.84,-580.83"/>
</g>
<!-- Age_at_Release_18&#45;22&#45;&gt;Avg_Days_per_DrugTest -->
<g id="edge15" class="edge">
<title>Age_at_Release_18&#45;22&#45;&gt;Avg_Days_per_DrugTest</title>
<path fill="none" stroke="black" d="M201.93,-603.07C225.24,-678.51 323.76,-972.24 494.16,-1148.98 694.57,-1356.85 768.54,-1472.98 1057.29,-1472.98 1057.29,-1472.98 1057.29,-1472.98 1870.83,-1472.98 2021.77,-1472.98 2075.87,-1422.59 2162.49,-1298.98 2224.91,-1209.89 2259.31,-861.04 2267.8,-764.09"/>
<polygon fill="black" stroke="black" points="2270.25,-764.22 2268.41,-757.04 2265.36,-763.8 2270.25,-764.22"/>
</g>
<!-- Supervision_Risk_Score_First -->
<g id="node20" class="node">
<title>Supervision_Risk_Score_First</title>
<ellipse fill="none" stroke="black" cx="1869.83" cy="-669.98" rx="88.1" ry="18"/>
<text text-anchor="middle" x="1869.83" y="-667.48" font-family="Helvetica" font-size="10.00">Supervision_Risk_Score_First</text>
</g>
<!-- Age_at_Release_18&#45;22&#45;&gt;Supervision_Risk_Score_First -->
<g id="edge16" class="edge">
<title>Age_at_Release_18&#45;22&#45;&gt;Supervision_Risk_Score_First</title>
<path fill="none" stroke="black" d="M209.49,-567.2C270.5,-485.72 538.95,-151.98 842.33,-151.98 842.33,-151.98 842.33,-151.98 1503.91,-151.98 1748.04,-151.98 1843.14,-541.26 1864.13,-644.89"/>
<polygon fill="black" stroke="black" points="1861.75,-645.46 1865.51,-651.85 1866.55,-644.5 1861.75,-645.46"/>
</g>
<!-- Age_at_Release_23&#45;27&#45;&gt;Age_at_Release_18&#45;22 -->
<g id="edge17" class="edge">
<title>Age_at_Release_23&#45;27&#45;&gt;Age_at_Release_18&#45;22</title>
<path fill="none" stroke="black" d="M314.89,-591.45C299.42,-591.77 282.79,-591.82 267.02,-591.58"/>
<polygon fill="black" stroke="black" points="266.88,-589.12 259.84,-591.45 266.8,-594.02 266.88,-589.12"/>
</g>
<!-- Age_at_Release_28&#45;32 -->
<g id="node5" class="node">
<title>Age_at_Release_28&#45;32</title>
<ellipse fill="none" stroke="black" cx="1058.29" cy="-462.98" rx="68.75" ry="18"/>
<text text-anchor="middle" x="1058.29" y="-460.48" font-family="Helvetica" font-size="10.00">Age_at_Release_28&#45;32</text>
</g>
<!-- Age_at_Release_23&#45;27&#45;&gt;Age_at_Release_28&#45;32 -->
<g id="edge18" class="edge">
<title>Age_at_Release_23&#45;27&#45;&gt;Age_at_Release_28&#45;32</title>
<path fill="none" stroke="black" d="M399.34,-567.58C421.42,-552.99 459.24,-533.87 494.16,-523.98 665.29,-475.51 875.11,-460.59 983.95,-459.16"/>
<polygon fill="black" stroke="black" points="983.99,-461.61 990.97,-459.09 983.94,-456.71 983.99,-461.61"/>
</g>
<!-- Age_at_Release_23&#45;27&#45;&gt;Age_at_Release_33&#45;37 -->
<g id="edge19" class="edge">
<title>Age_at_Release_23&#45;27&#45;&gt;Age_at_Release_33&#45;37</title>
<path fill="none" stroke="black" d="M398.76,-567.6C415.32,-555.87 439.77,-540.19 458.16,-522.98 477.12,-505.24 471.61,-489.83 494.16,-476.98 626.13,-401.78 1020.62,-401.53 1171.99,-388.98 1260.99,-381.6 1363.88,-378.76 1430.77,-379.69"/>
<polygon fill="black" stroke="black" points="1430.9,-382.15 1437.94,-379.81 1430.98,-377.25 1430.9,-382.15"/>
</g>
<!-- Age_at_Release_23&#45;27&#45;&gt;Age_at_Release_38&#45;42 -->
<g id="edge20" class="edge">
<title>Age_at_Release_23&#45;27&#45;&gt;Age_at_Release_38&#45;42</title>
<path fill="none" stroke="black" d="M412.79,-569.21C428.4,-560.2 446.26,-547.58 458.16,-531.98 488.09,-492.76 455.27,-457.32 494.16,-426.98 520.68,-406.3 763.28,-381.73 1434.04,-358.98 1495.22,-356.9 1513.95,-338.9 1571.78,-358.98 1605.45,-370.67 1636.46,-398.3 1655.67,-418.27"/>
<polygon fill="black" stroke="black" points="1653.94,-420.01 1660.53,-423.42 1657.51,-416.64 1653.94,-420.01"/>
</g>
<!-- Age_at_Release_23&#45;27&#45;&gt;Age_at_Release_43&#45;47 -->
<g id="edge21" class="edge">
<title>Age_at_Release_23&#45;27&#45;&gt;Age_at_Release_43&#45;47</title>
<path fill="none" stroke="black" d="M443.46,-591.57C708.31,-619.19 1728.33,-725.58 2006.75,-754.62"/>
<polygon fill="black" stroke="black" points="2006.76,-757.08 2013.98,-755.37 2007.27,-752.21 2006.76,-757.08"/>
</g>
<!-- Age_at_Release_23&#45;27&#45;&gt;Age_at_Release_48 or older -->
<g id="edge22" class="edge">
<title>Age_at_Release_23&#45;27&#45;&gt;Age_at_Release_48 or older</title>
<path fill="none" stroke="black" d="M439.85,-576.26C457.31,-574.09 476.47,-572.06 494.16,-570.98 778.89,-553.54 851.58,-549.02 1135.99,-570.98 1162.18,-573 1190.74,-577.01 1215.73,-581.12"/>
<polygon fill="black" stroke="black" points="1215.38,-583.54 1222.68,-582.28 1216.18,-578.71 1215.38,-583.54"/>
</g>
<!-- Age_at_Release_23&#45;27&#45;&gt;Prior_Arrest_Episodes_Property_high -->
<g id="edge23" class="edge">
<title>Age_at_Release_23&#45;27&#45;&gt;Prior_Arrest_Episodes_Property_high</title>
<path fill="none" stroke="black" d="M381.99,-603.17C389.96,-684.63 426.11,-1015.07 494.16,-1088.98 500.83,-1096.22 509.06,-1101.88 517.95,-1106.3"/>
<polygon fill="black" stroke="black" points="517.15,-1108.63 524.54,-1109.31 519.19,-1104.17 517.15,-1108.63"/>
</g>
<!-- Age_at_Release_23&#45;27&#45;&gt;Prior_Arrest_Episodes_Drug_high -->
<g id="edge24" class="edge">
<title>Age_at_Release_23&#45;27&#45;&gt;Prior_Arrest_Episodes_Drug_high</title>
<path fill="none" stroke="black" d="M394.27,-602.94C414.4,-627.98 453.62,-673.83 494.16,-704.98 728.76,-885.21 1074.5,-987.97 1217.92,-1025.03"/>
<polygon fill="black" stroke="black" points="1217.62,-1027.48 1225.01,-1026.85 1218.84,-1022.74 1217.62,-1027.48"/>
</g>
<!-- Age_at_Release_23&#45;27&#45;&gt;Prior_Conviction_Episodes_Felony_high -->
<g id="edge25" class="edge">
<title>Age_at_Release_23&#45;27&#45;&gt;Prior_Conviction_Episodes_Felony_high</title>
<path fill="none" stroke="black" d="M388.84,-603.08C404.45,-639.73 440.9,-722.42 494.16,-774.98 739.38,-1016.95 851.51,-1024.58 1171.99,-1150.98 1191.17,-1158.55 1213.03,-1164.55 1232.31,-1169.61"/>
<polygon fill="black" stroke="black" points="1231.89,-1172.04 1239.29,-1171.44 1233.13,-1167.3 1231.89,-1172.04"/>
</g>
<!-- Age_at_Release_23&#45;27&#45;&gt;Avg_Days_per_DrugTest -->
<g id="edge26" class="edge">
<title>Age_at_Release_23&#45;27&#45;&gt;Avg_Days_per_DrugTest</title>
<path fill="none" stroke="black" d="M385.45,-566.92C397.54,-528.11 431.49,-436.6 494.16,-390.98 701.44,-240.11 800.92,-265.98 1057.29,-265.98 1057.29,-265.98 1057.29,-265.98 1870.83,-265.98 2003.54,-265.98 2066.75,-238.07 2162.49,-329.98 2219.05,-384.28 2256,-632.73 2266.68,-713.52"/>
<polygon fill="black" stroke="black" points="2264.3,-714.18 2267.64,-720.8 2269.16,-713.54 2264.3,-714.18"/>
</g>
<!-- Age_at_Release_23&#45;27&#45;&gt;Supervision_Risk_Score_First -->
<g id="edge27" class="edge">
<title>Age_at_Release_23&#45;27&#45;&gt;Supervision_Risk_Score_First</title>
<path fill="none" stroke="black" d="M446.4,-580.71C578.61,-573.57 884.49,-564.06 1135.99,-608.98 1152.59,-611.94 1155.45,-617.7 1171.99,-620.98 1284.88,-643.39 1613.43,-659.51 1775.79,-666.34"/>
<polygon fill="black" stroke="black" points="1775.82,-668.79 1782.92,-666.64 1776.03,-663.9 1775.82,-668.79"/>
</g>
<!-- Age_at_Release_28&#45;32&#45;&gt;Age_at_Release_18&#45;22 -->
<g id="edge28" class="edge">
<title>Age_at_Release_28&#45;32&#45;&gt;Age_at_Release_18&#45;22</title>
<path fill="none" stroke="black" d="M991.39,-458.68C885.35,-453.33 670.84,-448.91 494.16,-485.98 401.47,-505.43 297.34,-544.15 240.1,-566.98"/>
<polygon fill="black" stroke="black" points="238.94,-564.8 233.36,-569.68 240.77,-569.35 238.94,-564.8"/>
</g>
<!-- Age_at_Release_28&#45;32&#45;&gt;Age_at_Release_23&#45;27 -->
<g id="edge29" class="edge">
<title>Age_at_Release_28&#45;32&#45;&gt;Age_at_Release_23&#45;27</title>
<path fill="none" stroke="black" d="M994.82,-470.07C889.6,-477.6 671.18,-491.84 494.16,-541.98 471.62,-548.37 447.86,-558.59 427.92,-567.63"/>
<polygon fill="black" stroke="black" points="426.66,-565.51 421.31,-570.64 428.69,-569.97 426.66,-565.51"/>
</g>
<!-- Age_at_Release_28&#45;32&#45;&gt;Age_at_Release_33&#45;37 -->
<g id="edge30" class="edge">
<title>Age_at_Release_28&#45;32&#45;&gt;Age_at_Release_33&#45;37</title>
<path fill="none" stroke="black" d="M1094.75,-447.61C1116.91,-441.71 1146.06,-435.74 1171.99,-430.98 1259.7,-414.86 1360.97,-398.64 1427.93,-390.19"/>
<polygon fill="black" stroke="black" points="1428.47,-392.59 1435.11,-389.29 1427.86,-387.73 1428.47,-392.59"/>
</g>
<!-- Age_at_Release_28&#45;32&#45;&gt;Age_at_Release_38&#45;42 -->
<g id="edge31" class="edge">
<title>Age_at_Release_28&#45;32&#45;&gt;Age_at_Release_38&#45;42</title>
<path fill="none" stroke="black" d="M1122.64,-456.42C1237.25,-449.16 1478.45,-440.45 1600.91,-439.05"/>
<polygon fill="black" stroke="black" points="1601.11,-441.5 1608.09,-438.98 1601.06,-436.6 1601.11,-441.5"/>
</g>
<!-- Age_at_Release_28&#45;32&#45;&gt;Age_at_Release_43&#45;47 -->
<g id="edge32" class="edge">
<title>Age_at_Release_28&#45;32&#45;&gt;Age_at_Release_43&#45;47</title>
<path fill="none" stroke="black" d="M1099.74,-477.36C1111.75,-482.28 1124.7,-488.27 1135.99,-494.98 1153.65,-505.48 1153.11,-515.87 1171.99,-523.98 1334.33,-593.73 1802.22,-559.85 1958.13,-642.98 2001.78,-666.26 2039.8,-710.75 2060.55,-738.24"/>
<polygon fill="black" stroke="black" points="2058.82,-740.02 2064.96,-744.17 2062.75,-737.09 2058.82,-740.02"/>
</g>
<!-- Age_at_Release_28&#45;32&#45;&gt;Age_at_Release_48 or older -->
<g id="edge33" class="edge">
<title>Age_at_Release_28&#45;32&#45;&gt;Age_at_Release_48 or older</title>
<path fill="none" stroke="black" d="M1116.8,-472.82C1123.72,-476.46 1130.32,-480.84 1135.99,-485.98 1161.03,-508.69 1145.66,-531.78 1171.99,-552.98 1187.42,-565.41 1207.45,-573.01 1226.29,-578.17"/>
<polygon fill="black" stroke="black" points="1225.78,-580.56 1233.17,-579.96 1227.02,-575.82 1225.78,-580.56"/>
</g>
<!-- Age_at_Release_28&#45;32&#45;&gt;Avg_Days_per_DrugTest -->
<g id="edge34" class="edge">
<title>Age_at_Release_28&#45;32&#45;&gt;Avg_Days_per_DrugTest</title>
<path fill="none" stroke="black" d="M1119.13,-471.56C1136.17,-473.69 1154.78,-475.73 1171.99,-476.98 1395.3,-493.25 1451.75,-487.98 1675.66,-487.98 1675.66,-487.98 1675.66,-487.98 1870.83,-487.98 2040.9,-487.98 2197.81,-653.35 2250.86,-715.63"/>
<polygon fill="black" stroke="black" points="2249.28,-717.56 2255.67,-721.33 2253.03,-714.4 2249.28,-717.56"/>
</g>
<!-- Age_at_Release_33&#45;37&#45;&gt;Age_at_Release_23&#45;27 -->
<g id="edge35" class="edge">
<title>Age_at_Release_33&#45;37&#45;&gt;Age_at_Release_23&#45;27</title>
<path fill="none" stroke="black" d="M1439.78,-393.2C1373.39,-396.51 1265.09,-399.26 1171.99,-406.98 1020.62,-419.53 626.13,-419.78 494.16,-494.98 471.61,-507.83 477.12,-523.24 458.16,-540.98 448.39,-550.12 436.9,-558.84 425.8,-566.17"/>
<polygon fill="black" stroke="black" points="424.25,-564.25 419.69,-570.09 426.9,-568.38 424.25,-564.25"/>
</g>
<!-- Age_at_Release_33&#45;37&#45;&gt;Age_at_Release_28&#45;32 -->
<g id="edge36" class="edge">
<title>Age_at_Release_33&#45;37&#45;&gt;Age_at_Release_28&#45;32</title>
<path fill="none" stroke="black" d="M1455.37,-399.06C1391.39,-411.81 1272.74,-430.46 1171.99,-448.98 1158.86,-451.39 1144.9,-454.11 1131.44,-456.66"/>
<polygon fill="black" stroke="black" points="1130.89,-454.27 1124.46,-457.97 1131.79,-459.08 1130.89,-454.27"/>
</g>
<!-- Age_at_Release_33&#45;37&#45;&gt;Age_at_Release_38&#45;42 -->
<g id="edge37" class="edge">
<title>Age_at_Release_33&#45;37&#45;&gt;Age_at_Release_38&#45;42</title>
<path fill="none" stroke="black" d="M1557.78,-396.92C1583.3,-404.36 1613.21,-414.12 1636.52,-422.68"/>
<polygon fill="black" stroke="black" points="1635.81,-425.03 1643.22,-425.17 1637.52,-420.44 1635.81,-425.03"/>
</g>
<!-- Age_at_Release_33&#45;37&#45;&gt;Age_at_Release_48 or older -->
<g id="edge38" class="edge">
<title>Age_at_Release_33&#45;37&#45;&gt;Age_at_Release_48 or older</title>
<path fill="none" stroke="black" d="M1487.25,-403.72C1451.73,-441.71 1360.6,-529.88 1314.15,-571.6"/>
<polygon fill="black" stroke="black" points="1312.3,-569.96 1308.71,-576.45 1315.56,-573.62 1312.3,-569.96"/>
</g>
<!-- Age_at_Release_33&#45;37&#45;&gt;Avg_Days_per_DrugTest -->
<g id="edge39" class="edge">
<title>Age_at_Release_33&#45;37&#45;&gt;Avg_Days_per_DrugTest</title>
<path fill="none" stroke="black" d="M1546.69,-371.97C1660.96,-337.48 1977.2,-261.49 2162.49,-408.98 2258.97,-485.78 2269.83,-650.72 2270.31,-713.77"/>
<polygon fill="black" stroke="black" points="2267.86,-713.94 2270.32,-720.94 2272.76,-713.94 2267.86,-713.94"/>
</g>
<!-- Age_at_Release_33&#45;37&#45;&gt;Supervision_Risk_Score_First -->
<g id="edge40" class="edge">
<title>Age_at_Release_33&#45;37&#45;&gt;Supervision_Risk_Score_First</title>
<path fill="none" stroke="black" d="M1564.21,-377.73C1616.87,-373.83 1692.89,-376.51 1745.53,-413.98 1824.98,-470.54 1855.25,-592.42 1864.92,-645"/>
<polygon fill="black" stroke="black" points="1862.52,-645.48 1866.15,-651.94 1867.34,-644.62 1862.52,-645.48"/>
</g>
<!-- Age_at_Release_38&#45;42&#45;&gt;Age_at_Release_28&#45;32 -->
<g id="edge41" class="edge">
<title>Age_at_Release_38&#45;42&#45;&gt;Age_at_Release_28&#45;32</title>
<path fill="none" stroke="black" d="M1612.45,-447.53C1497.95,-454.79 1256.76,-463.5 1134.19,-464.9"/>
<polygon fill="black" stroke="black" points="1133.98,-462.46 1127.01,-464.98 1134.04,-467.36 1133.98,-462.46"/>
</g>
<!-- Age_at_Release_38&#45;42&#45;&gt;Age_at_Release_33&#45;37 -->
<g id="edge42" class="edge">
<title>Age_at_Release_38&#45;42&#45;&gt;Age_at_Release_33&#45;37</title>
<path fill="none" stroke="black" d="M1621.55,-429.97C1596.03,-422.52 1566.15,-412.77 1542.9,-404.23"/>
<polygon fill="black" stroke="black" points="1543.63,-401.88 1536.21,-401.74 1541.92,-406.48 1543.63,-401.88"/>
</g>
<!-- Age_at_Release_38&#45;42&#45;&gt;Avg_Days_per_DrugTest -->
<g id="edge43" class="edge">
<title>Age_at_Release_38&#45;42&#45;&gt;Avg_Days_per_DrugTest</title>
<path fill="none" stroke="black" d="M1727.33,-428.64C1822.02,-408.21 2030.61,-378.47 2162.49,-473.98 2242.35,-531.83 2262.94,-659.47 2268.16,-713.75"/>
<polygon fill="black" stroke="black" points="2265.74,-714.16 2268.8,-720.91 2270.62,-713.72 2265.74,-714.16"/>
</g>
<!-- Age_at_Release_38&#45;42&#45;&gt;Supervision_Risk_Score_First -->
<g id="edge44" class="edge">
<title>Age_at_Release_38&#45;42&#45;&gt;Supervision_Risk_Score_First</title>
<path fill="none" stroke="black" d="M1692.34,-458.57C1726.38,-499.35 1810.71,-600.36 1849.16,-646.42"/>
<polygon fill="black" stroke="black" points="1847.46,-648.21 1853.83,-652.01 1851.23,-645.07 1847.46,-648.21"/>
</g>
<!-- Age_at_Release_43&#45;47&#45;&gt;Avg_Days_per_DrugTest -->
<g id="edge45" class="edge">
<title>Age_at_Release_43&#45;47&#45;&gt;Avg_Days_per_DrugTest</title>
<path fill="none" stroke="black" d="M2141.18,-754.51C2159.32,-752.32 2179.3,-749.91 2198.01,-747.65"/>
<polygon fill="black" stroke="black" points="2198.72,-750.04 2205.38,-746.76 2198.13,-745.17 2198.72,-750.04"/>
</g>
<!-- Age_at_Release_43&#45;47&#45;&gt;Supervision_Risk_Score_First -->
<g id="edge46" class="edge">
<title>Age_at_Release_43&#45;47&#45;&gt;Supervision_Risk_Score_First</title>
<path fill="none" stroke="black" d="M2033.72,-748.19C1995.36,-732.73 1940.27,-708.03 1905.02,-690.38"/>
<polygon fill="black" stroke="black" points="1906.03,-688.15 1898.68,-687.18 1903.82,-692.52 1906.03,-688.15"/>
</g>
<!-- Age_at_Release_48 or older&#45;&gt;Age_at_Release_28&#45;32 -->
<g id="edge47" class="edge">
<title>Age_at_Release_48 or older&#45;&gt;Age_at_Release_28&#45;32</title>
<path fill="none" stroke="black" d="M1205.92,-589.33C1193.74,-584.97 1181.91,-578.97 1171.99,-570.98 1145.66,-549.78 1161.03,-526.69 1135.99,-503.98 1125.25,-494.24 1111.12,-487.22 1097.92,-481.73"/>
<polygon fill="black" stroke="black" points="1098.53,-479.34 1091.13,-479 1096.71,-483.88 1098.53,-479.34"/>
</g>
<!-- Age_at_Release_48 or older&#45;&gt;Age_at_Release_33&#45;37 -->
<g id="edge48" class="edge">
<title>Age_at_Release_48 or older&#45;&gt;Age_at_Release_33&#45;37</title>
<path fill="none" stroke="black" d="M1300.85,-576.05C1336.65,-537.8 1428.18,-449.26 1474.37,-407.83"/>
<polygon fill="black" stroke="black" points="1476.17,-409.5 1479.77,-403.01 1472.91,-405.84 1476.17,-409.5"/>
</g>
<!-- Age_at_Release_48 or older&#45;&gt;Avg_Days_per_DrugTest -->
<g id="edge49" class="edge">
<title>Age_at_Release_48 or older&#45;&gt;Avg_Days_per_DrugTest</title>
<path fill="none" stroke="black" d="M1339.89,-607.38C1430.5,-629.42 1619.39,-673.24 1781.53,-696.98 1925.9,-718.12 2095.95,-729.78 2192.52,-735.18"/>
<polygon fill="black" stroke="black" points="2192.51,-737.63 2199.63,-735.57 2192.78,-732.74 2192.51,-737.63"/>
</g>
<!-- Age_at_Release_48 or older&#45;&gt;Supervision_Risk_Score_First -->
<g id="edge50" class="edge">
<title>Age_at_Release_48 or older&#45;&gt;Supervision_Risk_Score_First</title>
<path fill="none" stroke="black" d="M1367.03,-592.98C1459.55,-593.37 1615,-598.68 1745.53,-625.98 1772.56,-631.63 1801.71,-641.83 1824.87,-650.99"/>
<polygon fill="black" stroke="black" points="1824.14,-653.33 1831.55,-653.66 1825.97,-648.78 1824.14,-653.33"/>
</g>
<!-- Gang_Affiliated&#45;&gt;Avg_Days_per_DrugTest -->
<g id="edge51" class="edge">
<title>Gang_Affiliated&#45;&gt;Avg_Days_per_DrugTest</title>
<path fill="none" stroke="black" d="M1551.77,-875.07C1661.97,-871.81 1941.16,-856.93 2162.49,-788.98 2187.15,-781.41 2213.43,-769.25 2233.82,-758.82"/>
<polygon fill="black" stroke="black" points="2235.13,-760.9 2240.22,-755.51 2232.88,-756.55 2235.13,-760.9"/>
</g>
<!-- Gang_Affiliated&#45;&gt;Supervision_Risk_Score_First -->
<g id="edge52" class="edge">
<title>Gang_Affiliated&#45;&gt;Supervision_Risk_Score_First</title>
<path fill="none" stroke="black" d="M1530.45,-861C1594.77,-824.69 1759.07,-731.94 1832.47,-690.51"/>
<polygon fill="black" stroke="black" points="1833.97,-692.47 1838.86,-686.9 1831.56,-688.21 1833.97,-692.47"/>
</g>
<!-- Prior_Arrest_Episodes_Felony_high -->
<g id="node11" class="node">
<title>Prior_Arrest_Episodes_Felony_high</title>
<ellipse fill="none" stroke="black" cx="843.33" cy="-812.98" rx="101" ry="18"/>
<text text-anchor="middle" x="843.33" y="-810.48" font-family="Helvetica" font-size="10.00">Prior_Arrest_Episodes_Felony_high</text>
</g>
<!-- Prior_Arrest_Episodes_Felony_high&#45;&gt;Gender_F -->
<g id="edge53" class="edge">
<title>Prior_Arrest_Episodes_Felony_high&#45;&gt;Gender_F</title>
<path fill="none" stroke="black" d="M856.43,-830.83C877.91,-861.17 925.63,-922.81 980.58,-956.98 1041.97,-995.15 1083.38,-955.4 1135.99,-1004.98 1169.15,-1036.23 1138.5,-1070.08 1171.99,-1100.98 1191.25,-1118.75 1219.72,-1126.73 1243.14,-1130.28"/>
<polygon fill="black" stroke="black" points="1242.96,-1132.73 1250.23,-1131.24 1243.62,-1127.87 1242.96,-1132.73"/>
</g>
<!-- Prior_Arrest_Episodes_Felony_high&#45;&gt;Age_at_Release_18&#45;22 -->
<g id="edge54" class="edge">
<title>Prior_Arrest_Episodes_Felony_high&#45;&gt;Age_at_Release_18&#45;22</title>
<path fill="none" stroke="black" d="M788.5,-797.78C719.69,-778.01 597.16,-741.65 494.16,-704.98 401.86,-672.12 295.93,-627.78 238.64,-603.24"/>
<polygon fill="black" stroke="black" points="239.3,-600.85 231.9,-600.35 237.37,-605.36 239.3,-600.85"/>
</g>
<!-- Prior_Arrest_Episodes_Felony_high&#45;&gt;Age_at_Release_23&#45;27 -->
<g id="edge55" class="edge">
<title>Prior_Arrest_Episodes_Felony_high&#45;&gt;Age_at_Release_23&#45;27</title>
<path fill="none" stroke="black" d="M810.27,-795.91C782.75,-781.35 741.97,-759.97 706.08,-741.98 603.73,-690.67 481.88,-632.79 420.24,-603.74"/>
<polygon fill="black" stroke="black" points="421.13,-601.45 413.75,-600.68 419.04,-605.88 421.13,-601.45"/>
</g>
<!-- Prior_Arrest_Episodes_Felony_high&#45;&gt;Age_at_Release_28&#45;32 -->
<g id="edge56" class="edge">
<title>Prior_Arrest_Episodes_Felony_high&#45;&gt;Age_at_Release_28&#45;32</title>
<path fill="none" stroke="black" d="M855.48,-794.65C891.13,-736.06 1002.35,-553.26 1042.58,-487.15"/>
<polygon fill="black" stroke="black" points="1044.7,-488.38 1046.25,-481.12 1040.51,-485.83 1044.7,-488.38"/>
</g>
<!-- Prior_Arrest_Episodes_Felony_high&#45;&gt;Age_at_Release_38&#45;42 -->
<g id="edge57" class="edge">
<title>Prior_Arrest_Episodes_Felony_high&#45;&gt;Age_at_Release_38&#45;42</title>
<path fill="none" stroke="black" d="M866.09,-795.14C891.9,-774.84 936.93,-742.04 980.58,-722.98 1155.62,-646.55 1235.88,-721.9 1398.04,-620.98 1419.2,-607.81 1414.89,-593.94 1434.04,-577.98 1496.96,-525.53 1582.77,-482.37 1633.38,-459.26"/>
<polygon fill="black" stroke="black" points="1634.61,-461.39 1639.98,-456.27 1632.59,-456.92 1634.61,-461.39"/>
</g>
<!-- Prior_Arrest_Episodes_Felony_high&#45;&gt;Age_at_Release_43&#45;47 -->
<g id="edge58" class="edge">
<title>Prior_Arrest_Episodes_Felony_high&#45;&gt;Age_at_Release_43&#45;47</title>
<path fill="none" stroke="black" d="M942.68,-809.33C1136.83,-802.06 1583.08,-785 1958.13,-767.98 1972.71,-767.32 1988.3,-766.57 2003.23,-765.82"/>
<polygon fill="black" stroke="black" points="2003.63,-768.26 2010.5,-765.46 2003.38,-763.36 2003.63,-768.26"/>
</g>
<!-- Prior_Arrest_Episodes_Felony_high&#45;&gt;Age_at_Release_48 or older -->
<g id="edge59" class="edge">
<title>Prior_Arrest_Episodes_Felony_high&#45;&gt;Age_at_Release_48 or older</title>
<path fill="none" stroke="black" d="M858.7,-794.92C881.61,-767.3 929.12,-714.63 980.58,-684.98 1053.42,-643.01 1147.46,-618.71 1211.41,-605.95"/>
<polygon fill="black" stroke="black" points="1212.27,-608.28 1218.67,-604.53 1211.32,-603.47 1212.27,-608.28"/>
</g>
<!-- Prior_Arrest_Episodes_Felony_high&#45;&gt;Gang_Affiliated -->
<g id="edge60" class="edge">
<title>Prior_Arrest_Episodes_Felony_high&#45;&gt;Gang_Affiliated</title>
<path fill="none" stroke="black" d="M944.7,-813.19C1001.33,-814.88 1073.12,-819.67 1135.99,-831.98 1152.54,-835.22 1155.49,-840.48 1171.99,-843.98 1267.44,-864.25 1381.2,-871.7 1447.13,-874.43"/>
<polygon fill="black" stroke="black" points="1447.05,-876.88 1454.14,-874.71 1447.24,-871.98 1447.05,-876.88"/>
</g>
<!-- Prior_Arrest_Episodes_Felony_high&#45;&gt;Prior_Arrest_Episodes_Drug_high -->
<g id="edge61" class="edge">
<title>Prior_Arrest_Episodes_Felony_high&#45;&gt;Prior_Arrest_Episodes_Drug_high</title>
<path fill="none" stroke="black" d="M872.15,-830.26C899.08,-846.41 941.47,-870.32 980.58,-885.98 1047.11,-912.62 1081.59,-882.32 1135.99,-928.98 1165.58,-954.36 1142.5,-983.47 1171.99,-1008.98 1181,-1016.78 1191.81,-1022.68 1203.09,-1027.15"/>
<polygon fill="black" stroke="black" points="1202.37,-1029.49 1209.79,-1029.62 1204.07,-1024.9 1202.37,-1029.49"/>
</g>
<!-- Prior_Arrest_Episodes_Felony_high&#45;&gt;Avg_Days_per_DrugTest -->
<g id="edge62" class="edge">
<title>Prior_Arrest_Episodes_Felony_high&#45;&gt;Avg_Days_per_DrugTest</title>
<path fill="none" stroke="black" d="M861.5,-830.86C885.74,-855.04 932.45,-897.79 980.58,-920.98 1044.45,-951.75 1083.75,-909.05 1135.99,-956.98 1174.2,-992.04 1131.41,-1035.69 1171.99,-1067.98 1215.95,-1102.96 1619.48,-1111.98 1675.66,-1111.98 1675.66,-1111.98 1675.66,-1111.98 1870.83,-1111.98 2001.49,-1111.98 2062.03,-1158.53 2162.49,-1074.98 2258.86,-994.82 2269.78,-828.05 2270.29,-764.41"/>
<polygon fill="black" stroke="black" points="2272.74,-764.18 2270.31,-757.17 2267.84,-764.17 2272.74,-764.18"/>
</g>
<!-- Prior_Arrest_Episodes_Felony_high&#45;&gt;Supervision_Risk_Score_First -->
<g id="edge63" class="edge">
<title>Prior_Arrest_Episodes_Felony_high&#45;&gt;Supervision_Risk_Score_First</title>
<path fill="none" stroke="black" d="M880.52,-796.17C907.51,-784.38 945.6,-769.29 980.58,-760.98 1264.23,-693.56 1610.54,-676.09 1774.33,-671.56"/>
<polygon fill="black" stroke="black" points="1774.58,-674 1781.51,-671.37 1774.45,-669.11 1774.58,-674"/>
</g>
<!-- Recidivism_Within_3years -->
<g id="node21" class="node">
<title>Recidivism_Within_3years</title>
<ellipse fill="none" stroke="black" cx="1058.29" cy="-858.98" rx="77.91" ry="18"/>
<text text-anchor="middle" x="1058.29" y="-856.48" font-family="Helvetica" font-size="10.00">Recidivism_Within_3years</text>
</g>
<!-- Prior_Arrest_Episodes_Felony_high&#45;&gt;Recidivism_Within_3years -->
<g id="edge64" class="edge">
<title>Prior_Arrest_Episodes_Felony_high&#45;&gt;Recidivism_Within_3years</title>
<path fill="none" stroke="black" d="M924.54,-823.74C952.34,-829.35 982.7,-836.15 1007.35,-842.37"/>
<polygon fill="black" stroke="black" points="1006.76,-844.75 1014.15,-844.11 1007.97,-840 1006.76,-844.75"/>
</g>
<!-- Prior_Arrest_Episodes_Property_high&#45;&gt;Prior_Arrest_Episodes_Felony_high -->
<g id="edge65" class="edge">
<title>Prior_Arrest_Episodes_Property_high&#45;&gt;Prior_Arrest_Episodes_Felony_high</title>
<path fill="none" stroke="black" d="M610.91,-1103.89C632.13,-1065.44 685.07,-973.59 742.08,-905.98 764.28,-879.66 793.5,-853.31 814.67,-835.41"/>
<polygon fill="black" stroke="black" points="816.35,-837.2 820.14,-830.82 813.2,-833.45 816.35,-837.2"/>
</g>
<!-- Prior_Arrest_Episodes_Property_high&#45;&gt;Prior_Conviction_Episodes_Felony_high -->
<g id="edge66" class="edge">
<title>Prior_Arrest_Episodes_Property_high&#45;&gt;Prior_Conviction_Episodes_Felony_high</title>
<path fill="none" stroke="black" d="M672.44,-1135.21C748.17,-1152.95 871.72,-1182.49 980.58,-1193.98 1049.27,-1201.23 1067.01,-1197.47 1135.99,-1193.98 1145.94,-1193.48 1156.26,-1192.78 1166.61,-1192"/>
<polygon fill="black" stroke="black" points="1166.98,-1194.43 1173.77,-1191.45 1166.6,-1189.54 1166.98,-1194.43"/>
</g>
<!-- Prior_Arrest_Episodes_Property_high&#45;&gt;Avg_Days_per_DrugTest -->
<g id="edge67" class="edge">
<title>Prior_Arrest_Episodes_Property_high&#45;&gt;Avg_Days_per_DrugTest</title>
<path fill="none" stroke="black" d="M615.6,-1139.88C639.17,-1167.81 688.58,-1221.6 742.08,-1250.98 960.73,-1371.04 1034.57,-1396.98 1284.01,-1396.98 1284.01,-1396.98 1284.01,-1396.98 1870.83,-1396.98 2027.75,-1396.98 2073.76,-1327.41 2162.49,-1197.98 2259.79,-1056.04 2269.71,-837.59 2270.15,-764.09"/>
<polygon fill="black" stroke="black" points="2272.6,-764.04 2270.16,-757.04 2267.7,-764.03 2272.6,-764.04"/>
</g>
<!-- Prior_Arrest_Episodes_Property_high&#45;&gt;Supervision_Risk_Score_First -->
<g id="edge68" class="edge">
<title>Prior_Arrest_Episodes_Property_high&#45;&gt;Supervision_Risk_Score_First</title>
<path fill="none" stroke="black" d="M625.15,-1139.71C652.11,-1158.6 697.9,-1187.71 742.08,-1201.98 1019.56,-1291.6 1174.28,-1401.95 1398.04,-1214.98 1452.31,-1169.63 1397.42,-1120.48 1434.04,-1059.98 1528.6,-903.74 1611.32,-915.84 1745.53,-791.98 1781.89,-758.42 1822.37,-717.68 1846.7,-692.8"/>
<polygon fill="black" stroke="black" points="1848.51,-694.46 1851.64,-687.74 1845,-691.04 1848.51,-694.46"/>
</g>
<!-- Prior_Arrest_Episodes_Drug_high&#45;&gt;Avg_Days_per_DrugTest -->
<g id="edge69" class="edge">
<title>Prior_Arrest_Episodes_Drug_high&#45;&gt;Avg_Days_per_DrugTest</title>
<path fill="none" stroke="black" d="M1374.68,-1047.71C1584.68,-1062.84 2099.55,-1094.82 2162.49,-1049.98 2257.06,-982.58 2269.16,-826.09 2270.13,-764.52"/>
<polygon fill="black" stroke="black" points="2272.59,-764.18 2270.2,-757.15 2267.69,-764.13 2272.59,-764.18"/>
</g>
<!-- Prior_Conviction_Episodes_Felony_high&#45;&gt;Age_at_Release_23&#45;27 -->
<g id="edge70" class="edge">
<title>Prior_Conviction_Episodes_Felony_high&#45;&gt;Age_at_Release_23&#45;27</title>
<path fill="none" stroke="black" d="M1194.97,-1176.97C1187.11,-1174.56 1179.35,-1171.88 1171.99,-1168.98 851.51,-1042.58 739.38,-1034.95 494.16,-792.98 439.14,-738.69 402.07,-652.26 387.37,-609.76"/>
<polygon fill="black" stroke="black" points="389.68,-608.93 385.12,-603.08 385.03,-610.5 389.68,-608.93"/>
</g>
<!-- Prior_Conviction_Episodes_Felony_high&#45;&gt;Prior_Arrest_Episodes_Felony_high -->
<g id="edge71" class="edge">
<title>Prior_Conviction_Episodes_Felony_high&#45;&gt;Prior_Arrest_Episodes_Felony_high</title>
<path fill="none" stroke="black" d="M1209.31,-1174.49C1196.47,-1170.73 1183.56,-1165.98 1171.99,-1159.98 1019.44,-1080.91 899.03,-902.24 858.79,-837.22"/>
<polygon fill="black" stroke="black" points="860.68,-835.62 854.93,-830.93 856.51,-838.18 860.68,-835.62"/>
</g>
<!-- Prior_Conviction_Episodes_Felony_high&#45;&gt;Prior_Arrest_Episodes_Property_high -->
<g id="edge72" class="edge">
<title>Prior_Conviction_Episodes_Felony_high&#45;&gt;Prior_Arrest_Episodes_Property_high</title>
<path fill="none" stroke="black" d="M1226.12,-1203.39C1198.83,-1207.27 1165.78,-1210.47 1135.99,-1211.98 1067.01,-1215.47 1049.27,-1219.23 980.58,-1211.98 858.82,-1199.13 718.68,-1163.69 647.63,-1141"/>
<polygon fill="black" stroke="black" points="647.98,-1138.54 640.56,-1138.71 646.46,-1143.2 647.98,-1138.54"/>
</g>
<!-- Prior_Conviction_Episodes_Felony_high&#45;&gt;Avg_Days_per_DrugTest -->
<g id="edge73" class="edge">
<title>Prior_Conviction_Episodes_Felony_high&#45;&gt;Avg_Days_per_DrugTest</title>
<path fill="none" stroke="black" d="M1398.13,-1187.98C1475.99,-1187.98 1582.13,-1187.98 1675.66,-1187.98 1675.66,-1187.98 1675.66,-1187.98 1870.83,-1187.98 2000.97,-1187.98 2063.41,-1246.37 2162.49,-1161.98 2224.49,-1109.16 2258.11,-846.68 2267.28,-763.98"/>
<polygon fill="black" stroke="black" points="2269.72,-764.22 2268.05,-756.99 2264.85,-763.68 2269.72,-764.22"/>
</g>
<!-- Percent_Days_Employed -->
<g id="node15" class="node">
<title>Percent_Days_Employed</title>
<ellipse fill="none" stroke="black" cx="843.33" cy="-86.98" rx="73.67" ry="18"/>
<text text-anchor="middle" x="843.33" y="-84.48" font-family="Helvetica" font-size="10.00">Percent_Days_Employed</text>
</g>
<!-- Jobs_Per_Year -->
<g id="node16" class="node">
<title>Jobs_Per_Year</title>
<ellipse fill="none" stroke="black" cx="1058.29" cy="-67.98" rx="48.04" ry="18"/>
<text text-anchor="middle" x="1058.29" y="-65.48" font-family="Helvetica" font-size="10.00">Jobs_Per_Year</text>
</g>
<!-- Percent_Days_Employed&#45;&gt;Jobs_Per_Year -->
<g id="edge74" class="edge">
<title>Percent_Days_Employed&#45;&gt;Jobs_Per_Year</title>
<path fill="none" stroke="black" d="M901.4,-75.83C932.88,-72.07 971.76,-68.63 1002.82,-66.86"/>
<polygon fill="black" stroke="black" points="1003.27,-69.29 1010.13,-66.47 1003.01,-64.4 1003.27,-69.29"/>
</g>
<!-- Percent_Days_Employed&#45;&gt;Avg_Days_per_DrugTest -->
<g id="edge75" class="edge">
<title>Percent_Days_Employed&#45;&gt;Avg_Days_per_DrugTest</title>
<path fill="none" stroke="black" d="M911.67,-93.69C997.87,-101.68 1151.9,-113.98 1284.01,-113.98 1284.01,-113.98 1284.01,-113.98 1870.83,-113.98 2005.13,-113.98 2070.92,-94.74 2162.49,-192.98 2234.87,-270.64 2262.13,-617.37 2268.4,-713.94"/>
<polygon fill="black" stroke="black" points="2265.95,-714.14 2268.84,-720.97 2270.84,-713.83 2265.95,-714.14"/>
</g>
<!-- Percent_Days_Employed&#45;&gt;Recidivism_Within_3years -->
<g id="edge76" class="edge">
<title>Percent_Days_Employed&#45;&gt;Recidivism_Within_3years</title>
<path fill="none" stroke="black" d="M849.28,-104.93C877.45,-207.04 1017.42,-714.46 1050.34,-833.81"/>
<polygon fill="black" stroke="black" points="1048.04,-834.69 1052.27,-840.79 1052.77,-833.39 1048.04,-834.69"/>
</g>
<!-- Jobs_Per_Year&#45;&gt;Percent_Days_Employed -->
<g id="edge77" class="edge">
<title>Jobs_Per_Year&#45;&gt;Percent_Days_Employed</title>
<path fill="none" stroke="black" d="M1016.55,-77.06C990.42,-80.59 955.59,-84.07 924.1,-86.42"/>
<polygon fill="black" stroke="black" points="923.83,-83.98 917.02,-86.93 924.18,-88.87 923.83,-83.98"/>
</g>
<!-- Jobs_Per_Year&#45;&gt;Avg_Days_per_DrugTest -->
<g id="edge78" class="edge">
<title>Jobs_Per_Year&#45;&gt;Avg_Days_per_DrugTest</title>
<path fill="none" stroke="black" d="M1106.77,-68.69C1187.81,-69.84 1358.01,-71.98 1501.91,-71.98 1501.91,-71.98 1501.91,-71.98 1870.83,-71.98 2001.05,-71.98 2067.2,-11.22 2162.49,-99.98 2254.12,-185.34 2267.61,-605.6 2269.56,-713.63"/>
<polygon fill="black" stroke="black" points="2267.12,-713.9 2269.69,-720.86 2272.02,-713.82 2267.12,-713.9"/>
</g>
<!-- DrugTests_Cocaine_Positive -->
<g id="node18" class="node">
<title>DrugTests_Cocaine_Positive</title>
<ellipse fill="none" stroke="black" cx="2078.31" cy="-219.98" rx="84.36" ry="18"/>
<text text-anchor="middle" x="2078.31" y="-217.48" font-family="Helvetica" font-size="10.00">DrugTests_Cocaine_Positive</text>
</g>
<!-- DrugTests_Cocaine_Positive&#45;&gt;Avg_Days_per_DrugTest -->
<g id="edge79" class="edge">
<title>DrugTests_Cocaine_Positive&#45;&gt;Avg_Days_per_DrugTest</title>
<path fill="none" stroke="black" d="M2136.05,-233.11C2146,-237.65 2155.42,-243.77 2162.49,-251.98 2223.85,-323.33 2258.45,-624.68 2267.49,-713.95"/>
<polygon fill="black" stroke="black" points="2265.05,-714.25 2268.19,-720.97 2269.93,-713.76 2265.05,-714.25"/>
</g>
<!-- Delinquency_Reports_high&#45;&gt;Avg_Days_per_DrugTest -->
<g id="edge80" class="edge">
<title>Delinquency_Reports_high&#45;&gt;Avg_Days_per_DrugTest</title>
<path fill="none" stroke="black" d="M436.87,-70.63C523.66,-52.81 695.07,-21.98 842.33,-21.98 842.33,-21.98 842.33,-21.98 1870.83,-21.98 2000.97,-21.98 2067.51,40.99 2162.49,-47.98 2261.66,-140.88 2269.52,-599.68 2269.93,-713.43"/>
<polygon fill="black" stroke="black" points="2267.48,-713.72 2269.94,-720.71 2272.38,-713.71 2267.48,-713.72"/>
</g>
<!-- Supervision_Risk_Score_First&#45;&gt;Age_at_Release_43&#45;47 -->
<g id="edge81" class="edge">
<title>Supervision_Risk_Score_First&#45;&gt;Age_at_Release_43&#45;47</title>
<path fill="none" stroke="black" d="M1917.94,-685.2C1956.44,-700.86 2009.89,-724.89 2044.05,-742.04"/>
<polygon fill="black" stroke="black" points="2043.26,-744.39 2050.61,-745.37 2045.48,-740.02 2043.26,-744.39"/>
</g>
<!-- Supervision_Risk_Score_First&#45;&gt;Avg_Days_per_DrugTest -->
<g id="edge82" class="edge">
<title>Supervision_Risk_Score_First&#45;&gt;Avg_Days_per_DrugTest</title>
<path fill="none" stroke="black" d="M1955.88,-674.31C2014.5,-678.51 2093.89,-686.6 2162.49,-701.98 2183.66,-706.73 2206.47,-714.23 2225.61,-721.24"/>
<polygon fill="black" stroke="black" points="2224.8,-723.55 2232.21,-723.69 2226.5,-718.96 2224.8,-723.55"/>
</g>
<!-- Recidivism_Within_3years&#45;&gt;Gender_F -->
<g id="edge83" class="edge">
<title>Recidivism_Within_3years&#45;&gt;Gender_F</title>
<path fill="none" stroke="black" d="M1074.22,-876.71C1091.02,-897.33 1118.25,-932.91 1135.99,-966.98 1157.99,-1009.25 1141.52,-1031.34 1171.99,-1067.98 1192.36,-1092.47 1224.49,-1109.76 1249.13,-1120.32"/>
<polygon fill="black" stroke="black" points="1248.46,-1122.7 1255.87,-1123.12 1250.34,-1118.17 1248.46,-1122.7"/>
</g>
<!-- Recidivism_Within_3years&#45;&gt;Age_at_Release_38&#45;42 -->
<g id="edge84" class="edge">
<title>Recidivism_Within_3years&#45;&gt;Age_at_Release_38&#45;42</title>
<path fill="none" stroke="black" d="M1101.89,-844.02C1195.82,-809.4 1424.04,-716 1571.78,-577.98 1608.89,-543.31 1642.55,-494.22 1660.96,-465.18"/>
<polygon fill="black" stroke="black" points="1663.22,-466.18 1664.87,-458.95 1659.07,-463.58 1663.22,-466.18"/>
</g>
<!-- Recidivism_Within_3years&#45;&gt;Age_at_Release_43&#45;47 -->
<g id="edge85" class="edge">
<title>Recidivism_Within_3years&#45;&gt;Age_at_Release_43&#45;47</title>
<path fill="none" stroke="black" d="M1123.41,-868.82C1197.87,-879.71 1324.5,-896.57 1434.04,-902.98 1669.33,-916.75 1751.61,-935.57 1958.13,-821.98 1978.23,-810.92 1974.38,-796.67 1994.13,-784.98 2000.74,-781.06 2008.05,-777.8 2015.5,-775.07"/>
<polygon fill="black" stroke="black" points="2016.54,-777.3 2022.36,-772.72 2014.95,-772.67 2016.54,-777.3"/>
</g>
<!-- Recidivism_Within_3years&#45;&gt;Age_at_Release_48 or older -->
<g id="edge86" class="edge">
<title>Recidivism_Within_3years&#45;&gt;Age_at_Release_48 or older</title>
<path fill="none" stroke="black" d="M1074.38,-841.18C1113.88,-794.6 1220.28,-669.13 1264.41,-617.09"/>
<polygon fill="black" stroke="black" points="1266.32,-618.62 1268.98,-611.7 1262.59,-615.45 1266.32,-618.62"/>
</g>
<!-- Recidivism_Within_3years&#45;&gt;Prior_Arrest_Episodes_Felony_high -->
<g id="edge87" class="edge">
<title>Recidivism_Within_3years&#45;&gt;Prior_Arrest_Episodes_Felony_high</title>
<path fill="none" stroke="black" d="M988.99,-850.57C959.61,-844.87 925.76,-837.43 898.19,-830.57"/>
<polygon fill="black" stroke="black" points="898.72,-828.18 891.33,-828.84 897.52,-832.93 898.72,-828.18"/>
</g>
<!-- Recidivism_Within_3years&#45;&gt;Prior_Arrest_Episodes_Property_high -->
<g id="edge88" class="edge">
<title>Recidivism_Within_3years&#45;&gt;Prior_Arrest_Episodes_Property_high</title>
<path fill="none" stroke="black" d="M1028.43,-875.62C948.59,-921.65 724.92,-1050.6 637.13,-1101.22"/>
<polygon fill="black" stroke="black" points="635.89,-1099.1 631.05,-1104.72 638.34,-1103.35 635.89,-1099.1"/>
</g>
<!-- Recidivism_Within_3years&#45;&gt;Prior_Arrest_Episodes_Drug_high -->
<g id="edge89" class="edge">
<title>Recidivism_Within_3years&#45;&gt;Prior_Arrest_Episodes_Drug_high</title>
<path fill="none" stroke="black" d="M1109.6,-872.5C1119.39,-877.05 1128.82,-883.06 1135.99,-890.98 1172.79,-931.62 1132.87,-970.56 1171.99,-1008.98 1180.11,-1016.96 1190.09,-1022.98 1200.7,-1027.51"/>
<polygon fill="black" stroke="black" points="1199.97,-1029.86 1207.38,-1030.15 1201.76,-1025.3 1199.97,-1029.86"/>
</g>
<!-- Recidivism_Within_3years&#45;&gt;Prior_Conviction_Episodes_Felony_high -->
<g id="edge90" class="edge">
<title>Recidivism_Within_3years&#45;&gt;Prior_Conviction_Episodes_Felony_high</title>
<path fill="none" stroke="black" d="M1070.8,-877.17C1087.4,-904.12 1118.03,-956.67 1135.99,-1004.98 1160.64,-1071.27 1122.4,-1109.55 1171.99,-1159.98 1177.37,-1165.45 1183.65,-1169.91 1190.43,-1173.54"/>
<polygon fill="black" stroke="black" points="1189.43,-1175.78 1196.79,-1176.65 1191.58,-1171.38 1189.43,-1175.78"/>
</g>
<!-- Recidivism_Within_3years&#45;&gt;Avg_Days_per_DrugTest -->
<g id="edge91" class="edge">
<title>Recidivism_Within_3years&#45;&gt;Avg_Days_per_DrugTest</title>
<path fill="none" stroke="black" d="M1110.17,-872.55C1118.9,-875.35 1127.79,-878.52 1135.99,-881.98 1152.85,-889.09 1154.45,-896.75 1171.99,-901.98 1283.89,-935.34 1317.34,-916.75 1434.04,-920.98 1760.49,-932.8 1864.71,-957.31 2162.49,-822.98 2195.57,-808.06 2227.54,-780.88 2247.87,-761.48"/>
<polygon fill="black" stroke="black" points="2249.71,-763.11 2253.04,-756.48 2246.31,-759.59 2249.71,-763.11"/>
</g>
</g>
</svg>
