<?xml version="1.0" encoding="UTF-8" standalone="no"?>
<!DOCTYPE svg PUBLIC "-//W3C//DTD SVG 1.1//EN"
 "http://www.w3.org/Graphics/SVG/1.1/DTD/svg11.dtd">
<!-- Generated by graphviz version 2.44.0 (0)
 -->
<!-- Pages: 1 -->
<svg width="825pt" height="347pt"
 viewBox="0.00 0.00 825.46 347.12" xmlns="http://www.w3.org/2000/svg" xmlns:xlink="http://www.w3.org/1999/xlink">
<g id="graph0" class="graph" transform="scale(1 1) rotate(0) translate(4 343.12)">
<polygon fill="white" stroke="transparent" points="-4,4 -4,-343.12 821.46,-343.12 821.46,4 -4,4"/>
<!-- pretest_score -->
<g id="node1" class="node">
<title>pretest_score</title>
<ellipse fill="none" stroke="black" cx="44.74" cy="-170.12" rx="44.98" ry="18"/>
<text text-anchor="middle" x="44.74" y="-167.62" font-family="Helvetica" font-size="10.00">pretest_score</text>
</g>
<!-- struggled -->
<g id="node2" class="node">
<title>struggled</title>
<ellipse fill="none" stroke="black" cx="158.44" cy="-73.12" rx="32.93" ry="18"/>
<text text-anchor="middle" x="158.44" y="-70.62" font-family="Helvetica" font-size="10.00">struggled</text>
</g>
<!-- pretest_score&#45;&gt;struggled -->
<g id="edge1" class="edge">
<title>pretest_score&#45;&gt;struggled</title>
<path fill="none" stroke="black" d="M59.89,-153.16C77.45,-135.64 107.81,-108.86 130.01,-91.04"/>
<polygon fill="black" stroke="black" points="131.79,-92.75 135.75,-86.49 128.74,-88.92 131.79,-92.75"/>
</g>
<!-- tutoring_round1 -->
<g id="node3" class="node">
<title>tutoring_round1</title>
<ellipse fill="none" stroke="black" cx="768.6" cy="-189.12" rx="48.72" ry="18"/>
<text text-anchor="middle" x="768.6" y="-186.62" font-family="Helvetica" font-size="10.00">tutoring_round1</text>
</g>
<!-- pretest_score&#45;&gt;tutoring_round1 -->
<g id="edge2" class="edge">
<title>pretest_score&#45;&gt;tutoring_round1</title>
<path fill="none" stroke="black" d="M59.68,-187.1C89.48,-226.85 163.97,-321.12 253.41,-321.12 253.41,-321.12 253.41,-321.12 509.23,-321.12 603.81,-321.12 696.68,-247.42 740.88,-209.99"/>
<polygon fill="black" stroke="black" points="742.53,-211.79 746.28,-205.39 739.36,-208.06 742.53,-211.79"/>
</g>
<!-- posttest_improved -->
<g id="node4" class="node">
<title>posttest_improved</title>
<ellipse fill="none" stroke="black" cx="373.92" cy="-181.12" rx="56.52" ry="18"/>
<text text-anchor="middle" x="373.92" y="-178.62" font-family="Helvetica" font-size="10.00">posttest_improved</text>
</g>
<!-- pretest_score&#45;&gt;posttest_improved -->
<g id="edge3" class="edge">
<title>pretest_score&#45;&gt;posttest_improved</title>
<path fill="none" stroke="black" d="M87.52,-164.42C99.75,-164.82 113.14,-165.58 125.48,-166.12 190.33,-168.94 264.81,-170.52 314.97,-173.19"/>
<polygon fill="black" stroke="black" points="315.07,-175.65 322.19,-173.59 315.34,-170.76 315.07,-175.65"/>
</g>
<!-- tutoring_round2 -->
<g id="node5" class="node">
<title>tutoring_round2</title>
<ellipse fill="none" stroke="black" cx="634.88" cy="-106.12" rx="48.72" ry="18"/>
<text text-anchor="middle" x="634.88" y="-103.62" font-family="Helvetica" font-size="10.00">tutoring_round2</text>
</g>
<!-- pretest_score&#45;&gt;tutoring_round2 -->
<g id="edge4" class="edge">
<title>pretest_score&#45;&gt;tutoring_round2</title>
<path fill="none" stroke="black" d="M49.57,-151.88C58.1,-121.07 81.44,-61.16 125.48,-37.12 287.48,51.31 521.19,-43.21 603.67,-86.86"/>
<polygon fill="black" stroke="black" points="602.94,-89.24 610.27,-90.41 605.27,-84.93 602.94,-89.24"/>
</g>
<!-- passed_final -->
<g id="node6" class="node">
<title>passed_final</title>
<ellipse fill="none" stroke="black" cx="508.23" cy="-161.12" rx="41.59" ry="18"/>
<text text-anchor="middle" x="508.23" y="-158.62" font-family="Helvetica" font-size="10.00">passed_final</text>
</g>
<!-- pretest_score&#45;&gt;passed_final -->
<g id="edge5" class="edge">
<title>pretest_score&#45;&gt;passed_final</title>
<path fill="none" stroke="black" d="M84.81,-178.44C97.54,-182.77 111.9,-187.4 125.48,-190.12 258.43,-216.77 299.92,-235.89 430.43,-199.12 445.82,-194.78 461.17,-186.41 474.05,-178.5"/>
<polygon fill="black" stroke="black" points="475.54,-180.46 480.17,-174.66 472.93,-176.3 475.54,-180.46"/>
</g>
<!-- noise -->
<g id="node7" class="node">
<title>noise</title>
<ellipse fill="none" stroke="black" cx="254.41" cy="-143.12" rx="27" ry="18"/>
<text text-anchor="middle" x="254.41" y="-140.62" font-family="Helvetica" font-size="10.00">noise</text>
</g>
<!-- pretest_score&#45;&gt;noise -->
<g id="edge6" class="edge">
<title>pretest_score&#45;&gt;noise</title>
<path fill="none" stroke="black" d="M82.39,-160.06C121.36,-152.99 182.46,-145.11 220.1,-142.34"/>
<polygon fill="black" stroke="black" points="220.49,-144.77 227.31,-141.85 220.16,-139.88 220.49,-144.77"/>
</g>
<!-- struggled&#45;&gt;pretest_score -->
<g id="edge7" class="edge">
<title>struggled&#45;&gt;pretest_score</title>
<path fill="none" stroke="black" d="M144.02,-89.36C127.09,-106.34 97.5,-132.51 75.2,-150.56"/>
<polygon fill="black" stroke="black" points="73.63,-148.68 69.7,-154.97 76.7,-152.51 73.63,-148.68"/>
</g>
<!-- struggled&#45;&gt;tutoring_round1 -->
<g id="edge8" class="edge">
<title>struggled&#45;&gt;tutoring_round1</title>
<path fill="none" stroke="black" d="M188.24,-65.06C270.91,-43.59 513.9,7.61 683.74,-79.12 719.23,-97.24 743.94,-138.09 756.94,-164.58"/>
<polygon fill="black" stroke="black" points="754.77,-165.72 759.99,-170.99 759.19,-163.62 754.77,-165.72"/>
</g>
<!-- struggled&#45;&gt;posttest_improved -->
<g id="edge9" class="edge">
<title>struggled&#45;&gt;posttest_improved</title>
<path fill="none" stroke="black" d="M188.47,-80.87C213.79,-88.2 251.11,-100.41 281.41,-116.12 305.03,-128.37 329.49,-146.05 347.18,-159.87"/>
<polygon fill="black" stroke="black" points="345.89,-161.98 352.9,-164.4 348.93,-158.14 345.89,-161.98"/>
</g>
<!-- struggled&#45;&gt;tutoring_round2 -->
<g id="edge10" class="edge">
<title>struggled&#45;&gt;tutoring_round2</title>
<path fill="none" stroke="black" d="M189.04,-65.79C213.75,-64.07 249.9,-64.48 281.41,-66.12 391.06,-71.83 519.41,-84.68 586.9,-94.98"/>
<polygon fill="black" stroke="black" points="586.74,-97.43 594.04,-96.09 587.5,-92.59 586.74,-97.43"/>
</g>
<!-- struggled&#45;&gt;passed_final -->
<g id="edge11" class="edge">
<title>struggled&#45;&gt;passed_final</title>
<path fill="none" stroke="black" d="M191.3,-75.73C216.07,-78.14 251.18,-82.38 281.41,-89.12 349.02,-104.21 425.37,-130.59 469.72,-146.89"/>
<polygon fill="black" stroke="black" points="468.88,-149.19 476.29,-149.31 470.57,-144.59 468.88,-149.19"/>
</g>
<!-- struggled&#45;&gt;noise -->
<g id="edge12" class="edge">
<title>struggled&#45;&gt;noise</title>
<path fill="none" stroke="black" d="M178.91,-87.62C193.62,-98.58 213.89,-113.68 229.57,-125.36"/>
<polygon fill="black" stroke="black" points="228.47,-127.6 235.55,-129.82 231.4,-123.67 228.47,-127.6"/>
</g>
<!-- tutoring_round1&#45;&gt;pretest_score -->
<g id="edge13" class="edge">
<title>tutoring_round1&#45;&gt;pretest_score</title>
<path fill="none" stroke="black" d="M754.71,-206.59C719.15,-246.48 615.26,-339.12 509.23,-339.12 253.41,-339.12 253.41,-339.12 253.41,-339.12 162.12,-339.12 86.4,-240.91 57.89,-194.05"/>
<polygon fill="black" stroke="black" points="59.86,-192.57 54.19,-187.79 55.65,-195.06 59.86,-192.57"/>
</g>
<!-- tutoring_round1&#45;&gt;posttest_improved -->
<g id="edge14" class="edge">
<title>tutoring_round1&#45;&gt;posttest_improved</title>
<path fill="none" stroke="black" d="M730.05,-200.23C715.58,-201.76 698.9,-202.67 683.74,-203.12 587.16,-206 562.86,-203.23 466.43,-197.12 452.62,-196.24 437.64,-195.16 423.89,-193.75"/>
<polygon fill="black" stroke="black" points="424.04,-191.3 416.81,-192.99 423.51,-196.18 424.04,-191.3"/>
</g>
<!-- tutoring_round1&#45;&gt;tutoring_round2 -->
<g id="edge15" class="edge">
<title>tutoring_round1&#45;&gt;tutoring_round2</title>
<path fill="none" stroke="black" d="M736.67,-175.45C713.36,-162.13 681.82,-142.11 660.27,-126.87"/>
<polygon fill="black" stroke="black" points="661.59,-124.8 654.47,-122.71 658.73,-128.78 661.59,-124.8"/>
</g>
<!-- tutoring_round1&#45;&gt;passed_final -->
<g id="edge16" class="edge">
<title>tutoring_round1&#45;&gt;passed_final</title>
<path fill="none" stroke="black" d="M719.57,-189.3C671.49,-185.98 598.2,-177.96 552.05,-170.93"/>
<polygon fill="black" stroke="black" points="552.17,-168.47 544.88,-169.81 551.42,-173.31 552.17,-168.47"/>
</g>
<!-- tutoring_round1&#45;&gt;noise -->
<g id="edge17" class="edge">
<title>tutoring_round1&#45;&gt;noise</title>
<path fill="none" stroke="black" d="M735.56,-202.52C720.18,-208.25 701.31,-214.26 683.74,-217.12 522.98,-243.25 466.03,-274.72 317.41,-208.12 297.43,-199.17 280.72,-180.49 269.7,-165.44"/>
<polygon fill="black" stroke="black" points="271.66,-163.98 265.62,-159.68 267.66,-166.81 271.66,-163.98"/>
</g>
<!-- posttest_improved&#45;&gt;pretest_score -->
<g id="edge18" class="edge">
<title>posttest_improved&#45;&gt;pretest_score</title>
<path fill="none" stroke="black" d="M320.76,-187.36C270.67,-188.64 192.88,-187.05 125.48,-184.12 113.2,-183.59 99.87,-182.82 87.68,-181.68"/>
<polygon fill="black" stroke="black" points="87.87,-179.24 80.66,-180.96 87.37,-184.11 87.87,-179.24"/>
</g>
<!-- posttest_improved&#45;&gt;tutoring_round1 -->
<g id="edge19" class="edge">
<title>posttest_improved&#45;&gt;tutoring_round1</title>
<path fill="none" stroke="black" d="M429.1,-176.74C441.37,-177.43 454.34,-178.35 466.43,-179.12 562.86,-185.23 587.16,-188 683.74,-185.12 693.81,-184.82 704.55,-184.32 714.86,-183.92"/>
<polygon fill="black" stroke="black" points="715.01,-186.37 721.92,-183.67 714.84,-181.47 715.01,-186.37"/>
</g>
<!-- posttest_improved&#45;&gt;tutoring_round2 -->
<g id="edge20" class="edge">
<title>posttest_improved&#45;&gt;tutoring_round2</title>
<path fill="none" stroke="black" d="M391.43,-163.97C409.25,-150.83 438.8,-134.28 466.43,-125.12 503.11,-112.96 546.13,-105.91 579.38,-103.14"/>
<polygon fill="black" stroke="black" points="579.95,-105.55 586.75,-102.58 579.58,-100.67 579.95,-105.55"/>
</g>
<!-- posttest_improved&#45;&gt;passed_final -->
<g id="edge21" class="edge">
<title>posttest_improved&#45;&gt;passed_final</title>
<path fill="none" stroke="black" d="M415.33,-168.74C429.05,-166.13 444.52,-163.71 458.8,-161.91"/>
<polygon fill="black" stroke="black" points="459.49,-164.3 466.14,-161.03 458.9,-159.43 459.49,-164.3"/>
</g>
<!-- posttest_improved&#45;&gt;noise -->
<g id="edge22" class="edge">
<title>posttest_improved&#45;&gt;noise</title>
<path fill="none" stroke="black" d="M324.72,-172.19C310.14,-167.74 294.66,-162.44 282.04,-157.49"/>
<polygon fill="black" stroke="black" points="282.75,-155.13 275.34,-154.78 280.91,-159.68 282.75,-155.13"/>
</g>
<!-- tutoring_round2&#45;&gt;pretest_score -->
<g id="edge23" class="edge">
<title>tutoring_round2&#45;&gt;pretest_score</title>
<path fill="none" stroke="black" d="M599.49,-93.52C513.53,-58.15 284.81,31.86 125.48,-55.12 89.65,-74.68 67.51,-117.99 55.92,-145.7"/>
<polygon fill="black" stroke="black" points="53.57,-144.97 53.19,-152.38 58.1,-146.82 53.57,-144.97"/>
</g>
<!-- tutoring_round2&#45;&gt;struggled -->
<g id="edge24" class="edge">
<title>tutoring_round2&#45;&gt;struggled</title>
<path fill="none" stroke="black" d="M585.78,-106.78C518,-102.54 390.45,-89.8 281.41,-84.12 252.85,-82.63 220.49,-82.16 196.28,-80.72"/>
<polygon fill="black" stroke="black" points="196.18,-78.26 189.04,-80.24 195.86,-83.15 196.18,-78.26"/>
</g>
<!-- tutoring_round2&#45;&gt;tutoring_round1 -->
<g id="edge25" class="edge">
<title>tutoring_round2&#45;&gt;tutoring_round1</title>
<path fill="none" stroke="black" d="M667.09,-119.95C690.32,-133.24 721.58,-153.08 743.04,-168.25"/>
<polygon fill="black" stroke="black" points="741.7,-170.3 748.82,-172.39 744.55,-166.32 741.7,-170.3"/>
</g>
<!-- tutoring_round2&#45;&gt;posttest_improved -->
<g id="edge26" class="edge">
<title>tutoring_round2&#45;&gt;posttest_improved</title>
<path fill="none" stroke="black" d="M594.48,-116.36C560.02,-121.8 508.96,-129.02 466.43,-143.12 449.82,-148.63 432.51,-156.8 417.48,-164.3"/>
<polygon fill="black" stroke="black" points="416.34,-162.13 411.19,-167.46 418.54,-166.51 416.34,-162.13"/>
</g>
<!-- tutoring_round2&#45;&gt;passed_final -->
<g id="edge27" class="edge">
<title>tutoring_round2&#45;&gt;passed_final</title>
<path fill="none" stroke="black" d="M610.5,-121.84C593.75,-130.58 570.73,-141.07 550.88,-149.15"/>
<polygon fill="black" stroke="black" points="549.87,-146.92 544.28,-151.79 551.69,-151.46 549.87,-146.92"/>
</g>
<!-- tutoring_round2&#45;&gt;noise -->
<g id="edge28" class="edge">
<title>tutoring_round2&#45;&gt;noise</title>
<path fill="none" stroke="black" d="M585.79,-106.02C552.27,-106.33 506.55,-107.49 466.43,-111.12 402.72,-116.88 328.97,-129.42 287.7,-136.98"/>
<polygon fill="black" stroke="black" points="287.06,-134.61 280.62,-138.29 287.95,-139.43 287.06,-134.61"/>
</g>
<!-- passed_final&#45;&gt;pretest_score -->
<g id="edge29" class="edge">
<title>passed_final&#45;&gt;pretest_score</title>
<path fill="none" stroke="black" d="M494.69,-178.4C480.28,-192.41 455.41,-210.08 430.43,-217.12 299.92,-253.89 258.43,-234.77 125.48,-208.12 106.77,-204.37 86.59,-196.99 71.21,-189.45"/>
<polygon fill="black" stroke="black" points="72.27,-187.25 64.93,-186.22 70.03,-191.6 72.27,-187.25"/>
</g>
<!-- passed_final&#45;&gt;tutoring_round1 -->
<g id="edge30" class="edge">
<title>passed_final&#45;&gt;tutoring_round1</title>
<path fill="none" stroke="black" d="M550.17,-160.47C596.28,-163.35 671.12,-171.37 719.86,-178.57"/>
<polygon fill="black" stroke="black" points="719.56,-181 726.85,-179.62 720.29,-176.16 719.56,-181"/>
</g>
<!-- passed_final&#45;&gt;posttest_improved -->
<g id="edge31" class="edge">
<title>passed_final&#45;&gt;posttest_improved</title>
<path fill="none" stroke="black" d="M474.76,-171.93C463.44,-174.26 450.33,-176.53 437.41,-178.41"/>
<polygon fill="black" stroke="black" points="436.85,-176.02 430.26,-179.42 437.54,-180.87 436.85,-176.02"/>
</g>
<!-- passed_final&#45;&gt;tutoring_round2 -->
<g id="edge32" class="edge">
<title>passed_final&#45;&gt;tutoring_round2</title>
<path fill="none" stroke="black" d="M531.51,-145.97C547.37,-137.64 569.22,-127.59 588.66,-119.55"/>
<polygon fill="black" stroke="black" points="589.59,-121.82 595.15,-116.91 587.74,-117.28 589.59,-121.82"/>
</g>
<!-- passed_final&#45;&gt;noise -->
<g id="edge33" class="edge">
<title>passed_final&#45;&gt;noise</title>
<path fill="none" stroke="black" d="M467.39,-157.27C455.5,-156.18 442.44,-155.04 430.43,-154.12 381.12,-150.32 323.91,-146.92 288.69,-144.93"/>
<polygon fill="black" stroke="black" points="288.64,-142.48 281.52,-144.53 288.37,-147.37 288.64,-142.48"/>
</g>
<!-- noise&#45;&gt;pretest_score -->
<g id="edge34" class="edge">
<title>noise&#45;&gt;pretest_score</title>
<path fill="none" stroke="black" d="M229.7,-150.69C197.49,-157.31 139.09,-165.37 96.71,-169.4"/>
<polygon fill="black" stroke="black" points="96.27,-166.98 89.53,-170.05 96.72,-171.85 96.27,-166.98"/>
</g>
<!-- noise&#45;&gt;posttest_improved -->
<g id="edge35" class="edge">
<title>noise&#45;&gt;posttest_improved</title>
<path fill="none" stroke="black" d="M281.2,-145.76C297.54,-149.87 318.91,-156.59 336.91,-163.2"/>
<polygon fill="black" stroke="black" points="336.47,-165.65 343.89,-165.82 338.19,-161.06 336.47,-165.65"/>
</g>
</g>
</svg>
