<?xml version="1.0" encoding="UTF-8" standalone="no"?>
<!DOCTYPE svg PUBLIC "-//W3C//DTD SVG 1.1//EN"
 "http://www.w3.org/Graphics/SVG/1.1/DTD/svg11.dtd">
<!-- Generated by graphviz version 2.44.0 (0)
 -->
<!-- Pages: 1 -->
<svg width="692pt" height="240pt"
 viewBox="0.00 0.00 691.90 240.00" xmlns="http://www.w3.org/2000/svg" xmlns:xlink="http://www.w3.org/1999/xlink">
<g id="graph0" class="graph" transform="scale(1 1) rotate(0) translate(4 236)">
<polygon fill="white" stroke="transparent" points="-4,4 -4,-236 687.9,-236 687.9,4 -4,4"/>
<!-- usage_hours -->
<g id="node1" class="node">
<title>usage_hours</title>
<ellipse fill="none" stroke="black" cx="640.92" cy="-107" rx="42.94" ry="18"/>
<text text-anchor="middle" x="640.92" y="-104.5" font-family="Helvetica" font-size="10.00">usage_hours</text>
</g>
<!-- baseline_error -->
<g id="node2" class="node">
<title>baseline_error</title>
<ellipse fill="none" stroke="black" cx="516.62" cy="-214" rx="45.15" ry="18"/>
<text text-anchor="middle" x="516.62" y="-211.5" font-family="Helvetica" font-size="10.00">baseline_error</text>
</g>
<!-- baseline_error&#45;&gt;usage_hours -->
<g id="edge1" class="edge">
<title>baseline_error&#45;&gt;usage_hours</title>
<path fill="none" stroke="black" d="M540.64,-198.32C547.64,-193.3 555.25,-187.6 561.95,-182 582.16,-165.13 603.61,-144.25 618.89,-128.81"/>
<polygon fill="black" stroke="black" points="620.66,-130.5 623.82,-123.8 617.17,-127.07 620.66,-130.5"/>
</g>
<!-- patch_v1 -->
<g id="node3" class="node">
<title>patch_v1</title>
<ellipse fill="none" stroke="black" cx="173.75" cy="-61" rx="32.93" ry="18"/>
<text text-anchor="middle" x="173.75" y="-58.5" font-family="Helvetica" font-size="10.00">patch_v1</text>
</g>
<!-- patch_v1&#45;&gt;usage_hours -->
<g id="edge2" class="edge">
<title>patch_v1&#45;&gt;usage_hours</title>
<path fill="none" stroke="black" d="M204.94,-54.85C271.22,-42.6 433.73,-19.42 561.95,-57 581.84,-62.83 601.47,-75.46 616.05,-86.57"/>
<polygon fill="black" stroke="black" points="614.56,-88.52 621.59,-90.9 617.58,-84.65 614.56,-88.52"/>
</g>
<!-- patch_v2 -->
<g id="node5" class="node">
<title>patch_v2</title>
<ellipse fill="none" stroke="black" cx="275.68" cy="-107" rx="32.93" ry="18"/>
<text text-anchor="middle" x="275.68" y="-104.5" font-family="Helvetica" font-size="10.00">patch_v2</text>
</g>
<!-- patch_v1&#45;&gt;patch_v2 -->
<g id="edge3" class="edge">
<title>patch_v1&#45;&gt;patch_v2</title>
<path fill="none" stroke="black" d="M199.45,-72.37C212.66,-78.45 229.07,-86.01 243.19,-92.51"/>
<polygon fill="black" stroke="black" points="242.53,-94.9 249.91,-95.6 244.58,-90.45 242.53,-94.9"/>
</g>
<!-- post_patch_error -->
<g id="node4" class="node">
<title>post_patch_error</title>
<ellipse fill="none" stroke="black" cx="52.39" cy="-84" rx="52.28" ry="18"/>
<text text-anchor="middle" x="52.39" y="-81.5" font-family="Helvetica" font-size="10.00">post_patch_error</text>
</g>
<!-- post_patch_error&#45;&gt;usage_hours -->
<g id="edge4" class="edge">
<title>post_patch_error&#45;&gt;usage_hours</title>
<path fill="none" stroke="black" d="M77.35,-67.92C94.43,-57.06 118.26,-43.11 140.78,-34 197.7,-10.99 213.28,0 274.68,0 274.68,0 274.68,0 390.97,0 468.63,0 492.82,-0.62 561.95,-36 585.03,-47.81 606.43,-68.28 620.96,-84.22"/>
<polygon fill="black" stroke="black" points="619.5,-86.26 625.98,-89.86 623.15,-83 619.5,-86.26"/>
</g>
<!-- post_patch_error&#45;&gt;baseline_error -->
<g id="edge5" class="edge">
<title>post_patch_error&#45;&gt;baseline_error</title>
<path fill="none" stroke="black" d="M82.66,-98.86C134.14,-124.24 244.91,-175.46 344.64,-199 384.04,-208.3 429.77,-211.95 464.01,-213.33"/>
<polygon fill="black" stroke="black" points="464.06,-215.79 471.14,-213.6 464.24,-210.89 464.06,-215.79"/>
</g>
<!-- post_patch_error&#45;&gt;patch_v1 -->
<g id="edge6" class="edge">
<title>post_patch_error&#45;&gt;patch_v1</title>
<path fill="none" stroke="black" d="M98.51,-75.3C110.65,-72.97 123.64,-70.46 135.31,-68.21"/>
<polygon fill="black" stroke="black" points="135.98,-70.58 142.38,-66.85 135.05,-65.77 135.98,-70.58"/>
</g>
<!-- patch_v2&#45;&gt;usage_hours -->
<g id="edge7" class="edge">
<title>patch_v2&#45;&gt;usage_hours</title>
<path fill="none" stroke="black" d="M308.82,-108.66C320.14,-109.18 332.95,-109.7 344.64,-110 441.19,-112.51 465.4,-113.47 561.95,-111 571.34,-110.76 581.37,-110.36 590.99,-109.89"/>
<polygon fill="black" stroke="black" points="591.39,-112.33 598.26,-109.53 591.15,-107.43 591.39,-112.33"/>
</g>
<!-- patch_v2&#45;&gt;post_patch_error -->
<g id="edge8" class="edge">
<title>patch_v2&#45;&gt;post_patch_error</title>
<path fill="none" stroke="black" d="M243.2,-103.73C208.6,-100.13 152.29,-94.28 109.97,-89.88"/>
<polygon fill="black" stroke="black" points="109.99,-87.42 102.78,-89.13 109.49,-92.29 109.99,-87.42"/>
</g>
<!-- failure -->
<g id="node6" class="node">
<title>failure</title>
<ellipse fill="none" stroke="black" cx="516.62" cy="-84" rx="27" ry="18"/>
<text text-anchor="middle" x="516.62" y="-81.5" font-family="Helvetica" font-size="10.00">failure</text>
</g>
<!-- patch_v2&#45;&gt;failure -->
<g id="edge9" class="edge">
<title>patch_v2&#45;&gt;failure</title>
<path fill="none" stroke="black" d="M308.41,-103.95C353.72,-99.58 436.55,-91.61 482.57,-87.18"/>
<polygon fill="black" stroke="black" points="482.9,-89.61 489.63,-86.5 482.43,-84.73 482.9,-89.61"/>
</g>
<!-- random_noise -->
<g id="node7" class="node">
<title>random_noise</title>
<ellipse fill="none" stroke="black" cx="389.97" cy="-172" rx="45.15" ry="18"/>
<text text-anchor="middle" x="389.97" y="-169.5" font-family="Helvetica" font-size="10.00">random_noise</text>
</g>
<!-- patch_v2&#45;&gt;random_noise -->
<g id="edge10" class="edge">
<title>patch_v2&#45;&gt;random_noise</title>
<path fill="none" stroke="black" d="M298.86,-119.84C315.52,-129.48 338.55,-142.82 357.17,-153.59"/>
<polygon fill="black" stroke="black" points="356.01,-155.75 363.29,-157.14 358.46,-151.51 356.01,-155.75"/>
</g>
<!-- failure&#45;&gt;usage_hours -->
<g id="edge11" class="edge">
<title>failure&#45;&gt;usage_hours</title>
<path fill="none" stroke="black" d="M542.96,-88.77C557.66,-91.53 576.61,-95.09 593.85,-98.34"/>
<polygon fill="black" stroke="black" points="593.79,-100.82 601.12,-99.7 594.7,-96 593.79,-100.82"/>
</g>
<!-- random_noise&#45;&gt;usage_hours -->
<g id="edge12" class="edge">
<title>random_noise&#45;&gt;usage_hours</title>
<path fill="none" stroke="black" d="M434.61,-168.26C469.63,-164.46 519.74,-157.18 561.95,-144 577.56,-139.13 594.03,-131.68 607.79,-124.75"/>
<polygon fill="black" stroke="black" points="609.21,-126.77 614.32,-121.4 606.97,-122.42 609.21,-126.77"/>
</g>
<!-- random_noise&#45;&gt;baseline_error -->
<g id="edge13" class="edge">
<title>random_noise&#45;&gt;baseline_error</title>
<path fill="none" stroke="black" d="M425.03,-183.48C440.42,-188.66 458.73,-194.83 474.84,-200.26"/>
<polygon fill="black" stroke="black" points="474.19,-202.62 481.6,-202.54 475.75,-197.98 474.19,-202.62"/>
</g>
</g>
</svg>
