<?xml version="1.0" encoding="UTF-8" standalone="no"?>
<!DOCTYPE svg PUBLIC "-//W3C//DTD SVG 1.1//EN"
 "http://www.w3.org/Graphics/SVG/1.1/DTD/svg11.dtd">
<!-- Generated by graphviz version 2.44.0 (0)
 -->
<!-- Pages: 1 -->
<svg width="421pt" height="86pt"
 viewBox="0.00 0.00 420.93 85.88" xmlns="http://www.w3.org/2000/svg" xmlns:xlink="http://www.w3.org/1999/xlink">
<g id="graph0" class="graph" transform="scale(1 1) rotate(0) translate(4 81.88)">
<polygon fill="white" stroke="transparent" points="-4,4 -4,-81.88 416.93,-81.88 416.93,4 -4,4"/>
<!-- rainfall_mm -->
<g id="node1" class="node">
<title>rainfall_mm</title>
<ellipse fill="none" stroke="black" cx="39.44" cy="-37.68" rx="39.38" ry="18"/>
<text text-anchor="middle" x="39.44" y="-35.18" font-family="Helvetica" font-size="10.00">rainfall_mm</text>
</g>
<!-- soil_quality -->
<g id="node3" class="node">
<title>soil_quality</title>
<ellipse fill="none" stroke="black" cx="153.14" cy="-37.68" rx="38.03" ry="18"/>
<text text-anchor="middle" x="153.14" y="-35.18" font-family="Helvetica" font-size="10.00">soil_quality</text>
</g>
<!-- rainfall_mm&#45;&gt;soil_quality -->
<g id="edge1" class="edge">
<title>rainfall_mm&#45;&gt;soil_quality</title>
<path fill="none" stroke="black" d="M76.4,-31.33C87.07,-30.88 98.86,-30.81 109.89,-31.11"/>
<polygon fill="black" stroke="black" points="109.93,-33.57 117.02,-31.36 110.11,-28.67 109.93,-33.57"/>
</g>
<!-- fertilizer_kg -->
<g id="node2" class="node">
<title>fertilizer_kg</title>
<ellipse fill="none" stroke="black" cx="374.08" cy="-37.68" rx="38.7" ry="18"/>
<text text-anchor="middle" x="374.08" y="-35.18" font-family="Helvetica" font-size="10.00">fertilizer_kg</text>
</g>
<!-- fertilizer_kg&#45;&gt;rainfall_mm -->
<g id="edge2" class="edge">
<title>fertilizer_kg&#45;&gt;rainfall_mm</title>
<path fill="none" stroke="black" d="M346.01,-25.19C332.3,-19.55 315.22,-13.51 299.22,-10.68 218.55,3.6 195.57,3.5 114.88,-10.68 101.4,-13.05 87.15,-17.66 74.76,-22.41"/>
<polygon fill="black" stroke="black" points="73.69,-20.2 68.09,-25.05 75.5,-24.75 73.69,-20.2"/>
</g>
<!-- fertilizer_kg&#45;&gt;soil_quality -->
<g id="edge3" class="edge">
<title>fertilizer_kg&#45;&gt;soil_quality</title>
<path fill="none" stroke="black" d="M355.06,-53.59C340.4,-61.8 318.98,-70.18 299.22,-73.68 267.79,-79.25 258.83,-79.29 227.41,-73.68 210.43,-70.65 192.24,-63.97 178.23,-56.91"/>
<polygon fill="black" stroke="black" points="179.04,-54.56 171.71,-53.42 176.73,-58.88 179.04,-54.56"/>
</g>
<!-- crop_yield -->
<g id="node4" class="node">
<title>crop_yield</title>
<ellipse fill="none" stroke="black" cx="263.32" cy="-37.68" rx="35.82" ry="18"/>
<text text-anchor="middle" x="263.32" y="-35.18" font-family="Helvetica" font-size="10.00">crop_yield</text>
</g>
<!-- fertilizer_kg&#45;&gt;crop_yield -->
<g id="edge4" class="edge">
<title>fertilizer_kg&#45;&gt;crop_yield</title>
<path fill="none" stroke="black" d="M337.61,-44.05C326.96,-44.5 315.2,-44.55 304.28,-44.22"/>
<polygon fill="black" stroke="black" points="304.33,-41.77 297.24,-43.94 304.14,-46.66 304.33,-41.77"/>
</g>
<!-- soil_quality&#45;&gt;rainfall_mm -->
<g id="edge5" class="edge">
<title>soil_quality&#45;&gt;rainfall_mm</title>
<path fill="none" stroke="black" d="M117.02,-44C106.4,-44.46 94.63,-44.55 83.55,-44.27"/>
<polygon fill="black" stroke="black" points="83.48,-41.82 76.4,-44.04 83.31,-46.72 83.48,-41.82"/>
</g>
<!-- soil_quality&#45;&gt;fertilizer_kg -->
<g id="edge6" class="edge">
<title>soil_quality&#45;&gt;fertilizer_kg</title>
<path fill="none" stroke="black" d="M188.47,-44.68C200.53,-48.84 214.33,-53.35 227.41,-55.68 258.83,-61.29 267.79,-61.25 299.22,-55.68 309.92,-53.79 321.1,-50.46 331.43,-47.05"/>
<polygon fill="black" stroke="black" points="332.24,-49.36 338.09,-44.81 330.67,-44.72 332.24,-49.36"/>
</g>
<!-- soil_quality&#45;&gt;crop_yield -->
<g id="edge7" class="edge">
<title>soil_quality&#45;&gt;crop_yield</title>
<path fill="none" stroke="black" d="M188.97,-31.33C199.6,-30.87 211.39,-30.81 222.34,-31.14"/>
<polygon fill="black" stroke="black" points="222.31,-33.59 229.4,-31.41 222.5,-28.69 222.31,-33.59"/>
</g>
<!-- crop_yield&#45;&gt;fertilizer_kg -->
<g id="edge8" class="edge">
<title>crop_yield&#45;&gt;fertilizer_kg</title>
<path fill="none" stroke="black" d="M297.24,-31.42C307.7,-30.92 319.43,-30.8 330.47,-31.07"/>
<polygon fill="black" stroke="black" points="330.54,-33.53 337.61,-31.31 330.7,-28.63 330.54,-33.53"/>
</g>
<!-- crop_yield&#45;&gt;soil_quality -->
<g id="edge9" class="edge">
<title>crop_yield&#45;&gt;soil_quality</title>
<path fill="none" stroke="black" d="M229.4,-43.95C218.9,-44.45 207.15,-44.56 196.1,-44.28"/>
<polygon fill="black" stroke="black" points="196.04,-41.83 188.97,-44.04 195.88,-46.72 196.04,-41.83"/>
</g>
</g>
</svg>
