<?xml version="1.0" encoding="UTF-8" standalone="no"?>
<!DOCTYPE svg PUBLIC "-//W3C//DTD SVG 1.1//EN"
 "http://www.w3.org/Graphics/SVG/1.1/DTD/svg11.dtd">
<!-- Generated by graphviz version 2.44.0 (0)
 -->
<!-- Pages: 1 -->
<svg width="533pt" height="67pt"
 viewBox="0.00 0.00 532.77 67.00" xmlns="http://www.w3.org/2000/svg" xmlns:xlink="http://www.w3.org/1999/xlink">
<g id="graph0" class="graph" transform="scale(1 1) rotate(0) translate(4 63)">
<polygon fill="white" stroke="transparent" points="-4,4 -4,-63 528.77,-63 528.77,4 -4,4"/>
<!-- baseline_health -->
<g id="node1" class="node">
<title>baseline_health</title>
<ellipse fill="none" stroke="black" cx="49.45" cy="-18" rx="49.4" ry="18"/>
<text text-anchor="middle" x="49.45" y="-15.5" font-family="Helvetica" font-size="10.00">baseline_health</text>
</g>
<!-- dosage_mg -->
<g id="node2" class="node">
<title>dosage_mg</title>
<ellipse fill="none" stroke="black" cx="174.34" cy="-41" rx="39.38" ry="18"/>
<text text-anchor="middle" x="174.34" y="-38.5" font-family="Helvetica" font-size="10.00">dosage_mg</text>
</g>
<!-- baseline_health&#45;&gt;dosage_mg -->
<g id="edge1" class="edge">
<title>baseline_health&#45;&gt;dosage_mg</title>
<path fill="none" stroke="black" d="M93.77,-26.11C105.79,-28.36 118.82,-30.8 130.79,-33.04"/>
<polygon fill="black" stroke="black" points="130.37,-35.45 137.7,-34.33 131.27,-30.63 130.37,-35.45"/>
</g>
<!-- health_improvement -->
<g id="node4" class="node">
<title>health_improvement</title>
<ellipse fill="none" stroke="black" cx="463.55" cy="-18" rx="61.44" ry="18"/>
<text text-anchor="middle" x="463.55" y="-15.5" font-family="Helvetica" font-size="10.00">health_improvement</text>
</g>
<!-- baseline_health&#45;&gt;health_improvement -->
<g id="edge2" class="edge">
<title>baseline_health&#45;&gt;health_improvement</title>
<path fill="none" stroke="black" d="M98.66,-15.32C110.51,-14.77 123.16,-14.28 134.9,-14 237.73,-11.57 263.49,-11.86 366.33,-14 375.88,-14.2 385.96,-14.51 395.86,-14.87"/>
<polygon fill="black" stroke="black" points="395.94,-17.32 403.02,-15.14 396.12,-12.43 395.94,-17.32"/>
</g>
<!-- drug_concentration -->
<g id="node3" class="node">
<title>drug_concentration</title>
<ellipse fill="none" stroke="black" cx="308.05" cy="-41" rx="58.06" ry="18"/>
<text text-anchor="middle" x="308.05" y="-38.5" font-family="Helvetica" font-size="10.00">drug_concentration</text>
</g>
<!-- dosage_mg&#45;&gt;drug_concentration -->
<g id="edge3" class="edge">
<title>dosage_mg&#45;&gt;drug_concentration</title>
<path fill="none" stroke="black" d="M213.79,-41C222.83,-41 232.71,-41 242.56,-41"/>
<polygon fill="black" stroke="black" points="242.7,-43.45 249.7,-41 242.7,-38.55 242.7,-43.45"/>
</g>
<!-- drug_concentration&#45;&gt;health_improvement -->
<g id="edge4" class="edge">
<title>drug_concentration&#45;&gt;health_improvement</title>
<path fill="none" stroke="black" d="M361.02,-33.21C374.06,-31.26 388.16,-29.15 401.59,-27.13"/>
<polygon fill="black" stroke="black" points="401.98,-29.55 408.54,-26.09 401.26,-24.71 401.98,-29.55"/>
</g>
</g>
</svg>
