<?xml version="1.0" encoding="UTF-8" standalone="no"?>
<!DOCTYPE svg PUBLIC "-//W3C//DTD SVG 1.1//EN"
 "http://www.w3.org/Graphics/SVG/1.1/DTD/svg11.dtd">
<!-- Generated by graphviz version 2.44.0 (0)
 -->
<!-- Pages: 1 -->
<svg width="354pt" height="101pt"
 viewBox="0.00 0.00 353.51 100.77" xmlns="http://www.w3.org/2000/svg" xmlns:xlink="http://www.w3.org/1999/xlink">
<g id="graph0" class="graph" transform="scale(1 1) rotate(0) translate(4 96.77)">
<polygon fill="white" stroke="transparent" points="-4,4 -4,-96.77 349.51,-96.77 349.51,4 -4,4"/>
<!-- age -->
<g id="node1" class="node">
<title>age</title>
<ellipse fill="none" stroke="black" cx="27" cy="-60" rx="27" ry="18"/>
<text text-anchor="middle" x="27" y="-57.5" font-family="Helvetica" font-size="10.00">age</text>
</g>
<!-- income -->
<g id="node2" class="node">
<title>income</title>
<ellipse fill="none" stroke="black" cx="317.25" cy="-64" rx="28.01" ry="18"/>
<text text-anchor="middle" x="317.25" y="-61.5" font-family="Helvetica" font-size="10.00">income</text>
</g>
<!-- age&#45;&gt;income -->
<g id="edge1" class="edge">
<title>age&#45;&gt;income</title>
<path fill="none" stroke="black" d="M48.24,-71.34C60.03,-77.29 75.4,-83.96 90,-87 158.29,-101.22 240.07,-84.86 284.21,-73.36"/>
<polygon fill="black" stroke="black" points="285.09,-75.66 291.22,-71.49 283.82,-70.92 285.09,-75.66"/>
</g>
<!-- visits -->
<g id="node3" class="node">
<title>visits</title>
<ellipse fill="none" stroke="black" cx="117" cy="-60" rx="27" ry="18"/>
<text text-anchor="middle" x="117" y="-57.5" font-family="Helvetica" font-size="10.00">visits</text>
</g>
<!-- age&#45;&gt;visits -->
<g id="edge2" class="edge">
<title>age&#45;&gt;visits</title>
<path fill="none" stroke="black" d="M52.51,-53.88C62.35,-53.2 73.81,-53.07 84.27,-53.49"/>
<polygon fill="black" stroke="black" points="84.19,-55.94 91.31,-53.86 84.45,-51.05 84.19,-55.94"/>
</g>
<!-- purchases -->
<g id="node4" class="node">
<title>purchases</title>
<ellipse fill="none" stroke="black" cx="216.5" cy="-18" rx="36.49" ry="18"/>
<text text-anchor="middle" x="216.5" y="-15.5" font-family="Helvetica" font-size="10.00">purchases</text>
</g>
<!-- age&#45;&gt;purchases -->
<g id="edge3" class="edge">
<title>age&#45;&gt;purchases</title>
<path fill="none" stroke="black" d="M42.34,-45.13C54.64,-37.09 73,-28.61 90,-24 117.76,-16.47 149.99,-12.72 174.83,-12.06"/>
<polygon fill="black" stroke="black" points="175,-14.51 181.96,-11.95 174.93,-9.61 175,-14.51"/>
</g>
<!-- visits&#45;&gt;age -->
<g id="edge4" class="edge">
<title>visits&#45;&gt;age</title>
<path fill="none" stroke="black" d="M91.31,-66.14C81.46,-66.8 69.99,-66.93 59.55,-66.5"/>
<polygon fill="black" stroke="black" points="59.64,-64.05 52.51,-66.12 59.37,-68.95 59.64,-64.05"/>
</g>
<!-- visits&#45;&gt;income -->
<g id="edge5" class="edge">
<title>visits&#45;&gt;income</title>
<path fill="none" stroke="black" d="M144.33,-60.53C179.72,-61.25 242.73,-62.52 281.85,-63.31"/>
<polygon fill="black" stroke="black" points="281.81,-65.76 288.86,-63.45 281.91,-60.86 281.81,-65.76"/>
</g>
<!-- visits&#45;&gt;purchases -->
<g id="edge6" class="edge">
<title>visits&#45;&gt;purchases</title>
<path fill="none" stroke="black" d="M135.88,-46.93C147.22,-40.85 162.34,-33.92 176.36,-28.23"/>
<polygon fill="black" stroke="black" points="177.53,-30.4 183.13,-25.54 175.72,-25.84 177.53,-30.4"/>
</g>
<!-- purchases&#45;&gt;age -->
<g id="edge7" class="edge">
<title>purchases&#45;&gt;age</title>
<path fill="none" stroke="black" d="M184.07,-26.48C158.39,-29.81 121.34,-33.5 90,-42 79.97,-44.72 69.46,-48.79 60.01,-52.57"/>
<polygon fill="black" stroke="black" points="58.92,-50.37 53.33,-55.26 60.74,-54.92 58.92,-50.37"/>
</g>
<!-- purchases&#45;&gt;income -->
<g id="edge8" class="edge">
<title>purchases&#45;&gt;income</title>
<path fill="none" stroke="black" d="M243.7,-30.21C257.16,-36.47 273.58,-44.12 287.4,-50.56"/>
<polygon fill="black" stroke="black" points="286.56,-52.88 293.94,-53.61 288.63,-48.43 286.56,-52.88"/>
</g>
<!-- purchases&#45;&gt;visits -->
<g id="edge9" class="edge">
<title>purchases&#45;&gt;visits</title>
<path fill="none" stroke="black" d="M194.75,-32.58C181.66,-39.39 164.49,-47.03 149.71,-52.71"/>
<polygon fill="black" stroke="black" points="148.81,-50.43 143.11,-55.17 150.52,-55.02 148.81,-50.43"/>
</g>
</g>
</svg>
