<?xml version="1.0" encoding="UTF-8" standalone="no"?>
<!DOCTYPE svg PUBLIC "-//W3C//DTD SVG 1.1//EN"
 "http://www.w3.org/Graphics/SVG/1.1/DTD/svg11.dtd">
<!-- Generated by graphviz version 2.44.0 (0)
 -->
<!-- Pages: 1 -->
<svg width="461pt" height="84pt"
 viewBox="0.00 0.00 460.80 84.47" xmlns="http://www.w3.org/2000/svg" xmlns:xlink="http://www.w3.org/1999/xlink">
<g id="graph0" class="graph" transform="scale(1 1) rotate(0) translate(4 80.47)">
<polygon fill="white" stroke="transparent" points="-4,4 -4,-80.47 456.8,-80.47 456.8,4 -4,4"/>
<!-- ad_spend_k -->
<g id="node1" class="node">
<title>ad_spend_k</title>
<ellipse fill="none" stroke="black" cx="40.62" cy="-37.77" rx="40.74" ry="18"/>
<text text-anchor="middle" x="40.62" y="-35.27" font-family="Helvetica" font-size="10.00">ad_spend_k</text>
</g>
<!-- brand_awareness -->
<g id="node3" class="node">
<title>brand_awareness</title>
<ellipse fill="none" stroke="black" cx="171.39" cy="-37.77" rx="54.31" ry="18"/>
<text text-anchor="middle" x="171.39" y="-35.27" font-family="Helvetica" font-size="10.00">brand_awareness</text>
</g>
<!-- ad_spend_k&#45;&gt;brand_awareness -->
<g id="edge1" class="edge">
<title>ad_spend_k&#45;&gt;brand_awareness</title>
<path fill="none" stroke="black" d="M78.86,-31.58C89.69,-31.11 101.77,-30.93 113.51,-31.06"/>
<polygon fill="black" stroke="black" points="113.73,-33.51 120.77,-31.18 113.81,-28.62 113.73,-33.51"/>
</g>
<!-- promo_spend_k -->
<g id="node2" class="node">
<title>promo_spend_k</title>
<ellipse fill="none" stroke="black" cx="402.17" cy="-37.77" rx="50.75" ry="18"/>
<text text-anchor="middle" x="402.17" y="-35.27" font-family="Helvetica" font-size="10.00">promo_spend_k</text>
</g>
<!-- promo_spend_k&#45;&gt;ad_spend_k -->
<g id="edge2" class="edge">
<title>promo_spend_k&#45;&gt;ad_spend_k</title>
<path fill="none" stroke="black" d="M367.58,-24.56C352.01,-19.12 333.11,-13.47 315.55,-10.77 228.44,2.64 204.08,4.27 117.24,-10.77 103.56,-13.14 89.08,-17.75 76.5,-22.5"/>
<polygon fill="black" stroke="black" points="75.35,-20.32 69.72,-25.14 77.13,-24.88 75.35,-20.32"/>
</g>
<!-- promo_spend_k&#45;&gt;brand_awareness -->
<g id="edge3" class="edge">
<title>promo_spend_k&#45;&gt;brand_awareness</title>
<path fill="none" stroke="black" d="M379.44,-54.02C362.39,-62.13 337.89,-70.33 315.55,-73.77 291.83,-77.42 285.29,-77.29 261.55,-73.77 241.07,-70.74 218.78,-63.99 201.61,-56.87"/>
<polygon fill="black" stroke="black" points="202.46,-54.57 195.06,-54.02 200.5,-59.06 202.46,-54.57"/>
</g>
<!-- sales -->
<g id="node4" class="node">
<title>sales</title>
<ellipse fill="none" stroke="black" cx="288.55" cy="-37.77" rx="27" ry="18"/>
<text text-anchor="middle" x="288.55" y="-35.27" font-family="Helvetica" font-size="10.00">sales</text>
</g>
<!-- promo_spend_k&#45;&gt;sales -->
<g id="edge4" class="edge">
<title>promo_spend_k&#45;&gt;sales</title>
<path fill="none" stroke="black" d="M354.91,-44.43C343.61,-44.64 331.76,-44.48 321.31,-43.93"/>
<polygon fill="black" stroke="black" points="321.46,-41.48 314.32,-43.49 321.16,-46.37 321.46,-41.48"/>
</g>
<!-- brand_awareness&#45;&gt;ad_spend_k -->
<g id="edge5" class="edge">
<title>brand_awareness&#45;&gt;ad_spend_k</title>
<path fill="none" stroke="black" d="M120.77,-44.36C109.34,-44.61 97.26,-44.57 86.07,-44.22"/>
<polygon fill="black" stroke="black" points="85.95,-41.77 78.86,-43.96 85.77,-46.66 85.95,-41.77"/>
</g>
<!-- brand_awareness&#45;&gt;promo_spend_k -->
<g id="edge6" class="edge">
<title>brand_awareness&#45;&gt;promo_spend_k</title>
<path fill="none" stroke="black" d="M219.46,-46.19C232.88,-49.93 247.63,-53.71 261.55,-55.77 285.29,-59.29 291.83,-59.42 315.55,-55.77 326.9,-54.02 338.82,-51.04 350.03,-47.9"/>
<polygon fill="black" stroke="black" points="350.85,-50.21 356.9,-45.93 349.5,-45.5 350.85,-50.21"/>
</g>
<!-- brand_awareness&#45;&gt;sales -->
<g id="edge7" class="edge">
<title>brand_awareness&#45;&gt;sales</title>
<path fill="none" stroke="black" d="M221.9,-31.08C233.39,-30.91 245.32,-31.1 255.8,-31.66"/>
<polygon fill="black" stroke="black" points="255.67,-34.11 262.81,-32.11 255.98,-29.22 255.67,-34.11"/>
</g>
<!-- sales&#45;&gt;promo_spend_k -->
<g id="edge8" class="edge">
<title>sales&#45;&gt;promo_spend_k</title>
<path fill="none" stroke="black" d="M314.32,-32.05C324.22,-31.31 336.02,-30.97 347.68,-31.03"/>
<polygon fill="black" stroke="black" points="347.88,-33.48 354.91,-31.11 347.94,-28.58 347.88,-33.48"/>
</g>
<!-- sales&#45;&gt;brand_awareness -->
<g id="edge9" class="edge">
<title>sales&#45;&gt;brand_awareness</title>
<path fill="none" stroke="black" d="M262.81,-43.43C252.9,-44.17 241.05,-44.54 229.23,-44.52"/>
<polygon fill="black" stroke="black" points="228.92,-42.07 221.9,-44.46 228.88,-46.97 228.92,-42.07"/>
</g>
</g>
</svg>
