<?xml version="1.0" encoding="UTF-8" standalone="no"?>
<!DOCTYPE svg PUBLIC "-//W3C//DTD SVG 1.1//EN"
 "http://www.w3.org/Graphics/SVG/1.1/DTD/svg11.dtd">
<!-- Generated by graphviz version 2.44.0 (0)
 -->
<!-- Pages: 1 -->
<svg width="542pt" height="44pt"
 viewBox="0.00 0.00 542.19 44.00" xmlns="http://www.w3.org/2000/svg" xmlns:xlink="http://www.w3.org/1999/xlink">
<g id="graph0" class="graph" transform="scale(1 1) rotate(0) translate(4 40)">
<polygon fill="white" stroke="transparent" points="-4,4 -4,-40 538.19,-40 538.19,4 -4,4"/>
<!-- baseline_health -->
<g id="node1" class="node">
<title>baseline_health</title>
<ellipse fill="none" stroke="black" cx="484.74" cy="-18" rx="49.4" ry="18"/>
<text text-anchor="middle" x="484.74" y="-15.5" font-family="Helvetica" font-size="10.00">baseline_health</text>
</g>
<!-- drug_dose_mg -->
<g id="node2" class="node">
<title>drug_dose_mg</title>
<ellipse fill="none" stroke="black" cx="352.2" cy="-18" rx="47.19" ry="18"/>
<text text-anchor="middle" x="352.2" y="-15.5" font-family="Helvetica" font-size="10.00">drug_dose_mg</text>
</g>
<!-- drug_dose_mg&#45;&gt;baseline_health -->
<g id="edge1" class="edge">
<title>drug_dose_mg&#45;&gt;baseline_health</title>
<path fill="none" stroke="black" d="M399.59,-18C408.82,-18 418.6,-18 428.1,-18"/>
<polygon fill="black" stroke="black" points="428.3,-20.45 435.3,-18 428.3,-15.55 428.3,-20.45"/>
</g>
<!-- blood_concentration -->
<g id="node3" class="node">
<title>blood_concentration</title>
<ellipse fill="none" stroke="black" cx="207.89" cy="-18" rx="61.44" ry="18"/>
<text text-anchor="middle" x="207.89" y="-15.5" font-family="Helvetica" font-size="10.00">blood_concentration</text>
</g>
<!-- blood_concentration&#45;&gt;drug_dose_mg -->
<g id="edge2" class="edge">
<title>blood_concentration&#45;&gt;drug_dose_mg</title>
<path fill="none" stroke="black" d="M269.24,-18C278.78,-18 288.59,-18 297.95,-18"/>
<polygon fill="black" stroke="black" points="298.01,-20.45 305.01,-18 298.01,-15.55 298.01,-20.45"/>
</g>
<!-- therapeutic_score -->
<g id="node4" class="node">
<title>therapeutic_score</title>
<ellipse fill="none" stroke="black" cx="55.33" cy="-18" rx="55.17" ry="18"/>
<text text-anchor="middle" x="55.33" y="-15.5" font-family="Helvetica" font-size="10.00">therapeutic_score</text>
</g>
<!-- therapeutic_score&#45;&gt;blood_concentration -->
<g id="edge3" class="edge">
<title>therapeutic_score&#45;&gt;blood_concentration</title>
<path fill="none" stroke="black" d="M110.69,-18C119.95,-18 129.67,-18 139.23,-18"/>
<polygon fill="black" stroke="black" points="139.49,-20.45 146.49,-18 139.49,-15.55 139.49,-20.45"/>
</g>
</g>
</svg>
