<?xml version="1.0" encoding="UTF-8" standalone="no"?>
<!DOCTYPE svg PUBLIC "-//W3C//DTD SVG 1.1//EN"
 "http://www.w3.org/Graphics/SVG/1.1/DTD/svg11.dtd">
<!-- Generated by graphviz version 2.44.0 (0)
 -->
<!-- Pages: 1 -->
<svg width="521pt" height="44pt"
 viewBox="0.00 0.00 521.00 44.00" xmlns="http://www.w3.org/2000/svg" xmlns:xlink="http://www.w3.org/1999/xlink">
<g id="graph0" class="graph" transform="scale(1 1) rotate(0) translate(4 40)">
<polygon fill="white" stroke="transparent" points="-4,4 -4,-40 517,-40 517,4 -4,4"/>
<!-- baseline_temp -->
<g id="node1" class="node">
<title>baseline_temp</title>
<ellipse fill="none" stroke="black" cx="465.91" cy="-18" rx="47.19" ry="18"/>
<text text-anchor="middle" x="465.91" y="-15.5" font-family="Helvetica" font-size="10.00">baseline_temp</text>
</g>
<!-- emission_levels -->
<g id="node2" class="node">
<title>emission_levels</title>
<ellipse fill="none" stroke="black" cx="332.19" cy="-18" rx="50.75" ry="18"/>
<text text-anchor="middle" x="332.19" y="-15.5" font-family="Helvetica" font-size="10.00">emission_levels</text>
</g>
<!-- emission_levels&#45;&gt;baseline_temp -->
<g id="edge1" class="edge">
<title>emission_levels&#45;&gt;baseline_temp</title>
<path fill="none" stroke="black" d="M382.99,-18C392.27,-18 402.02,-18 411.41,-18"/>
<polygon fill="black" stroke="black" points="411.51,-20.45 418.51,-18 411.51,-15.55 411.51,-20.45"/>
</g>
<!-- climate_index -->
<g id="node3" class="node">
<title>climate_index</title>
<ellipse fill="none" stroke="black" cx="200.24" cy="-18" rx="45.15" ry="18"/>
<text text-anchor="middle" x="200.24" y="-15.5" font-family="Helvetica" font-size="10.00">climate_index</text>
</g>
<!-- climate_index&#45;&gt;emission_levels -->
<g id="edge2" class="edge">
<title>climate_index&#45;&gt;emission_levels</title>
<path fill="none" stroke="black" d="M245.6,-18C254.74,-18 264.48,-18 274,-18"/>
<polygon fill="black" stroke="black" points="274.23,-20.45 281.23,-18 274.23,-15.55 274.23,-20.45"/>
</g>
<!-- loss_cost_estimate -->
<g id="node4" class="node">
<title>loss_cost_estimate</title>
<ellipse fill="none" stroke="black" cx="59.45" cy="-18" rx="59.41" ry="18"/>
<text text-anchor="middle" x="59.45" y="-15.5" font-family="Helvetica" font-size="10.00">loss_cost_estimate</text>
</g>
<!-- loss_cost_estimate&#45;&gt;climate_index -->
<g id="edge3" class="edge">
<title>loss_cost_estimate&#45;&gt;climate_index</title>
<path fill="none" stroke="black" d="M119.31,-18C128.64,-18 138.22,-18 147.38,-18"/>
<polygon fill="black" stroke="black" points="147.61,-20.45 154.61,-18 147.61,-15.55 147.61,-20.45"/>
</g>
</g>
</svg>
