<?xml version="1.0" encoding="UTF-8" standalone="no"?>
<!DOCTYPE svg PUBLIC "-//W3C//DTD SVG 1.1//EN"
 "http://www.w3.org/Graphics/SVG/1.1/DTD/svg11.dtd">
<!-- Generated by graphviz version 2.44.0 (0)
 -->
<!-- Pages: 1 -->
<svg width="475pt" height="44pt"
 viewBox="0.00 0.00 475.08 44.00" xmlns="http://www.w3.org/2000/svg" xmlns:xlink="http://www.w3.org/1999/xlink">
<g id="graph0" class="graph" transform="scale(1 1) rotate(0) translate(4 40)">
<polygon fill="white" stroke="transparent" points="-4,4 -4,-40 471.08,-40 471.08,4 -4,4"/>
<!-- student_aptitude -->
<g id="node1" class="node">
<title>student_aptitude</title>
<ellipse fill="none" stroke="black" cx="414.69" cy="-18" rx="52.28" ry="18"/>
<text text-anchor="middle" x="414.69" y="-15.5" font-family="Helvetica" font-size="10.00">student_aptitude</text>
</g>
<!-- study_hours -->
<g id="node2" class="node">
<title>study_hours</title>
<ellipse fill="none" stroke="black" cx="284.51" cy="-18" rx="41.59" ry="18"/>
<text text-anchor="middle" x="284.51" y="-15.5" font-family="Helvetica" font-size="10.00">study_hours</text>
</g>
<!-- study_hours&#45;&gt;student_aptitude -->
<g id="edge1" class="edge">
<title>study_hours&#45;&gt;student_aptitude</title>
<path fill="none" stroke="black" d="M326.42,-18C335.41,-18 345.11,-18 354.65,-18"/>
<polygon fill="black" stroke="black" points="354.91,-20.45 361.91,-18 354.91,-15.55 354.91,-20.45"/>
</g>
<!-- exam_score -->
<g id="node3" class="node">
<title>exam_score</title>
<ellipse fill="none" stroke="black" cx="166.09" cy="-18" rx="40.74" ry="18"/>
<text text-anchor="middle" x="166.09" y="-15.5" font-family="Helvetica" font-size="10.00">exam_score</text>
</g>
<!-- exam_score&#45;&gt;study_hours -->
<g id="edge2" class="edge">
<title>exam_score&#45;&gt;study_hours</title>
<path fill="none" stroke="black" d="M206.83,-18C215.96,-18 225.77,-18 235.22,-18"/>
<polygon fill="black" stroke="black" points="235.36,-20.45 242.36,-18 235.36,-15.55 235.36,-20.45"/>
</g>
<!-- course_grade -->
<g id="node4" class="node">
<title>course_grade</title>
<ellipse fill="none" stroke="black" cx="44.74" cy="-18" rx="44.98" ry="18"/>
<text text-anchor="middle" x="44.74" y="-15.5" font-family="Helvetica" font-size="10.00">course_grade</text>
</g>
<!-- course_grade&#45;&gt;exam_score -->
<g id="edge3" class="edge">
<title>course_grade&#45;&gt;exam_score</title>
<path fill="none" stroke="black" d="M89.5,-18C98.84,-18 108.73,-18 118.17,-18"/>
<polygon fill="black" stroke="black" points="118.29,-20.45 125.29,-18 118.29,-15.55 118.29,-20.45"/>
</g>
</g>
</svg>
