<?xml version="1.0" encoding="UTF-8" standalone="no"?>
<!DOCTYPE svg PUBLIC "-//W3C//DTD SVG 1.1//EN"
 "http://www.w3.org/Graphics/SVG/1.1/DTD/svg11.dtd">
<!-- Generated by graphviz version 2.44.0 (0)
 -->
<!-- Pages: 1 -->
<svg width="579pt" height="44pt"
 viewBox="0.00 0.00 578.69 44.00" xmlns="http://www.w3.org/2000/svg" xmlns:xlink="http://www.w3.org/1999/xlink">
<g id="graph0" class="graph" transform="scale(1 1) rotate(0) translate(4 40)">
<polygon fill="white" stroke="transparent" points="-4,4 -4,-40 574.69,-40 574.69,4 -4,4"/>
<!-- machine_condition -->
<g id="node1" class="node">
<title>machine_condition</title>
<ellipse fill="none" stroke="black" cx="513" cy="-18" rx="57.88" ry="18"/>
<text text-anchor="middle" x="513" y="-15.5" font-family="Helvetica" font-size="10.00">machine_condition</text>
</g>
<!-- maintenance_intensity -->
<g id="node2" class="node">
<title>maintenance_intensity</title>
<ellipse fill="none" stroke="black" cx="352.2" cy="-18" rx="67.22" ry="18"/>
<text text-anchor="middle" x="352.2" y="-15.5" font-family="Helvetica" font-size="10.00">maintenance_intensity</text>
</g>
<!-- maintenance_intensity&#45;&gt;machine_condition -->
<g id="edge1" class="edge">
<title>maintenance_intensity&#45;&gt;machine_condition</title>
<path fill="none" stroke="black" d="M419.63,-18C428.97,-18 438.57,-18 447.87,-18"/>
<polygon fill="black" stroke="black" points="447.92,-20.45 454.92,-18 447.92,-15.55 447.92,-20.45"/>
</g>
<!-- performance_metric -->
<g id="node3" class="node">
<title>performance_metric</title>
<ellipse fill="none" stroke="black" cx="187.88" cy="-18" rx="61.44" ry="18"/>
<text text-anchor="middle" x="187.88" y="-15.5" font-family="Helvetica" font-size="10.00">performance_metric</text>
</g>
<!-- performance_metric&#45;&gt;maintenance_intensity -->
<g id="edge2" class="edge">
<title>performance_metric&#45;&gt;maintenance_intensity</title>
<path fill="none" stroke="black" d="M249.32,-18C258.59,-18 268.24,-18 277.75,-18"/>
<polygon fill="black" stroke="black" points="277.98,-20.45 284.98,-18 277.98,-15.55 277.98,-20.45"/>
</g>
<!-- warranty_cost -->
<g id="node4" class="node">
<title>warranty_cost</title>
<ellipse fill="none" stroke="black" cx="45.33" cy="-18" rx="45.15" ry="18"/>
<text text-anchor="middle" x="45.33" y="-15.5" font-family="Helvetica" font-size="10.00">warranty_cost</text>
</g>
<!-- warranty_cost&#45;&gt;performance_metric -->
<g id="edge3" class="edge">
<title>warranty_cost&#45;&gt;performance_metric</title>
<path fill="none" stroke="black" d="M90.8,-18C99.92,-18 109.72,-18 119.45,-18"/>
<polygon fill="black" stroke="black" points="119.51,-20.45 126.51,-18 119.51,-15.55 119.51,-20.45"/>
</g>
</g>
</svg>
