<?xml version="1.0" encoding="UTF-8" standalone="no"?>
<!DOCTYPE svg PUBLIC "-//W3C//DTD SVG 1.1//EN"
 "http://www.w3.org/Graphics/SVG/1.1/DTD/svg11.dtd">
<!-- Generated by graphviz version 2.44.0 (0)
 -->
<!-- Pages: 1 -->
<svg width="547pt" height="44pt"
 viewBox="0.00 0.00 546.90 44.00" xmlns="http://www.w3.org/2000/svg" xmlns:xlink="http://www.w3.org/1999/xlink">
<g id="graph0" class="graph" transform="scale(1 1) rotate(0) translate(4 40)">
<polygon fill="white" stroke="transparent" points="-4,4 -4,-40 542.9,-40 542.9,4 -4,4"/>
<!-- risk_tolerance -->
<g id="node1" class="node">
<title>risk_tolerance</title>
<ellipse fill="none" stroke="black" cx="493.57" cy="-18" rx="45.15" ry="18"/>
<text text-anchor="middle" x="493.57" y="-15.5" font-family="Helvetica" font-size="10.00">risk_tolerance</text>
</g>
<!-- investment_amount -->
<g id="node2" class="node">
<title>investment_amount</title>
<ellipse fill="none" stroke="black" cx="352.79" cy="-18" rx="59.41" ry="18"/>
<text text-anchor="middle" x="352.79" y="-15.5" font-family="Helvetica" font-size="10.00">investment_amount</text>
</g>
<!-- investment_amount&#45;&gt;risk_tolerance -->
<g id="edge1" class="edge">
<title>investment_amount&#45;&gt;risk_tolerance</title>
<path fill="none" stroke="black" d="M412.65,-18C421.98,-18 431.56,-18 440.71,-18"/>
<polygon fill="black" stroke="black" points="440.95,-20.45 447.95,-18 440.95,-15.55 440.95,-20.45"/>
</g>
<!-- portfolio_return -->
<g id="node3" class="node">
<title>portfolio_return</title>
<ellipse fill="none" stroke="black" cx="209.07" cy="-18" rx="48.04" ry="18"/>
<text text-anchor="middle" x="209.07" y="-15.5" font-family="Helvetica" font-size="10.00">portfolio_return</text>
</g>
<!-- portfolio_return&#45;&gt;investment_amount -->
<g id="edge2" class="edge">
<title>portfolio_return&#45;&gt;investment_amount</title>
<path fill="none" stroke="black" d="M257.65,-18C266.75,-18 276.43,-18 285.98,-18"/>
<polygon fill="black" stroke="black" points="286.25,-20.45 293.25,-18 286.25,-15.55 286.25,-20.45"/>
</g>
<!-- investor_satisfaction -->
<g id="node4" class="node">
<title>investor_satisfaction</title>
<ellipse fill="none" stroke="black" cx="62.4" cy="-18" rx="62.3" ry="18"/>
<text text-anchor="middle" x="62.4" y="-15.5" font-family="Helvetica" font-size="10.00">investor_satisfaction</text>
</g>
<!-- investor_satisfaction&#45;&gt;portfolio_return -->
<g id="edge3" class="edge">
<title>investor_satisfaction&#45;&gt;portfolio_return</title>
<path fill="none" stroke="black" d="M125.17,-18C134.5,-18 144.07,-18 153.25,-18"/>
<polygon fill="black" stroke="black" points="153.5,-20.45 160.5,-18 153.5,-15.55 153.5,-20.45"/>
</g>
</g>
</svg>
