<?xml version="1.0" encoding="UTF-8" standalone="no"?>
<!DOCTYPE svg PUBLIC "-//W3C//DTD SVG 1.1//EN"
 "http://www.w3.org/Graphics/SVG/1.1/DTD/svg11.dtd">
<!-- Generated by graphviz version 2.44.0 (0)
 -->
<!-- Pages: 1 -->
<svg width="363pt" height="44pt"
 viewBox="0.00 0.00 362.56 44.00" xmlns="http://www.w3.org/2000/svg" xmlns:xlink="http://www.w3.org/1999/xlink">
<g id="graph0" class="graph" transform="scale(1 1) rotate(0) translate(4 40)">
<polygon fill="white" stroke="transparent" points="-4,4 -4,-40 358.56,-40 358.56,4 -4,4"/>
<!-- study_hours -->
<g id="node1" class="node">
<title>study_hours</title>
<ellipse fill="none" stroke="black" cx="41.8" cy="-18" rx="41.59" ry="18"/>
<text text-anchor="middle" x="41.8" y="-15.5" font-family="Helvetica" font-size="10.00">study_hours</text>
</g>
<!-- comprehension_level -->
<g id="node2" class="node">
<title>comprehension_level</title>
<ellipse fill="none" stroke="black" cx="182.58" cy="-18" rx="62.97" ry="18"/>
<text text-anchor="middle" x="182.58" y="-15.5" font-family="Helvetica" font-size="10.00">comprehension_level</text>
</g>
<!-- study_hours&#45;&gt;comprehension_level -->
<g id="edge1" class="edge">
<title>study_hours&#45;&gt;comprehension_level</title>
<path fill="none" stroke="black" d="M83.68,-18C92.69,-18 102.47,-18 112.26,-18"/>
<polygon fill="black" stroke="black" points="112.37,-20.45 119.37,-18 112.37,-15.55 112.37,-20.45"/>
</g>
<!-- test_score -->
<g id="node3" class="node">
<title>test_score</title>
<ellipse fill="none" stroke="black" cx="318.06" cy="-18" rx="36.49" ry="18"/>
<text text-anchor="middle" x="318.06" y="-15.5" font-family="Helvetica" font-size="10.00">test_score</text>
</g>
<!-- comprehension_level&#45;&gt;test_score -->
<g id="edge2" class="edge">
<title>comprehension_level&#45;&gt;test_score</title>
<path fill="none" stroke="black" d="M245.63,-18C255.3,-18 265.1,-18 274.22,-18"/>
<polygon fill="black" stroke="black" points="274.37,-20.45 281.37,-18 274.37,-15.55 274.37,-20.45"/>
</g>
</g>
</svg>
