<?xml version="1.0" encoding="UTF-8" standalone="no"?>
<!DOCTYPE svg PUBLIC "-//W3C//DTD SVG 1.1//EN"
 "http://www.w3.org/Graphics/SVG/1.1/DTD/svg11.dtd">
<!-- Generated by graphviz version 2.44.0 (0)
 -->
<!-- Pages: 1 -->
<svg width="376pt" height="44pt"
 viewBox="0.00 0.00 375.51 44.00" xmlns="http://www.w3.org/2000/svg" xmlns:xlink="http://www.w3.org/1999/xlink">
<g id="graph0" class="graph" transform="scale(1 1) rotate(0) translate(4 40)">
<polygon fill="white" stroke="transparent" points="-4,4 -4,-40 371.51,-40 371.51,4 -4,4"/>
<!-- sleep_hours -->
<g id="node1" class="node">
<title>sleep_hours</title>
<ellipse fill="none" stroke="black" cx="41.21" cy="-18" rx="41.41" ry="18"/>
<text text-anchor="middle" x="41.21" y="-15.5" font-family="Helvetica" font-size="10.00">sleep_hours</text>
</g>
<!-- alertness_score -->
<g id="node2" class="node">
<title>alertness_score</title>
<ellipse fill="none" stroke="black" cx="169.04" cy="-18" rx="50.75" ry="18"/>
<text text-anchor="middle" x="169.04" y="-15.5" font-family="Helvetica" font-size="10.00">alertness_score</text>
</g>
<!-- sleep_hours&#45;&gt;alertness_score -->
<g id="edge1" class="edge">
<title>sleep_hours&#45;&gt;alertness_score</title>
<path fill="none" stroke="black" d="M82.71,-18C91.76,-18 101.52,-18 111.09,-18"/>
<polygon fill="black" stroke="black" points="111.35,-20.45 118.35,-18 111.35,-15.55 111.35,-20.45"/>
</g>
<!-- productivity_index -->
<g id="node3" class="node">
<title>productivity_index</title>
<ellipse fill="none" stroke="black" cx="311.59" cy="-18" rx="55.85" ry="18"/>
<text text-anchor="middle" x="311.59" y="-15.5" font-family="Helvetica" font-size="10.00">productivity_index</text>
</g>
<!-- alertness_score&#45;&gt;productivity_index -->
<g id="edge2" class="edge">
<title>alertness_score&#45;&gt;productivity_index</title>
<path fill="none" stroke="black" d="M219.99,-18C229.17,-18 238.85,-18 248.34,-18"/>
<polygon fill="black" stroke="black" points="248.54,-20.45 255.54,-18 248.54,-15.55 248.54,-20.45"/>
</g>
</g>
</svg>
