<?xml version="1.0" encoding="UTF-8" standalone="no"?>
<!DOCTYPE svg PUBLIC "-//W3C//DTD SVG 1.1//EN"
 "http://www.w3.org/Graphics/SVG/1.1/DTD/svg11.dtd">
<!-- Generated by graphviz version 2.44.0 (0)
 -->
<!-- Pages: 1 -->
<svg width="354pt" height="44pt"
 viewBox="0.00 0.00 354.16 44.00" xmlns="http://www.w3.org/2000/svg" xmlns:xlink="http://www.w3.org/1999/xlink">
<g id="graph0" class="graph" transform="scale(1 1) rotate(0) translate(4 40)">
<polygon fill="white" stroke="transparent" points="-4,4 -4,-40 350.16,-40 350.16,4 -4,4"/>
<!-- advertising_spend -->
<g id="node1" class="node">
<title>advertising_spend</title>
<ellipse fill="none" stroke="black" cx="55.92" cy="-18" rx="55.85" ry="18"/>
<text text-anchor="middle" x="55.92" y="-15.5" font-family="Helvetica" font-size="10.00">advertising_spend</text>
</g>
<!-- brand_awareness -->
<g id="node2" class="node">
<title>brand_awareness</title>
<ellipse fill="none" stroke="black" cx="202" cy="-18" rx="54.31" ry="18"/>
<text text-anchor="middle" x="202" y="-15.5" font-family="Helvetica" font-size="10.00">brand_awareness</text>
</g>
<!-- advertising_spend&#45;&gt;brand_awareness -->
<g id="edge1" class="edge">
<title>advertising_spend&#45;&gt;brand_awareness</title>
<path fill="none" stroke="black" d="M112.22,-18C121.45,-18 131.07,-18 140.43,-18"/>
<polygon fill="black" stroke="black" points="140.52,-20.45 147.52,-18 140.52,-15.55 140.52,-20.45"/>
</g>
<!-- sales -->
<g id="node3" class="node">
<title>sales</title>
<ellipse fill="none" stroke="black" cx="319.16" cy="-18" rx="27" ry="18"/>
<text text-anchor="middle" x="319.16" y="-15.5" font-family="Helvetica" font-size="10.00">sales</text>
</g>
<!-- brand_awareness&#45;&gt;sales -->
<g id="edge2" class="edge">
<title>brand_awareness&#45;&gt;sales</title>
<path fill="none" stroke="black" d="M256.2,-18C266.06,-18 276.09,-18 285.13,-18"/>
<polygon fill="black" stroke="black" points="285.14,-20.45 292.14,-18 285.14,-15.55 285.14,-20.45"/>
</g>
</g>
</svg>
