<?xml version="1.0" encoding="UTF-8" standalone="no"?>
<!DOCTYPE svg PUBLIC "-//W3C//DTD SVG 1.1//EN"
 "http://www.w3.org/Graphics/SVG/1.1/DTD/svg11.dtd">
<!-- Generated by graphviz version 2.44.0 (0)
 -->
<!-- Pages: 1 -->
<svg width="332pt" height="44pt"
 viewBox="0.00 0.00 331.95 44.00" xmlns="http://www.w3.org/2000/svg" xmlns:xlink="http://www.w3.org/1999/xlink">
<g id="graph0" class="graph" transform="scale(1 1) rotate(0) translate(4 40)">
<polygon fill="white" stroke="transparent" points="-4,4 -4,-40 327.95,-40 327.95,4 -4,4"/>
<!-- page_views -->
<g id="node1" class="node">
<title>page_views</title>
<ellipse fill="none" stroke="black" cx="40.03" cy="-18" rx="40.06" ry="18"/>
<text text-anchor="middle" x="40.03" y="-15.5" font-family="Helvetica" font-size="10.00">page_views</text>
</g>
<!-- click_throughs -->
<g id="node2" class="node">
<title>click_throughs</title>
<ellipse fill="none" stroke="black" cx="163.15" cy="-18" rx="47.19" ry="18"/>
<text text-anchor="middle" x="163.15" y="-15.5" font-family="Helvetica" font-size="10.00">click_throughs</text>
</g>
<!-- page_views&#45;&gt;click_throughs -->
<g id="edge1" class="edge">
<title>page_views&#45;&gt;click_throughs</title>
<path fill="none" stroke="black" d="M80.35,-18C89.38,-18 99.13,-18 108.64,-18"/>
<polygon fill="black" stroke="black" points="108.86,-20.45 115.86,-18 108.86,-15.55 108.86,-20.45"/>
</g>
<!-- ad_revenue -->
<g id="node3" class="node">
<title>ad_revenue</title>
<ellipse fill="none" stroke="black" cx="285.1" cy="-18" rx="38.7" ry="18"/>
<text text-anchor="middle" x="285.1" y="-15.5" font-family="Helvetica" font-size="10.00">ad_revenue</text>
</g>
<!-- click_throughs&#45;&gt;ad_revenue -->
<g id="edge2" class="edge">
<title>click_throughs&#45;&gt;ad_revenue</title>
<path fill="none" stroke="black" d="M210.52,-18C219.88,-18 229.69,-18 239,-18"/>
<polygon fill="black" stroke="black" points="239,-20.45 246,-18 239,-15.55 239,-20.45"/>
</g>
</g>
</svg>
