<?xml version="1.0" encoding="UTF-8" standalone="no"?>
<!DOCTYPE svg PUBLIC "-//W3C//DTD SVG 1.1//EN"
 "http://www.w3.org/Graphics/SVG/1.1/DTD/svg11.dtd">
<!-- Generated by graphviz version 2.44.0 (0)
 -->
<!-- Pages: 1 -->
<svg width="373pt" height="110pt"
 viewBox="0.00 0.00 373.15 110.00" xmlns="http://www.w3.org/2000/svg" xmlns:xlink="http://www.w3.org/1999/xlink">
<g id="graph0" class="graph" transform="scale(1 1) rotate(0) translate(4 106)">
<polygon fill="white" stroke="transparent" points="-4,4 -4,-106 369.15,-106 369.15,4 -4,4"/>
<!-- age -->
<g id="node1" class="node">
<title>age</title>
<ellipse fill="none" stroke="black" cx="54.16" cy="-84" rx="27" ry="18"/>
<text text-anchor="middle" x="54.16" y="-81.5" font-family="Helvetica" font-size="10.00">age</text>
</g>
<!-- drug_dose -->
<g id="node3" class="node">
<title>drug_dose</title>
<ellipse fill="none" stroke="black" cx="180.81" cy="-41" rx="36.49" ry="18"/>
<text text-anchor="middle" x="180.81" y="-38.5" font-family="Helvetica" font-size="10.00">drug_dose</text>
</g>
<!-- age&#45;&gt;drug_dose -->
<g id="edge1" class="edge">
<title>age&#45;&gt;drug_dose</title>
<path fill="none" stroke="black" d="M74.63,-72.22C91.81,-64.64 117.4,-55.37 139.04,-48.69"/>
<polygon fill="black" stroke="black" points="139.92,-50.98 145.91,-46.61 138.5,-46.29 139.92,-50.98"/>
</g>
<!-- glucose_reduction -->
<g id="node4" class="node">
<title>glucose_reduction</title>
<ellipse fill="none" stroke="black" cx="309.23" cy="-41" rx="55.85" ry="18"/>
<text text-anchor="middle" x="309.23" y="-38.5" font-family="Helvetica" font-size="10.00">glucose_reduction</text>
</g>
<!-- age&#45;&gt;glucose_reduction -->
<g id="edge2" class="edge">
<title>age&#45;&gt;glucose_reduction</title>
<path fill="none" stroke="black" d="M79.27,-76.9C111.12,-72.48 168.87,-68.49 217.31,-59 228.55,-56.8 240.39,-53.8 251.69,-50.78"/>
<polygon fill="black" stroke="black" points="252.51,-53.09 258.63,-48.9 251.24,-48.36 252.51,-53.09"/>
</g>
<!-- baseline_glucose -->
<g id="node2" class="node">
<title>baseline_glucose</title>
<ellipse fill="none" stroke="black" cx="54.16" cy="-18" rx="54.31" ry="18"/>
<text text-anchor="middle" x="54.16" y="-15.5" font-family="Helvetica" font-size="10.00">baseline_glucose</text>
</g>
<!-- baseline_glucose&#45;&gt;drug_dose -->
<g id="edge3" class="edge">
<title>baseline_glucose&#45;&gt;drug_dose</title>
<path fill="none" stroke="black" d="M101.93,-26.63C114.29,-28.91 127.52,-31.35 139.5,-33.56"/>
<polygon fill="black" stroke="black" points="139.07,-35.97 146.4,-34.83 139.96,-31.16 139.07,-35.97"/>
</g>
<!-- baseline_glucose&#45;&gt;glucose_reduction -->
<g id="edge4" class="edge">
<title>baseline_glucose&#45;&gt;glucose_reduction</title>
<path fill="none" stroke="black" d="M105.82,-12.39C137.93,-9.9 180.25,-8.61 217.31,-14 233.14,-16.3 250.04,-20.74 264.93,-25.37"/>
<polygon fill="black" stroke="black" points="264.2,-27.71 271.61,-27.5 265.69,-23.04 264.2,-27.71"/>
</g>
<!-- drug_dose&#45;&gt;age -->
<g id="edge5" class="edge">
<title>drug_dose&#45;&gt;age</title>
<path fill="none" stroke="black" d="M156.12,-54.6C136.84,-62.78 109.4,-72.45 87.99,-78.7"/>
<polygon fill="black" stroke="black" points="87.05,-76.42 80.99,-80.68 88.39,-81.14 87.05,-76.42"/>
</g>
<!-- drug_dose&#45;&gt;glucose_reduction -->
<g id="edge6" class="edge">
<title>drug_dose&#45;&gt;glucose_reduction</title>
<path fill="none" stroke="black" d="M215.36,-34.96C225.9,-34.42 237.86,-34.18 249.61,-34.27"/>
<polygon fill="black" stroke="black" points="249.86,-36.72 256.89,-34.36 249.92,-31.82 249.86,-36.72"/>
</g>
<!-- glucose_reduction&#45;&gt;age -->
<g id="edge7" class="edge">
<title>glucose_reduction&#45;&gt;age</title>
<path fill="none" stroke="black" d="M283.85,-57.08C265.72,-64.69 240.25,-72.5 217.31,-77 172.66,-85.75 120.11,-89.82 87.21,-89.41"/>
<polygon fill="black" stroke="black" points="87.15,-86.95 80.09,-89.24 87.03,-91.85 87.15,-86.95"/>
</g>
<!-- glucose_reduction&#45;&gt;drug_dose -->
<g id="edge8" class="edge">
<title>glucose_reduction&#45;&gt;drug_dose</title>
<path fill="none" stroke="black" d="M256.89,-47.64C245.4,-47.85 233.38,-47.75 222.4,-47.35"/>
<polygon fill="black" stroke="black" points="222.46,-44.9 215.36,-47.04 222.24,-49.8 222.46,-44.9"/>
</g>
</g>
</svg>
