<?xml version="1.0" encoding="UTF-8" standalone="no"?>
<!DOCTYPE svg PUBLIC "-//W3C//DTD SVG 1.1//EN"
 "http://www.w3.org/Graphics/SVG/1.1/DTD/svg11.dtd">
<!-- Generated by graphviz version 2.44.0 (0)
 -->
<!-- Pages: 1 -->
<svg width="507pt" height="110pt"
 viewBox="0.00 0.00 506.72 110.41" xmlns="http://www.w3.org/2000/svg" xmlns:xlink="http://www.w3.org/1999/xlink">
<g id="graph0" class="graph" transform="scale(1 1) rotate(0) translate(4 106.41)">
<polygon fill="white" stroke="transparent" points="-4,4 -4,-106.41 502.72,-106.41 502.72,4 -4,4"/>
<!-- age -->
<g id="node1" class="node">
<title>age</title>
<ellipse fill="none" stroke="black" cx="176.02" cy="-31.41" rx="27" ry="18"/>
<text text-anchor="middle" x="176.02" y="-28.91" font-family="Helvetica" font-size="10.00">age</text>
</g>
<!-- drug_dose -->
<g id="node3" class="node">
<title>drug_dose</title>
<ellipse fill="none" stroke="black" cx="275.52" cy="-84.41" rx="36.49" ry="18"/>
<text text-anchor="middle" x="275.52" y="-81.91" font-family="Helvetica" font-size="10.00">drug_dose</text>
</g>
<!-- age&#45;&gt;drug_dose -->
<g id="edge1" class="edge">
<title>age&#45;&gt;drug_dose</title>
<path fill="none" stroke="black" d="M201.12,-38.6C216.02,-45.6 235.1,-55.96 250.06,-65.18"/>
<polygon fill="black" stroke="black" points="248.97,-67.39 256.2,-69.05 251.59,-63.24 248.97,-67.39"/>
</g>
<!-- blood_pressure_reduction -->
<g id="node4" class="node">
<title>blood_pressure_reduction</title>
<ellipse fill="none" stroke="black" cx="423.37" cy="-29.41" rx="75.2" ry="18"/>
<text text-anchor="middle" x="423.37" y="-26.91" font-family="Helvetica" font-size="10.00">blood_pressure_reduction</text>
</g>
<!-- age&#45;&gt;blood_pressure_reduction -->
<g id="edge2" class="edge">
<title>age&#45;&gt;blood_pressure_reduction</title>
<path fill="none" stroke="black" d="M202.36,-26.9C235.61,-24.33 295.51,-23.17 344.42,-23.72"/>
<polygon fill="black" stroke="black" points="344.52,-26.17 351.55,-23.81 344.58,-21.27 344.52,-26.17"/>
</g>
<!-- comorbidity_index -->
<g id="node2" class="node">
<title>comorbidity_index</title>
<ellipse fill="none" stroke="black" cx="56.51" cy="-31.41" rx="56.52" ry="18"/>
<text text-anchor="middle" x="56.51" y="-28.91" font-family="Helvetica" font-size="10.00">comorbidity_index</text>
</g>
<!-- comorbidity_index&#45;&gt;age -->
<g id="edge3" class="edge">
<title>comorbidity_index&#45;&gt;age</title>
<path fill="none" stroke="black" d="M113.17,-31.41C122.9,-31.41 132.75,-31.41 141.64,-31.41"/>
<polygon fill="black" stroke="black" points="141.85,-33.86 148.85,-31.41 141.85,-28.96 141.85,-33.86"/>
</g>
<!-- comorbidity_index&#45;&gt;drug_dose -->
<g id="edge4" class="edge">
<title>comorbidity_index&#45;&gt;drug_dose</title>
<path fill="none" stroke="black" d="M97.41,-43.96C113.38,-48.78 131.99,-54.15 149.02,-58.41 177.21,-65.48 209.3,-72.1 233.98,-76.9"/>
<polygon fill="black" stroke="black" points="233.72,-79.34 241.06,-78.26 234.65,-74.53 233.72,-79.34"/>
</g>
<!-- comorbidity_index&#45;&gt;blood_pressure_reduction -->
<g id="edge5" class="edge">
<title>comorbidity_index&#45;&gt;blood_pressure_reduction</title>
<path fill="none" stroke="black" d="M94.37,-17.91C110.85,-12.57 130.66,-7.07 149.02,-4.41 221.73,6.09 305.99,-5.12 361.53,-15.71"/>
<polygon fill="black" stroke="black" points="361.15,-18.13 368.49,-17.06 362.09,-13.32 361.15,-18.13"/>
</g>
<!-- drug_dose&#45;&gt;age -->
<g id="edge6" class="edge">
<title>drug_dose&#45;&gt;age</title>
<path fill="none" stroke="black" d="M244.86,-74.56C230.26,-67.4 212.95,-57.83 199.46,-49.4"/>
<polygon fill="black" stroke="black" points="200.78,-47.33 193.56,-45.62 198.14,-51.46 200.78,-47.33"/>
</g>
<!-- drug_dose&#45;&gt;blood_pressure_reduction -->
<g id="edge7" class="edge">
<title>drug_dose&#45;&gt;blood_pressure_reduction</title>
<path fill="none" stroke="black" d="M299.31,-70.76C316.66,-62.79 341.36,-52.95 364.08,-44.77"/>
<polygon fill="black" stroke="black" points="364.97,-47.05 370.74,-42.4 363.32,-42.44 364.97,-47.05"/>
</g>
<!-- blood_pressure_reduction&#45;&gt;age -->
<g id="edge8" class="edge">
<title>blood_pressure_reduction&#45;&gt;age</title>
<path fill="none" stroke="black" d="M353.39,-36.12C306.39,-37.64 246.29,-37.67 209.78,-35.92"/>
<polygon fill="black" stroke="black" points="209.48,-33.45 202.36,-35.52 209.21,-38.34 209.48,-33.45"/>
</g>
<!-- blood_pressure_reduction&#45;&gt;drug_dose -->
<g id="edge9" class="edge">
<title>blood_pressure_reduction&#45;&gt;drug_dose</title>
<path fill="none" stroke="black" d="M392.87,-46.09C370.91,-55.76 340.7,-67.33 316.57,-75.41"/>
<polygon fill="black" stroke="black" points="315.5,-73.18 309.62,-77.7 317.03,-77.84 315.5,-73.18"/>
</g>
</g>
</svg>
