<?xml version="1.0" encoding="UTF-8" standalone="no"?>
<!DOCTYPE svg PUBLIC "-//W3C//DTD SVG 1.1//EN"
 "http://www.w3.org/Graphics/SVG/1.1/DTD/svg11.dtd">
<!-- Generated by graphviz version 2.44.0 (0)
 -->
<!-- Pages: 1 -->
<svg width="497pt" height="110pt"
 viewBox="0.00 0.00 497.30 109.70" xmlns="http://www.w3.org/2000/svg" xmlns:xlink="http://www.w3.org/1999/xlink">
<g id="graph0" class="graph" transform="scale(1 1) rotate(0) translate(4 105.7)">
<polygon fill="white" stroke="transparent" points="-4,4 -4,-105.7 493.3,-105.7 493.3,4 -4,4"/>
<!-- age -->
<g id="node1" class="node">
<title>age</title>
<ellipse fill="none" stroke="black" cx="188.97" cy="-30.7" rx="27" ry="18"/>
<text text-anchor="middle" x="188.97" y="-28.2" font-family="Helvetica" font-size="10.00">age</text>
</g>
<!-- drug_dose -->
<g id="node3" class="node">
<title>drug_dose</title>
<ellipse fill="none" stroke="black" cx="288.47" cy="-83.7" rx="36.49" ry="18"/>
<text text-anchor="middle" x="288.47" y="-81.2" font-family="Helvetica" font-size="10.00">drug_dose</text>
</g>
<!-- age&#45;&gt;drug_dose -->
<g id="edge1" class="edge">
<title>age&#45;&gt;drug_dose</title>
<path fill="none" stroke="black" d="M214.07,-37.88C228.98,-44.88 248.05,-55.24 263.01,-64.46"/>
<polygon fill="black" stroke="black" points="261.92,-66.67 269.15,-68.33 264.54,-62.53 261.92,-66.67"/>
</g>
<!-- pain_score_reduction -->
<g id="node4" class="node">
<title>pain_score_reduction</title>
<ellipse fill="none" stroke="black" cx="425.13" cy="-28.7" rx="64.33" ry="18"/>
<text text-anchor="middle" x="425.13" y="-26.2" font-family="Helvetica" font-size="10.00">pain_score_reduction</text>
</g>
<!-- age&#45;&gt;pain_score_reduction -->
<g id="edge2" class="edge">
<title>age&#45;&gt;pain_score_reduction</title>
<path fill="none" stroke="black" d="M215.48,-26.08C249.08,-23.46 309.42,-22.35 356.61,-23.1"/>
<polygon fill="black" stroke="black" points="356.72,-25.55 363.76,-23.22 356.81,-20.65 356.72,-25.55"/>
</g>
<!-- inflammation_marker -->
<g id="node2" class="node">
<title>inflammation_marker</title>
<ellipse fill="none" stroke="black" cx="62.99" cy="-30.7" rx="62.97" ry="18"/>
<text text-anchor="middle" x="62.99" y="-28.2" font-family="Helvetica" font-size="10.00">inflammation_marker</text>
</g>
<!-- inflammation_marker&#45;&gt;age -->
<g id="edge3" class="edge">
<title>inflammation_marker&#45;&gt;age</title>
<path fill="none" stroke="black" d="M125.98,-30.7C135.82,-30.7 145.66,-30.7 154.5,-30.7"/>
<polygon fill="black" stroke="black" points="154.68,-33.15 161.68,-30.7 154.68,-28.25 154.68,-33.15"/>
</g>
<!-- inflammation_marker&#45;&gt;drug_dose -->
<g id="edge4" class="edge">
<title>inflammation_marker&#45;&gt;drug_dose</title>
<path fill="none" stroke="black" d="M107.73,-43.4C124.62,-48.14 144.13,-53.4 161.97,-57.7 190.23,-64.51 222.32,-71.14 246.97,-76"/>
<polygon fill="black" stroke="black" points="246.71,-78.44 254.05,-77.39 247.65,-73.63 246.71,-78.44"/>
</g>
<!-- inflammation_marker&#45;&gt;pain_score_reduction -->
<g id="edge5" class="edge">
<title>inflammation_marker&#45;&gt;pain_score_reduction</title>
<path fill="none" stroke="black" d="M104.48,-16.91C121.94,-11.65 142.74,-6.3 161.97,-3.7 232.87,5.89 315.04,-5.58 368.22,-15.95"/>
<polygon fill="black" stroke="black" points="367.86,-18.38 375.2,-17.34 368.81,-13.57 367.86,-18.38"/>
</g>
<!-- drug_dose&#45;&gt;age -->
<g id="edge6" class="edge">
<title>drug_dose&#45;&gt;age</title>
<path fill="none" stroke="black" d="M257.82,-73.85C243.21,-66.68 225.9,-57.11 212.41,-48.69"/>
<polygon fill="black" stroke="black" points="213.73,-46.62 206.51,-44.91 211.09,-50.74 213.73,-46.62"/>
</g>
<!-- drug_dose&#45;&gt;pain_score_reduction -->
<g id="edge7" class="edge">
<title>drug_dose&#45;&gt;pain_score_reduction</title>
<path fill="none" stroke="black" d="M311.41,-69.6C327.68,-61.56 350.58,-51.72 371.49,-43.6"/>
<polygon fill="black" stroke="black" points="372.54,-45.82 378.2,-41.02 370.78,-41.24 372.54,-45.82"/>
</g>
<!-- pain_score_reduction&#45;&gt;age -->
<g id="edge8" class="edge">
<title>pain_score_reduction&#45;&gt;age</title>
<path fill="none" stroke="black" d="M365.21,-35.15C320.01,-36.9 259.32,-37.05 222.51,-35.27"/>
<polygon fill="black" stroke="black" points="222.6,-32.82 215.48,-34.88 222.34,-37.71 222.6,-32.82"/>
</g>
<!-- pain_score_reduction&#45;&gt;drug_dose -->
<g id="edge9" class="edge">
<title>pain_score_reduction&#45;&gt;drug_dose</title>
<path fill="none" stroke="black" d="M397.7,-44.99C378.07,-54.4 350.95,-65.71 328.78,-73.85"/>
<polygon fill="black" stroke="black" points="327.82,-71.59 322.07,-76.26 329.48,-76.2 327.82,-71.59"/>
</g>
</g>
</svg>
