<?xml version="1.0" encoding="UTF-8" standalone="no"?>
<!DOCTYPE svg PUBLIC "-//W3C//DTD SVG 1.1//EN"
 "http://www.w3.org/Graphics/SVG/1.1/DTD/svg11.dtd">
<!-- Generated by graphviz version 2.44.0 (0)
 -->
<!-- Pages: 1 -->
<svg width="358pt" height="111pt"
 viewBox="0.00 0.00 357.69 111.04" xmlns="http://www.w3.org/2000/svg" xmlns:xlink="http://www.w3.org/1999/xlink">
<g id="graph0" class="graph" transform="scale(1 1) rotate(0) translate(4 107.04)">
<polygon fill="white" stroke="transparent" points="-4,4 -4,-107.04 353.69,-107.04 353.69,4 -4,4"/>
<!-- age -->
<g id="node1" class="node">
<title>age</title>
<ellipse fill="none" stroke="black" cx="126.5" cy="-85.04" rx="27" ry="18"/>
<text text-anchor="middle" x="126.5" y="-82.54" font-family="Helvetica" font-size="10.00">age</text>
</g>
<!-- blood_pressure_reduction -->
<g id="node4" class="node">
<title>blood_pressure_reduction</title>
<ellipse fill="none" stroke="black" cx="274.34" cy="-31.04" rx="75.2" ry="18"/>
<text text-anchor="middle" x="274.34" y="-28.54" font-family="Helvetica" font-size="10.00">blood_pressure_reduction</text>
</g>
<!-- age&#45;&gt;blood_pressure_reduction -->
<g id="edge1" class="edge">
<title>age&#45;&gt;blood_pressure_reduction</title>
<path fill="none" stroke="black" d="M150.61,-76.49C170.81,-69.01 200.78,-57.91 226.05,-48.55"/>
<polygon fill="black" stroke="black" points="226.99,-50.82 232.7,-46.09 225.29,-46.22 226.99,-50.82"/>
</g>
<!-- frailty -->
<g id="node2" class="node">
<title>frailty</title>
<ellipse fill="none" stroke="black" cx="27" cy="-31.04" rx="27" ry="18"/>
<text text-anchor="middle" x="27" y="-28.54" font-family="Helvetica" font-size="10.00">frailty</text>
</g>
<!-- frailty&#45;&gt;age -->
<g id="edge2" class="edge">
<title>frailty&#45;&gt;age</title>
<path fill="none" stroke="black" d="M48.2,-42.23C62.97,-50.41 83.15,-61.59 99.18,-70.47"/>
<polygon fill="black" stroke="black" points="98.01,-72.62 105.32,-73.87 100.39,-68.33 98.01,-72.62"/>
</g>
<!-- drug_dose -->
<g id="node3" class="node">
<title>drug_dose</title>
<ellipse fill="none" stroke="black" cx="126.5" cy="-31.04" rx="36.49" ry="18"/>
<text text-anchor="middle" x="126.5" y="-28.54" font-family="Helvetica" font-size="10.00">drug_dose</text>
</g>
<!-- frailty&#45;&gt;drug_dose -->
<g id="edge3" class="edge">
<title>frailty&#45;&gt;drug_dose</title>
<path fill="none" stroke="black" d="M54.13,-31.04C62.93,-31.04 73,-31.04 82.75,-31.04"/>
<polygon fill="black" stroke="black" points="82.77,-33.49 89.77,-31.04 82.77,-28.59 82.77,-33.49"/>
</g>
<!-- frailty&#45;&gt;blood_pressure_reduction -->
<g id="edge4" class="edge">
<title>frailty&#45;&gt;blood_pressure_reduction</title>
<path fill="none" stroke="black" d="M48.24,-19.7C60.03,-13.75 75.4,-7.08 90,-4.04 134.92,5.31 186.7,-4.14 223.75,-14.34"/>
<polygon fill="black" stroke="black" points="223.08,-16.7 230.49,-16.25 224.42,-11.99 223.08,-16.7"/>
</g>
<!-- drug_dose&#45;&gt;blood_pressure_reduction -->
<g id="edge5" class="edge">
<title>drug_dose&#45;&gt;blood_pressure_reduction</title>
<path fill="none" stroke="black" d="M163.18,-31.04C171.93,-31.04 181.66,-31.04 191.62,-31.04"/>
<polygon fill="black" stroke="black" points="191.89,-33.49 198.89,-31.04 191.89,-28.59 191.89,-33.49"/>
</g>
</g>
</svg>
