<?xml version="1.0" encoding="UTF-8" standalone="no"?>
<!DOCTYPE svg PUBLIC "-//W3C//DTD SVG 1.1//EN"
 "http://www.w3.org/Graphics/SVG/1.1/DTD/svg11.dtd">
<!-- Generated by graphviz version 2.44.0 (0)
 -->
<!-- Pages: 1 -->
<svg width="357pt" height="154pt"
 viewBox="0.00 0.00 356.51 154.00" xmlns="http://www.w3.org/2000/svg" xmlns:xlink="http://www.w3.org/1999/xlink">
<g id="graph0" class="graph" transform="scale(1 1) rotate(0) translate(4 150)">
<polygon fill="white" stroke="transparent" points="-4,4 -4,-150 352.51,-150 352.51,4 -4,4"/>
<!-- age -->
<g id="node1" class="node">
<title>age</title>
<ellipse fill="none" stroke="black" cx="27" cy="-100" rx="27" ry="18"/>
<text text-anchor="middle" x="27" y="-97.5" font-family="Helvetica" font-size="10.00">age</text>
</g>
<!-- drug_dose -->
<g id="node3" class="node">
<title>drug_dose</title>
<ellipse fill="none" stroke="black" cx="137.09" cy="-128" rx="36.49" ry="18"/>
<text text-anchor="middle" x="137.09" y="-125.5" font-family="Helvetica" font-size="10.00">drug_dose</text>
</g>
<!-- age&#45;&gt;drug_dose -->
<g id="edge1" class="edge">
<title>age&#45;&gt;drug_dose</title>
<path fill="none" stroke="black" d="M54.17,-100.9C69.01,-103.73 87.72,-108.45 103.52,-113.31"/>
<polygon fill="black" stroke="black" points="103.13,-115.76 110.54,-115.55 104.61,-111.09 103.13,-115.76"/>
</g>
<!-- cholesterol_reduction -->
<g id="node4" class="node">
<title>cholesterol_reduction</title>
<ellipse fill="none" stroke="black" cx="284.35" cy="-73" rx="64.33" ry="18"/>
<text text-anchor="middle" x="284.35" y="-70.5" font-family="Helvetica" font-size="10.00">cholesterol_reduction</text>
</g>
<!-- age&#45;&gt;cholesterol_reduction -->
<g id="edge2" class="edge">
<title>age&#45;&gt;cholesterol_reduction</title>
<path fill="none" stroke="black" d="M52.48,-93.23C89.1,-86.79 159.54,-78.7 213.02,-74.33"/>
<polygon fill="black" stroke="black" points="213.34,-76.76 220.12,-73.77 212.95,-71.88 213.34,-76.76"/>
</g>
<!-- metabolic_rate -->
<g id="node2" class="node">
<title>metabolic_rate</title>
<ellipse fill="none" stroke="black" cx="137.09" cy="-18" rx="47.19" ry="18"/>
<text text-anchor="middle" x="137.09" y="-15.5" font-family="Helvetica" font-size="10.00">metabolic_rate</text>
</g>
<!-- metabolic_rate&#45;&gt;cholesterol_reduction -->
<g id="edge3" class="edge">
<title>metabolic_rate&#45;&gt;cholesterol_reduction</title>
<path fill="none" stroke="black" d="M171.05,-30.48C191.08,-38.06 216.91,-47.84 238.75,-56.11"/>
<polygon fill="black" stroke="black" points="237.97,-58.44 245.39,-58.63 239.71,-53.86 237.97,-58.44"/>
</g>
<!-- drug_dose&#45;&gt;age -->
<g id="edge4" class="edge">
<title>drug_dose&#45;&gt;age</title>
<path fill="none" stroke="black" d="M100.85,-125.24C86.21,-122.06 69.47,-117.59 55.73,-113.16"/>
<polygon fill="black" stroke="black" points="56.26,-110.76 48.84,-110.86 54.7,-115.4 56.26,-110.76"/>
</g>
<!-- drug_dose&#45;&gt;cholesterol_reduction -->
<g id="edge5" class="edge">
<title>drug_dose&#45;&gt;cholesterol_reduction</title>
<path fill="none" stroke="black" d="M161.11,-114.2C179.24,-105.85 205.27,-95.51 228.65,-87.15"/>
<polygon fill="black" stroke="black" points="229.71,-89.37 235.49,-84.73 228.07,-84.75 229.71,-89.37"/>
</g>
<!-- cholesterol_reduction&#45;&gt;age -->
<g id="edge6" class="edge">
<title>cholesterol_reduction&#45;&gt;age</title>
<path fill="none" stroke="black" d="M233.06,-83.82C182.32,-91.07 105.4,-98.95 61.62,-101.19"/>
<polygon fill="black" stroke="black" points="61.25,-98.75 54.37,-101.52 61.47,-103.65 61.25,-98.75"/>
</g>
<!-- cholesterol_reduction&#45;&gt;drug_dose -->
<g id="edge7" class="edge">
<title>cholesterol_reduction&#45;&gt;drug_dose</title>
<path fill="none" stroke="black" d="M254.93,-89.25C232.93,-99.03 202.19,-110.87 177.76,-119.07"/>
<polygon fill="black" stroke="black" points="176.94,-116.76 171.05,-121.28 178.47,-121.42 176.94,-116.76"/>
</g>
</g>
</svg>
