<?xml version="1.0" encoding="UTF-8" standalone="no"?>
<!DOCTYPE svg PUBLIC "-//W3C//DTD SVG 1.1//EN"
 "http://www.w3.org/Graphics/SVG/1.1/DTD/svg11.dtd">
<!-- Generated by graphviz version 2.44.0 (0)
 -->
<!-- Pages: 1 -->
<svg width="907pt" height="224pt"
 viewBox="0.00 0.00 906.67 224.00" xmlns="http://www.w3.org/2000/svg" xmlns:xlink="http://www.w3.org/1999/xlink">
<g id="graph0" class="graph" transform="scale(1 1) rotate(0) translate(4 220)">
<polygon fill="white" stroke="transparent" points="-4,4 -4,-220 902.67,-220 902.67,4 -4,4"/>
<!-- enrolled_in_exercise_program -->
<g id="node1" class="node">
<title>enrolled_in_exercise_program</title>
<ellipse fill="none" stroke="black" cx="451.69" cy="-117" rx="85.21" ry="18"/>
<text text-anchor="middle" x="451.69" y="-114.5" font-family="Helvetica" font-size="10.00">enrolled_in_exercise_program</text>
</g>
<!-- baseline_endurance_score -->
<g id="node3" class="node">
<title>baseline_endurance_score</title>
<ellipse fill="none" stroke="black" cx="650.75" cy="-79" rx="77.91" ry="18"/>
<text text-anchor="middle" x="650.75" y="-76.5" font-family="Helvetica" font-size="10.00">baseline_endurance_score</text>
</g>
<!-- enrolled_in_exercise_program&#45;&gt;baseline_endurance_score -->
<g id="edge1" class="edge">
<title>enrolled_in_exercise_program&#45;&gt;baseline_endurance_score</title>
<path fill="none" stroke="black" d="M515.31,-104.92C536.97,-100.75 561.31,-96.05 583.27,-91.82"/>
<polygon fill="black" stroke="black" points="583.9,-94.19 590.31,-90.46 582.97,-89.38 583.9,-94.19"/>
</g>
<!-- baseline_fitness_level -->
<g id="node2" class="node">
<title>baseline_fitness_level</title>
<ellipse fill="none" stroke="black" cx="77.7" cy="-144" rx="65.86" ry="18"/>
<text text-anchor="middle" x="77.7" y="-141.5" font-family="Helvetica" font-size="10.00">baseline_fitness_level</text>
</g>
<!-- baseline_fitness_level&#45;&gt;enrolled_in_exercise_program -->
<g id="edge2" class="edge">
<title>baseline_fitness_level&#45;&gt;enrolled_in_exercise_program</title>
<path fill="none" stroke="black" d="M141.81,-139.42C202.7,-135 295.42,-128.27 363.38,-123.34"/>
<polygon fill="black" stroke="black" points="363.91,-125.76 370.71,-122.81 363.55,-120.87 363.91,-125.76"/>
</g>
<!-- baseline_fitness_level&#45;&gt;baseline_endurance_score -->
<g id="edge3" class="edge">
<title>baseline_fitness_level&#45;&gt;baseline_endurance_score</title>
<path fill="none" stroke="black" d="M134.58,-153.14C222.13,-165.43 396.19,-181.71 537.04,-144 568.56,-135.56 600.38,-115.96 622.14,-100.47"/>
<polygon fill="black" stroke="black" points="623.77,-102.32 628,-96.23 620.89,-98.35 623.77,-102.32"/>
</g>
<!-- weekly_exercise_hours -->
<g id="node5" class="node">
<title>weekly_exercise_hours</title>
<ellipse fill="none" stroke="black" cx="260.87" cy="-41" rx="69.42" ry="18"/>
<text text-anchor="middle" x="260.87" y="-38.5" font-family="Helvetica" font-size="10.00">weekly_exercise_hours</text>
</g>
<!-- baseline_fitness_level&#45;&gt;weekly_exercise_hours -->
<g id="edge4" class="edge">
<title>baseline_fitness_level&#45;&gt;weekly_exercise_hours</title>
<path fill="none" stroke="black" d="M107.41,-127.68C139.25,-109.58 190.63,-80.36 224.82,-60.93"/>
<polygon fill="black" stroke="black" points="226.12,-63 231,-57.41 223.7,-58.74 226.12,-63"/>
</g>
<!-- final_endurance_score -->
<g id="node6" class="node">
<title>final_endurance_score</title>
<ellipse fill="none" stroke="black" cx="831.56" cy="-56" rx="67.22" ry="18"/>
<text text-anchor="middle" x="831.56" y="-53.5" font-family="Helvetica" font-size="10.00">final_endurance_score</text>
</g>
<!-- baseline_fitness_level&#45;&gt;final_endurance_score -->
<g id="edge5" class="edge">
<title>baseline_fitness_level&#45;&gt;final_endurance_score</title>
<path fill="none" stroke="black" d="M117.74,-158.41C139.16,-165.56 166.38,-173.41 191.41,-177 343.51,-198.81 385.82,-196.26 537.04,-169 633.87,-151.55 739.79,-102.69 794.05,-75.27"/>
<polygon fill="black" stroke="black" points="795.27,-77.4 800.4,-72.04 793.05,-73.03 795.27,-77.4"/>
</g>
<!-- baseline_endurance_score&#45;&gt;final_endurance_score -->
<g id="edge6" class="edge">
<title>baseline_endurance_score&#45;&gt;final_endurance_score</title>
<path fill="none" stroke="black" d="M719.09,-70.34C733.64,-68.47 749.02,-66.49 763.56,-64.62"/>
<polygon fill="black" stroke="black" points="763.99,-67.03 770.62,-63.71 763.36,-62.17 763.99,-67.03"/>
</g>
<!-- motivation_index -->
<g id="node4" class="node">
<title>motivation_index</title>
<ellipse fill="none" stroke="black" cx="77.7" cy="-18" rx="52.28" ry="18"/>
<text text-anchor="middle" x="77.7" y="-15.5" font-family="Helvetica" font-size="10.00">motivation_index</text>
</g>
<!-- motivation_index&#45;&gt;enrolled_in_exercise_program -->
<g id="edge7" class="edge">
<title>motivation_index&#45;&gt;enrolled_in_exercise_program</title>
<path fill="none" stroke="black" d="M107.65,-33.07C130,-44.15 161.98,-58.83 191.41,-68 250.3,-86.36 318.98,-98.96 370.86,-106.78"/>
<polygon fill="black" stroke="black" points="370.78,-109.25 378.06,-107.86 371.5,-104.4 370.78,-109.25"/>
</g>
<!-- motivation_index&#45;&gt;baseline_endurance_score -->
<g id="edge8" class="edge">
<title>motivation_index&#45;&gt;baseline_endurance_score</title>
<path fill="none" stroke="black" d="M129.75,-15.8C149.06,-15.08 171.24,-14.36 191.41,-14 253.14,-12.9 268.79,-8.97 330.33,-14 423.13,-21.58 446.1,-28.07 537.04,-48 556.21,-52.2 576.97,-57.65 595.39,-62.8"/>
<polygon fill="black" stroke="black" points="595.19,-65.29 602.59,-64.84 596.52,-60.58 595.19,-65.29"/>
</g>
<!-- motivation_index&#45;&gt;weekly_exercise_hours -->
<g id="edge9" class="edge">
<title>motivation_index&#45;&gt;weekly_exercise_hours</title>
<path fill="none" stroke="black" d="M127.25,-24.16C146.84,-26.65 169.79,-29.56 191.05,-32.26"/>
<polygon fill="black" stroke="black" points="190.93,-34.72 198.19,-33.17 191.55,-29.86 190.93,-34.72"/>
</g>
<!-- motivation_index&#45;&gt;final_endurance_score -->
<g id="edge10" class="edge">
<title>motivation_index&#45;&gt;final_endurance_score</title>
<path fill="none" stroke="black" d="M127.45,-12.2C147.26,-10.11 170.4,-8.02 191.41,-7 344.86,0.47 383.99,0.39 537.04,-13 617.4,-20.03 709.31,-34.55 768.55,-44.77"/>
<polygon fill="black" stroke="black" points="768.29,-47.21 775.6,-45.99 769.13,-42.38 768.29,-47.21"/>
</g>
<!-- weekly_exercise_hours&#45;&gt;enrolled_in_exercise_program -->
<g id="edge11" class="edge">
<title>weekly_exercise_hours&#45;&gt;enrolled_in_exercise_program</title>
<path fill="none" stroke="black" d="M297.51,-56.39C317.64,-64.99 343.31,-75.79 366.33,-85 377.76,-89.57 390.12,-94.35 401.76,-98.78"/>
<polygon fill="black" stroke="black" points="401.11,-101.15 408.52,-101.35 402.85,-96.57 401.11,-101.15"/>
</g>
<!-- weekly_exercise_hours&#45;&gt;baseline_endurance_score -->
<g id="edge12" class="edge">
<title>weekly_exercise_hours&#45;&gt;baseline_endurance_score</title>
<path fill="none" stroke="black" d="M326.35,-47.32C393.73,-53.92 499.46,-64.28 571.55,-71.34"/>
<polygon fill="black" stroke="black" points="571.65,-73.81 578.86,-72.06 572.13,-68.93 571.65,-73.81"/>
</g>
<!-- weekly_exercise_hours&#45;&gt;final_endurance_score -->
<g id="edge13" class="edge">
<title>weekly_exercise_hours&#45;&gt;final_endurance_score</title>
<path fill="none" stroke="black" d="M330.27,-42.28C421.21,-44.06 586.93,-47.56 728.45,-52 738.01,-52.3 748.07,-52.65 758,-53.02"/>
<polygon fill="black" stroke="black" points="758.11,-55.47 765.2,-53.29 758.3,-50.58 758.11,-55.47"/>
</g>
<!-- unrelated_random_variable -->
<g id="node7" class="node">
<title>unrelated_random_variable</title>
<ellipse fill="none" stroke="black" cx="77.7" cy="-198" rx="77.91" ry="18"/>
<text text-anchor="middle" x="77.7" y="-195.5" font-family="Helvetica" font-size="10.00">unrelated_random_variable</text>
</g>
</g>
</svg>
