<?xml version="1.0" encoding="UTF-8" standalone="no"?>
<!DOCTYPE svg PUBLIC "-//W3C//DTD SVG 1.1//EN"
 "http://www.w3.org/Graphics/SVG/1.1/DTD/svg11.dtd">
<!-- Generated by graphviz version 2.44.0 (0)
 -->
<!-- Pages: 1 -->
<svg width="811pt" height="224pt"
 viewBox="0.00 0.00 811.30 224.00" xmlns="http://www.w3.org/2000/svg" xmlns:xlink="http://www.w3.org/1999/xlink">
<g id="graph0" class="graph" transform="scale(1 1) rotate(0) translate(4 220)">
<polygon fill="white" stroke="transparent" points="-4,4 -4,-220 807.3,-220 807.3,4 -4,4"/>
<!-- took_interactive_course -->
<g id="node1" class="node">
<title>took_interactive_course</title>
<ellipse fill="none" stroke="black" cx="434.62" cy="-117" rx="70.78" ry="18"/>
<text text-anchor="middle" x="434.62" y="-114.5" font-family="Helvetica" font-size="10.00">took_interactive_course</text>
</g>
<!-- baseline_proficiency -->
<g id="node3" class="node">
<title>baseline_proficiency</title>
<ellipse fill="none" stroke="black" cx="603.07" cy="-79" rx="61.62" ry="18"/>
<text text-anchor="middle" x="603.07" y="-76.5" font-family="Helvetica" font-size="10.00">baseline_proficiency</text>
</g>
<!-- took_interactive_course&#45;&gt;baseline_proficiency -->
<g id="edge1" class="edge">
<title>took_interactive_course&#45;&gt;baseline_proficiency</title>
<path fill="none" stroke="black" d="M487.83,-105.08C506.68,-100.78 528,-95.91 547.08,-91.55"/>
<polygon fill="black" stroke="black" points="547.72,-93.92 554,-89.97 546.63,-89.14 547.72,-93.92"/>
</g>
<!-- prior_language_experience -->
<g id="node2" class="node">
<title>prior_language_experience</title>
<ellipse fill="none" stroke="black" cx="77.7" cy="-144" rx="77.91" ry="18"/>
<text text-anchor="middle" x="77.7" y="-141.5" font-family="Helvetica" font-size="10.00">prior_language_experience</text>
</g>
<!-- prior_language_experience&#45;&gt;took_interactive_course -->
<g id="edge2" class="edge">
<title>prior_language_experience&#45;&gt;took_interactive_course</title>
<path fill="none" stroke="black" d="M151.81,-138.44C212.45,-133.82 298.31,-127.29 359.29,-122.65"/>
<polygon fill="black" stroke="black" points="359.81,-125.07 366.6,-122.1 359.44,-120.19 359.81,-125.07"/>
</g>
<!-- prior_language_experience&#45;&gt;baseline_proficiency -->
<g id="edge3" class="edge">
<title>prior_language_experience&#45;&gt;baseline_proficiency</title>
<path fill="none" stroke="black" d="M139.67,-154.91C223.96,-167.57 379.87,-182.19 505.26,-144 532.99,-135.55 559.98,-116.22 578.39,-100.82"/>
<polygon fill="black" stroke="black" points="580.09,-102.6 583.82,-96.19 576.9,-98.87 580.09,-102.6"/>
</g>
<!-- weekly_practice_hours -->
<g id="node5" class="node">
<title>weekly_practice_hours</title>
<ellipse fill="none" stroke="black" cx="259.69" cy="-41" rx="68.07" ry="18"/>
<text text-anchor="middle" x="259.69" y="-38.5" font-family="Helvetica" font-size="10.00">weekly_practice_hours</text>
</g>
<!-- prior_language_experience&#45;&gt;weekly_practice_hours -->
<g id="edge4" class="edge">
<title>prior_language_experience&#45;&gt;weekly_practice_hours</title>
<path fill="none" stroke="black" d="M108.02,-127.22C139.81,-109.03 190.51,-80.02 224.19,-60.74"/>
<polygon fill="black" stroke="black" points="225.42,-62.86 230.28,-57.26 222.98,-58.61 225.42,-62.86"/>
</g>
<!-- final_proficiency -->
<g id="node6" class="node">
<title>final_proficiency</title>
<ellipse fill="none" stroke="black" cx="752.09" cy="-56" rx="51.43" ry="18"/>
<text text-anchor="middle" x="752.09" y="-53.5" font-family="Helvetica" font-size="10.00">final_proficiency</text>
</g>
<!-- prior_language_experience&#45;&gt;final_proficiency -->
<g id="edge5" class="edge">
<title>prior_language_experience&#45;&gt;final_proficiency</title>
<path fill="none" stroke="black" d="M121.85,-158.87C147.59,-167.45 177.84,-176.94 191.41,-179 329.39,-199.93 368.94,-198.93 505.26,-169 587.63,-150.91 675.39,-102.61 720.45,-75.37"/>
<polygon fill="black" stroke="black" points="721.82,-77.41 726.53,-71.67 719.27,-73.22 721.82,-77.41"/>
</g>
<!-- baseline_proficiency&#45;&gt;final_proficiency -->
<g id="edge6" class="edge">
<title>baseline_proficiency&#45;&gt;final_proficiency</title>
<path fill="none" stroke="black" d="M657.98,-70.57C670.98,-68.53 684.86,-66.36 697.83,-64.33"/>
<polygon fill="black" stroke="black" points="698.39,-66.72 704.93,-63.22 697.63,-61.88 698.39,-66.72"/>
</g>
<!-- motivation_level -->
<g id="node4" class="node">
<title>motivation_level</title>
<ellipse fill="none" stroke="black" cx="77.7" cy="-18" rx="50.75" ry="18"/>
<text text-anchor="middle" x="77.7" y="-15.5" font-family="Helvetica" font-size="10.00">motivation_level</text>
</g>
<!-- motivation_level&#45;&gt;took_interactive_course -->
<g id="edge7" class="edge">
<title>motivation_level&#45;&gt;took_interactive_course</title>
<path fill="none" stroke="black" d="M107.22,-32.73C129.61,-43.78 161.83,-58.57 191.41,-68 248.87,-86.32 316.27,-99.29 365.36,-107.27"/>
<polygon fill="black" stroke="black" points="365.16,-109.72 372.46,-108.41 365.94,-104.88 365.16,-109.72"/>
</g>
<!-- motivation_level&#45;&gt;baseline_proficiency -->
<g id="edge8" class="edge">
<title>motivation_level&#45;&gt;baseline_proficiency</title>
<path fill="none" stroke="black" d="M128.07,-15.87C147.77,-15.12 170.66,-14.37 191.41,-14 252.1,-12.92 267.57,-8.09 327.98,-14 407.91,-21.81 427.4,-29.31 505.26,-49 521.53,-53.12 539.12,-58.33 554.78,-63.25"/>
<polygon fill="black" stroke="black" points="554.41,-65.71 561.83,-65.49 555.9,-61.04 554.41,-65.71"/>
</g>
<!-- motivation_level&#45;&gt;weekly_practice_hours -->
<g id="edge9" class="edge">
<title>motivation_level&#45;&gt;weekly_practice_hours</title>
<path fill="none" stroke="black" d="M125.52,-23.98C145.45,-26.53 169.07,-29.55 190.85,-32.33"/>
<polygon fill="black" stroke="black" points="190.6,-34.77 197.85,-33.23 191.22,-29.91 190.6,-34.77"/>
</g>
<!-- motivation_level&#45;&gt;final_proficiency -->
<g id="edge10" class="edge">
<title>motivation_level&#45;&gt;final_proficiency</title>
<path fill="none" stroke="black" d="M126.06,-12.34C146.18,-10.21 169.91,-8.05 191.41,-7 330.77,-0.22 366.49,0.53 505.26,-14 573.39,-21.13 651.21,-35.49 700.71,-45.42"/>
<polygon fill="black" stroke="black" points="700.46,-47.87 707.81,-46.85 701.43,-43.07 700.46,-47.87"/>
</g>
<!-- weekly_practice_hours&#45;&gt;took_interactive_course -->
<g id="edge11" class="edge">
<title>weekly_practice_hours&#45;&gt;took_interactive_course</title>
<path fill="none" stroke="black" d="M295.69,-56.38C323.49,-68.6 362.45,-85.72 391.87,-98.65"/>
<polygon fill="black" stroke="black" points="390.98,-100.94 398.38,-101.51 392.96,-96.45 390.98,-100.94"/>
</g>
<!-- weekly_practice_hours&#45;&gt;baseline_proficiency -->
<g id="edge12" class="edge">
<title>weekly_practice_hours&#45;&gt;baseline_proficiency</title>
<path fill="none" stroke="black" d="M322.91,-47.93C383.92,-54.72 476.51,-65.02 538.12,-71.88"/>
<polygon fill="black" stroke="black" points="537.87,-74.32 545.1,-72.66 538.41,-69.45 537.87,-74.32"/>
</g>
<!-- weekly_practice_hours&#45;&gt;final_proficiency -->
<g id="edge13" class="edge">
<title>weekly_practice_hours&#45;&gt;final_proficiency</title>
<path fill="none" stroke="black" d="M327.93,-42.44C408.15,-44.24 546.32,-47.64 664.88,-52 674.27,-52.35 684.25,-52.76 693.95,-53.19"/>
<polygon fill="black" stroke="black" points="693.84,-55.64 700.95,-53.51 694.07,-50.75 693.84,-55.64"/>
</g>
<!-- unrelated_random_variable -->
<g id="node7" class="node">
<title>unrelated_random_variable</title>
<ellipse fill="none" stroke="black" cx="77.7" cy="-198" rx="77.91" ry="18"/>
<text text-anchor="middle" x="77.7" y="-195.5" font-family="Helvetica" font-size="10.00">unrelated_random_variable</text>
</g>
</g>
</svg>
