<?xml version="1.0" encoding="UTF-8" standalone="no"?>
<!DOCTYPE svg PUBLIC "-//W3C//DTD SVG 1.1//EN"
 "http://www.w3.org/Graphics/SVG/1.1/DTD/svg11.dtd">
<!-- Generated by graphviz version 2.44.0 (0)
 -->
<!-- Pages: 1 -->
<svg width="1019pt" height="167pt"
 viewBox="0.00 0.00 1019.19 167.00" xmlns="http://www.w3.org/2000/svg" xmlns:xlink="http://www.w3.org/1999/xlink">
<g id="graph0" class="graph" transform="scale(1 1) rotate(0) translate(4 163)">
<polygon fill="white" stroke="transparent" points="-4,4 -4,-163 1015.19,-163 1015.19,4 -4,4"/>
<!-- received_nutrition_program -->
<g id="node1" class="node">
<title>received_nutrition_program</title>
<ellipse fill="none" stroke="black" cx="411.66" cy="-110" rx="78.08" ry="18"/>
<text text-anchor="middle" x="411.66" y="-107.5" font-family="Helvetica" font-size="10.00">received_nutrition_program</text>
</g>
<!-- weekly_diet_adherence_hours -->
<g id="node5" class="node">
<title>weekly_diet_adherence_hours</title>
<ellipse fill="none" stroke="black" cx="613.07" cy="-110" rx="87.24" ry="18"/>
<text text-anchor="middle" x="613.07" y="-107.5" font-family="Helvetica" font-size="10.00">weekly_diet_adherence_hours</text>
</g>
<!-- received_nutrition_program&#45;&gt;weekly_diet_adherence_hours -->
<g id="edge1" class="edge">
<title>received_nutrition_program&#45;&gt;weekly_diet_adherence_hours</title>
<path fill="none" stroke="black" d="M484.65,-103.49C497.76,-103.26 511.57,-103.19 525.06,-103.3"/>
<polygon fill="black" stroke="black" points="525.05,-105.75 532.08,-103.37 525.1,-100.85 525.05,-105.75"/>
</g>
<!-- baseline_bmi -->
<g id="node2" class="node">
<title>baseline_bmi</title>
<ellipse fill="none" stroke="black" cx="77.7" cy="-87" rx="43.62" ry="18"/>
<text text-anchor="middle" x="77.7" y="-84.5" font-family="Helvetica" font-size="10.00">baseline_bmi</text>
</g>
<!-- baseline_bmi&#45;&gt;received_nutrition_program -->
<g id="edge2" class="edge">
<title>baseline_bmi&#45;&gt;received_nutrition_program</title>
<path fill="none" stroke="black" d="M120.75,-89.91C173.01,-93.53 263.37,-99.79 329.35,-104.37"/>
<polygon fill="black" stroke="black" points="329.31,-106.82 336.46,-104.86 329.65,-101.93 329.31,-106.82"/>
</g>
<!-- motivation_score -->
<g id="node4" class="node">
<title>motivation_score</title>
<ellipse fill="none" stroke="black" cx="244.39" cy="-18" rx="52.96" ry="18"/>
<text text-anchor="middle" x="244.39" y="-15.5" font-family="Helvetica" font-size="10.00">motivation_score</text>
</g>
<!-- baseline_bmi&#45;&gt;motivation_score -->
<g id="edge3" class="edge">
<title>baseline_bmi&#45;&gt;motivation_score</title>
<path fill="none" stroke="black" d="M108.91,-74.34C135.47,-63.21 174.33,-46.93 203.46,-34.73"/>
<polygon fill="black" stroke="black" points="204.75,-36.84 210.26,-31.88 202.86,-32.32 204.75,-36.84"/>
</g>
<!-- baseline_bmi&#45;&gt;weekly_diet_adherence_hours -->
<g id="edge4" class="edge">
<title>baseline_bmi&#45;&gt;weekly_diet_adherence_hours</title>
<path fill="none" stroke="black" d="M115.93,-95.69C137.85,-100.7 166.15,-106.98 191.41,-112 322,-137.97 357.59,-151.46 489.95,-137 510.61,-134.74 532.89,-130.4 552.7,-125.85"/>
<polygon fill="black" stroke="black" points="553.34,-128.21 559.59,-124.23 552.22,-123.44 553.34,-128.21"/>
</g>
<!-- final_weight_loss -->
<g id="node6" class="node">
<title>final_weight_loss</title>
<ellipse fill="none" stroke="black" cx="789.76" cy="-55" rx="53.64" ry="18"/>
<text text-anchor="middle" x="789.76" y="-52.5" font-family="Helvetica" font-size="10.00">final_weight_loss</text>
</g>
<!-- baseline_bmi&#45;&gt;final_weight_loss -->
<g id="edge5" class="edge">
<title>baseline_bmi&#45;&gt;final_weight_loss</title>
<path fill="none" stroke="black" d="M121.26,-85.08C242.36,-79.62 589.15,-64 729.12,-57.69"/>
<polygon fill="black" stroke="black" points="729.54,-60.12 736.43,-57.36 729.32,-55.23 729.54,-60.12"/>
</g>
<!-- baseline_energy_level -->
<g id="node3" class="node">
<title>baseline_energy_level</title>
<ellipse fill="none" stroke="black" cx="945.26" cy="-55" rx="65.86" ry="18"/>
<text text-anchor="middle" x="945.26" y="-52.5" font-family="Helvetica" font-size="10.00">baseline_energy_level</text>
</g>
<!-- baseline_energy_level&#45;&gt;weekly_diet_adherence_hours -->
<g id="edge6" class="edge">
<title>baseline_energy_level&#45;&gt;weekly_diet_adherence_hours</title>
<path fill="none" stroke="black" d="M915.8,-71.32C895.71,-78.65 868.08,-86.2 843.33,-91 798.96,-99.6 749.21,-106.06 707.42,-109.82"/>
<polygon fill="black" stroke="black" points="707.01,-107.4 700.25,-110.45 707.44,-112.28 707.01,-107.4"/>
</g>
<!-- baseline_energy_level&#45;&gt;final_weight_loss -->
<g id="edge7" class="edge">
<title>baseline_energy_level&#45;&gt;final_weight_loss</title>
<path fill="none" stroke="black" d="M883.93,-61.61C871.92,-61.82 859.35,-61.79 847.47,-61.54"/>
<polygon fill="black" stroke="black" points="847.24,-59.08 840.18,-61.35 847.11,-63.98 847.24,-59.08"/>
</g>
<!-- motivation_score&#45;&gt;received_nutrition_program -->
<g id="edge8" class="edge">
<title>motivation_score&#45;&gt;received_nutrition_program</title>
<path fill="none" stroke="black" d="M273.05,-33.4C300.85,-48.87 343.83,-72.8 374.35,-89.79"/>
<polygon fill="black" stroke="black" points="373.36,-92.04 380.67,-93.3 375.74,-87.76 373.36,-92.04"/>
</g>
<!-- motivation_score&#45;&gt;baseline_energy_level -->
<g id="edge9" class="edge">
<title>motivation_score&#45;&gt;baseline_energy_level</title>
<path fill="none" stroke="black" d="M296.52,-14.57C400.26,-8.57 642.66,0.69 843.33,-28 860.46,-30.45 878.83,-34.82 895.15,-39.34"/>
<polygon fill="black" stroke="black" points="894.6,-41.73 902,-41.28 895.94,-37.02 894.6,-41.73"/>
</g>
<!-- motivation_score&#45;&gt;final_weight_loss -->
<g id="edge10" class="edge">
<title>motivation_score&#45;&gt;final_weight_loss</title>
<path fill="none" stroke="black" d="M296.51,-21.48C397.61,-28.37 622.6,-43.69 729.79,-50.98"/>
<polygon fill="black" stroke="black" points="729.84,-53.44 736.99,-51.47 730.17,-48.55 729.84,-53.44"/>
</g>
<!-- weekly_diet_adherence_hours&#45;&gt;received_nutrition_program -->
<g id="edge11" class="edge">
<title>weekly_diet_adherence_hours&#45;&gt;received_nutrition_program</title>
<path fill="none" stroke="black" d="M532.08,-116.63C518.85,-116.79 505.14,-116.79 491.93,-116.62"/>
<polygon fill="black" stroke="black" points="491.69,-114.17 484.65,-116.51 491.61,-119.07 491.69,-114.17"/>
</g>
<!-- weekly_diet_adherence_hours&#45;&gt;baseline_energy_level -->
<g id="edge12" class="edge">
<title>weekly_diet_adherence_hours&#45;&gt;baseline_energy_level</title>
<path fill="none" stroke="black" d="M675.74,-97.4C722.1,-91.37 787.04,-83.91 843.33,-73 855.09,-70.72 867.5,-67.82 879.44,-64.93"/>
<polygon fill="black" stroke="black" points="880.19,-67.27 886.41,-63.23 879.03,-62.5 880.19,-67.27"/>
</g>
<!-- weekly_diet_adherence_hours&#45;&gt;final_weight_loss -->
<g id="edge13" class="edge">
<title>weekly_diet_adherence_hours&#45;&gt;final_weight_loss</title>
<path fill="none" stroke="black" d="M649,-93.48C673.7,-84.38 707.25,-73.56 735.3,-65.56"/>
<polygon fill="black" stroke="black" points="736.23,-67.84 742.3,-63.58 734.9,-63.12 736.23,-67.84"/>
</g>
<!-- final_weight_loss&#45;&gt;baseline_energy_level -->
<g id="edge14" class="edge">
<title>final_weight_loss&#45;&gt;baseline_energy_level</title>
<path fill="none" stroke="black" d="M840.18,-48.65C851.82,-48.29 864.44,-48.18 876.74,-48.29"/>
<polygon fill="black" stroke="black" points="876.9,-50.75 883.93,-48.39 876.96,-45.85 876.9,-50.75"/>
</g>
<!-- final_weight_loss&#45;&gt;weekly_diet_adherence_hours -->
<g id="edge15" class="edge">
<title>final_weight_loss&#45;&gt;weekly_diet_adherence_hours</title>
<path fill="none" stroke="black" d="M758.35,-69.84C737.34,-77.76 708.52,-87.28 682.17,-95.16"/>
<polygon fill="black" stroke="black" points="681.19,-92.9 675.17,-97.24 682.58,-97.6 681.19,-92.9"/>
</g>
<!-- unrelated_random_variable -->
<g id="node7" class="node">
<title>unrelated_random_variable</title>
<ellipse fill="none" stroke="black" cx="77.7" cy="-141" rx="77.91" ry="18"/>
<text text-anchor="middle" x="77.7" y="-138.5" font-family="Helvetica" font-size="10.00">unrelated_random_variable</text>
</g>
</g>
</svg>
