<?xml version="1.0" encoding="UTF-8" standalone="no"?>
<!DOCTYPE svg PUBLIC "-//W3C//DTD SVG 1.1//EN"
 "http://www.w3.org/Graphics/SVG/1.1/DTD/svg11.dtd">
<!-- Generated by graphviz version 2.44.0 (0)
 -->
<!-- Pages: 1 -->
<svg width="536pt" height="67pt"
 viewBox="0.00 0.00 535.63 67.00" xmlns="http://www.w3.org/2000/svg" xmlns:xlink="http://www.w3.org/1999/xlink">
<g id="graph0" class="graph" transform="scale(1 1) rotate(0) translate(4 63)">
<polygon fill="white" stroke="transparent" points="-4,4 -4,-63 531.63,-63 531.63,4 -4,4"/>
<!-- depression_severity_index -->
<g id="node1" class="node">
<title>depression_severity_index</title>
<ellipse fill="none" stroke="black" cx="77.11" cy="-41" rx="77.23" ry="18"/>
<text text-anchor="middle" x="77.11" y="-38.5" font-family="Helvetica" font-size="10.00">depression_severity_index</text>
</g>
<!-- therapy_hours_per_week -->
<g id="node2" class="node">
<title>therapy_hours_per_week</title>
<ellipse fill="none" stroke="black" cx="263.81" cy="-41" rx="73.67" ry="18"/>
<text text-anchor="middle" x="263.81" y="-38.5" font-family="Helvetica" font-size="10.00">therapy_hours_per_week</text>
</g>
<!-- depression_severity_index&#45;&gt;therapy_hours_per_week -->
<g id="edge1" class="edge">
<title>depression_severity_index&#45;&gt;therapy_hours_per_week</title>
<path fill="none" stroke="black" d="M149,-34.41C161.78,-34.22 175.16,-34.2 188.05,-34.36"/>
<polygon fill="black" stroke="black" points="188.12,-36.81 195.16,-34.47 188.2,-31.91 188.12,-36.81"/>
</g>
<!-- symptom_score_decrease -->
<g id="node3" class="node">
<title>symptom_score_decrease</title>
<ellipse fill="none" stroke="black" cx="450.51" cy="-18" rx="77.23" ry="18"/>
<text text-anchor="middle" x="450.51" y="-15.5" font-family="Helvetica" font-size="10.00">symptom_score_decrease</text>
</g>
<!-- depression_severity_index&#45;&gt;symptom_score_decrease -->
<g id="edge2" class="edge">
<title>depression_severity_index&#45;&gt;symptom_score_decrease</title>
<path fill="none" stroke="black" d="M125.67,-26.92C145.45,-21.75 168.76,-16.55 190.23,-14 250.54,-6.84 319.29,-8.34 370.83,-11.36"/>
<polygon fill="black" stroke="black" points="370.85,-13.81 377.99,-11.79 371.15,-8.92 370.85,-13.81"/>
</g>
<!-- therapy_hours_per_week&#45;&gt;depression_severity_index -->
<g id="edge3" class="edge">
<title>therapy_hours_per_week&#45;&gt;depression_severity_index</title>
<path fill="none" stroke="black" d="M195.16,-47.53C182.48,-47.76 169.12,-47.81 156.15,-47.68"/>
<polygon fill="black" stroke="black" points="156.03,-45.23 149,-47.59 155.96,-50.13 156.03,-45.23"/>
</g>
<!-- therapy_hours_per_week&#45;&gt;symptom_score_decrease -->
<g id="edge4" class="edge">
<title>therapy_hours_per_week&#45;&gt;symptom_score_decrease</title>
<path fill="none" stroke="black" d="M329.67,-32.92C344.23,-31.11 359.79,-29.17 374.72,-27.31"/>
<polygon fill="black" stroke="black" points="375.35,-29.7 381.99,-26.41 374.74,-24.84 375.35,-29.7"/>
</g>
</g>
</svg>
