<?xml version="1.0" encoding="UTF-8" standalone="no"?>
<!DOCTYPE svg PUBLIC "-//W3C//DTD SVG 1.1//EN"
 "http://www.w3.org/Graphics/SVG/1.1/DTD/svg11.dtd">
<!-- Generated by graphviz version 2.44.0 (0)
 -->
<!-- Pages: 1 -->
<svg width="505pt" height="67pt"
 viewBox="0.00 0.00 505.01 67.00" xmlns="http://www.w3.org/2000/svg" xmlns:xlink="http://www.w3.org/1999/xlink">
<g id="graph0" class="graph" transform="scale(1 1) rotate(0) translate(4 63)">
<polygon fill="white" stroke="transparent" points="-4,4 -4,-63 501.01,-63 501.01,4 -4,4"/>
<!-- infection_severity_score -->
<g id="node1" class="node">
<title>infection_severity_score</title>
<ellipse fill="none" stroke="black" cx="71.82" cy="-18" rx="71.63" ry="18"/>
<text text-anchor="middle" x="71.82" y="-15.5" font-family="Helvetica" font-size="10.00">infection_severity_score</text>
</g>
<!-- antibiotic_dosage_mg -->
<g id="node2" class="node">
<title>antibiotic_dosage_mg</title>
<ellipse fill="none" stroke="black" cx="244.98" cy="-41" rx="65.18" ry="18"/>
<text text-anchor="middle" x="244.98" y="-38.5" font-family="Helvetica" font-size="10.00">antibiotic_dosage_mg</text>
</g>
<!-- infection_severity_score&#45;&gt;antibiotic_dosage_mg -->
<g id="edge1" class="edge">
<title>infection_severity_score&#45;&gt;antibiotic_dosage_mg</title>
<path fill="none" stroke="black" d="M135.58,-26.43C149.63,-28.32 164.57,-30.33 178.73,-32.23"/>
<polygon fill="black" stroke="black" points="178.79,-34.71 186.05,-33.22 179.44,-29.86 178.79,-34.71"/>
</g>
<!-- bacterial_count_decrease -->
<g id="node3" class="node">
<title>bacterial_count_decrease</title>
<ellipse fill="none" stroke="black" cx="421.67" cy="-18" rx="75.2" ry="18"/>
<text text-anchor="middle" x="421.67" y="-15.5" font-family="Helvetica" font-size="10.00">bacterial_count_decrease</text>
</g>
<!-- infection_severity_score&#45;&gt;bacterial_count_decrease -->
<g id="edge2" class="edge">
<title>infection_severity_score&#45;&gt;bacterial_count_decrease</title>
<path fill="none" stroke="black" d="M142.9,-15C155.15,-14.58 167.76,-14.22 179.63,-14 237.7,-12.91 252.25,-12.95 310.32,-14 319.96,-14.17 330.07,-14.44 340.09,-14.74"/>
<polygon fill="black" stroke="black" points="340.3,-17.2 347.37,-14.97 340.45,-12.3 340.3,-17.2"/>
</g>
<!-- antibiotic_dosage_mg&#45;&gt;bacterial_count_decrease -->
<g id="edge3" class="edge">
<title>antibiotic_dosage_mg&#45;&gt;bacterial_count_decrease</title>
<path fill="none" stroke="black" d="M304.14,-33.34C318.22,-31.49 333.43,-29.49 348.08,-27.56"/>
<polygon fill="black" stroke="black" points="348.6,-29.96 355.22,-26.62 347.96,-25.1 348.6,-29.96"/>
</g>
</g>
</svg>
