<?xml version="1.0" encoding="UTF-8" standalone="no"?>
<!DOCTYPE svg PUBLIC "-//W3C//DTD SVG 1.1//EN"
 "http://www.w3.org/Graphics/SVG/1.1/DTD/svg11.dtd">
<!-- Generated by graphviz version 2.44.0 (0)
 -->
<!-- Pages: 1 -->
<svg width="261pt" height="67pt"
 viewBox="0.00 0.00 261.31 67.00" xmlns="http://www.w3.org/2000/svg" xmlns:xlink="http://www.w3.org/1999/xlink">
<g id="graph0" class="graph" transform="scale(1 1) rotate(0) translate(4 63)">
<polygon fill="white" stroke="transparent" points="-4,4 -4,-63 257.31,-63 257.31,4 -4,4"/>
<!-- severity -->
<g id="node1" class="node">
<title>severity</title>
<ellipse fill="none" stroke="black" cx="29.43" cy="-18" rx="29.37" ry="18"/>
<text text-anchor="middle" x="29.43" y="-15.5" font-family="Helvetica" font-size="10.00">severity</text>
</g>
<!-- dosage -->
<g id="node2" class="node">
<title>dosage</title>
<ellipse fill="none" stroke="black" cx="123.12" cy="-41" rx="28.01" ry="18"/>
<text text-anchor="middle" x="123.12" y="-38.5" font-family="Helvetica" font-size="10.00">dosage</text>
</g>
<!-- severity&#45;&gt;dosage -->
<g id="edge1" class="edge">
<title>severity&#45;&gt;dosage</title>
<path fill="none" stroke="black" d="M56.95,-24.65C67.19,-27.22 79.01,-30.18 89.74,-32.88"/>
<polygon fill="black" stroke="black" points="89.22,-35.27 96.61,-34.6 90.41,-30.52 89.22,-35.27"/>
</g>
<!-- reduction -->
<g id="node3" class="node">
<title>reduction</title>
<ellipse fill="none" stroke="black" cx="220.34" cy="-18" rx="32.93" ry="18"/>
<text text-anchor="middle" x="220.34" y="-15.5" font-family="Helvetica" font-size="10.00">reduction</text>
</g>
<!-- severity&#45;&gt;reduction -->
<g id="edge2" class="edge">
<title>severity&#45;&gt;reduction</title>
<path fill="none" stroke="black" d="M58.96,-15.85C70.15,-15.1 83.1,-14.36 94.87,-14 119.97,-13.22 126.27,-13.26 151.38,-14 160.79,-14.28 170.93,-14.77 180.43,-15.32"/>
<polygon fill="black" stroke="black" points="180.42,-17.77 187.55,-15.74 180.71,-12.88 180.42,-17.77"/>
</g>
<!-- dosage&#45;&gt;reduction -->
<g id="edge3" class="edge">
<title>dosage&#45;&gt;reduction</title>
<path fill="none" stroke="black" d="M150.14,-34.72C160.26,-32.27 172.03,-29.43 182.96,-26.79"/>
<polygon fill="black" stroke="black" points="183.77,-29.11 190,-25.09 182.62,-24.35 183.77,-29.11"/>
</g>
</g>
</svg>
