<?xml version="1.0" encoding="UTF-8" standalone="no"?>
<!DOCTYPE svg PUBLIC "-//W3C//DTD SVG 1.1//EN"
 "http://www.w3.org/Graphics/SVG/1.1/DTD/svg11.dtd">
<!-- Generated by graphviz version 2.44.0 (0)
 -->
<!-- Pages: 1 -->
<svg width="437pt" height="67pt"
 viewBox="0.00 0.00 436.73 67.00" xmlns="http://www.w3.org/2000/svg" xmlns:xlink="http://www.w3.org/1999/xlink">
<g id="graph0" class="graph" transform="scale(1 1) rotate(0) translate(4 63)">
<polygon fill="white" stroke="transparent" points="-4,4 -4,-63 432.73,-63 432.73,4 -4,4"/>
<!-- hypertension_stage -->
<g id="node1" class="node">
<title>hypertension_stage</title>
<ellipse fill="none" stroke="black" cx="60.04" cy="-18" rx="60.09" ry="18"/>
<text text-anchor="middle" x="60.04" y="-15.5" font-family="Helvetica" font-size="10.00">hypertension_stage</text>
</g>
<!-- drug_dosage_mg -->
<g id="node2" class="node">
<title>drug_dosage_mg</title>
<ellipse fill="none" stroke="black" cx="209.66" cy="-41" rx="53.64" ry="18"/>
<text text-anchor="middle" x="209.66" y="-38.5" font-family="Helvetica" font-size="10.00">drug_dosage_mg</text>
</g>
<!-- hypertension_stage&#45;&gt;drug_dosage_mg -->
<g id="edge1" class="edge">
<title>hypertension_stage&#45;&gt;drug_dosage_mg</title>
<path fill="none" stroke="black" d="M113.92,-26.24C126.76,-28.24 140.53,-30.38 153.47,-32.4"/>
<polygon fill="black" stroke="black" points="153.28,-34.85 160.57,-33.51 154.03,-30.01 153.28,-34.85"/>
</g>
<!-- systolic_bp_reduction -->
<g id="node3" class="node">
<title>systolic_bp_reduction</title>
<ellipse fill="none" stroke="black" cx="363.98" cy="-18" rx="64.51" ry="18"/>
<text text-anchor="middle" x="363.98" y="-15.5" font-family="Helvetica" font-size="10.00">systolic_bp_reduction</text>
</g>
<!-- hypertension_stage&#45;&gt;systolic_bp_reduction -->
<g id="edge2" class="edge">
<title>hypertension_stage&#45;&gt;systolic_bp_reduction</title>
<path fill="none" stroke="black" d="M119.34,-15.16C131.48,-14.68 144.2,-14.25 156.09,-14 203.69,-13 215.62,-13.05 263.22,-14 272.78,-14.19 282.84,-14.49 292.75,-14.83"/>
<polygon fill="black" stroke="black" points="292.85,-17.29 299.93,-15.09 293.02,-12.39 292.85,-17.29"/>
</g>
<!-- drug_dosage_mg&#45;&gt;systolic_bp_reduction -->
<g id="edge3" class="edge">
<title>drug_dosage_mg&#45;&gt;systolic_bp_reduction</title>
<path fill="none" stroke="black" d="M258.85,-33.72C271.77,-31.77 285.93,-29.63 299.53,-27.58"/>
<polygon fill="black" stroke="black" points="300.03,-29.98 306.58,-26.52 299.3,-25.14 300.03,-29.98"/>
</g>
</g>
</svg>
