<?xml version="1.0" encoding="UTF-8" standalone="no"?>
<!DOCTYPE svg PUBLIC "-//W3C//DTD SVG 1.1//EN"
 "http://www.w3.org/Graphics/SVG/1.1/DTD/svg11.dtd">
<!-- Generated by graphviz version 2.44.0 (0)
 -->
<!-- Pages: 1 -->
<svg width="474pt" height="67pt"
 viewBox="0.00 0.00 474.40 67.00" xmlns="http://www.w3.org/2000/svg" xmlns:xlink="http://www.w3.org/1999/xlink">
<g id="graph0" class="graph" transform="scale(1 1) rotate(0) translate(4 63)">
<polygon fill="white" stroke="transparent" points="-4,4 -4,-63 470.4,-63 470.4,4 -4,4"/>
<!-- osteoarthritis_severity -->
<g id="node1" class="node">
<title>osteoarthritis_severity</title>
<ellipse fill="none" stroke="black" cx="66.52" cy="-18" rx="66.54" ry="18"/>
<text text-anchor="middle" x="66.52" y="-15.5" font-family="Helvetica" font-size="10.00">osteoarthritis_severity</text>
</g>
<!-- analgesic_dosage_mg -->
<g id="node2" class="node">
<title>analgesic_dosage_mg</title>
<ellipse fill="none" stroke="black" cx="235.56" cy="-41" rx="66.54" ry="18"/>
<text text-anchor="middle" x="235.56" y="-38.5" font-family="Helvetica" font-size="10.00">analgesic_dosage_mg</text>
</g>
<!-- osteoarthritis_severity&#45;&gt;analgesic_dosage_mg -->
<g id="edge1" class="edge">
<title>osteoarthritis_severity&#45;&gt;analgesic_dosage_mg</title>
<path fill="none" stroke="black" d="M126.41,-26.11C140.09,-27.99 154.73,-30.01 168.69,-31.93"/>
<polygon fill="black" stroke="black" points="168.65,-34.4 175.92,-32.93 169.32,-29.54 168.65,-34.4"/>
</g>
<!-- pain_score_reduction -->
<g id="node3" class="node">
<title>pain_score_reduction</title>
<ellipse fill="none" stroke="black" cx="402.24" cy="-41" rx="64.33" ry="18"/>
<text text-anchor="middle" x="402.24" y="-38.5" font-family="Helvetica" font-size="10.00">pain_score_reduction</text>
</g>
<!-- osteoarthritis_severity&#45;&gt;pain_score_reduction -->
<g id="edge2" class="edge">
<title>osteoarthritis_severity&#45;&gt;pain_score_reduction</title>
<path fill="none" stroke="black" d="M129.54,-11.91C177,-8.46 243.95,-6.23 302.08,-14 319.1,-16.28 337.34,-20.66 353.47,-25.24"/>
<polygon fill="black" stroke="black" points="352.84,-27.61 360.25,-27.21 354.21,-22.9 352.84,-27.61"/>
</g>
<!-- analgesic_dosage_mg&#45;&gt;pain_score_reduction -->
<g id="edge3" class="edge">
<title>analgesic_dosage_mg&#45;&gt;pain_score_reduction</title>
<path fill="none" stroke="black" d="M297.88,-34.45C310.03,-34.21 322.84,-34.19 335.15,-34.37"/>
<polygon fill="black" stroke="black" points="335.28,-36.82 342.33,-34.5 335.37,-31.92 335.28,-36.82"/>
</g>
<!-- pain_score_reduction&#45;&gt;analgesic_dosage_mg -->
<g id="edge4" class="edge">
<title>pain_score_reduction&#45;&gt;analgesic_dosage_mg</title>
<path fill="none" stroke="black" d="M342.33,-47.5C330.26,-47.76 317.47,-47.82 305.1,-47.67"/>
<polygon fill="black" stroke="black" points="304.92,-45.21 297.88,-47.55 304.84,-50.11 304.92,-45.21"/>
</g>
</g>
</svg>
