<?xml version="1.0" encoding="UTF-8" standalone="no"?>
<!DOCTYPE svg PUBLIC "-//W3C//DTD SVG 1.1//EN"
 "http://www.w3.org/Graphics/SVG/1.1/DTD/svg11.dtd">
<!-- Generated by graphviz version 2.44.0 (0)
 -->
<!-- Pages: 1 -->
<svg width="901pt" height="289pt"
 viewBox="0.00 0.00 900.78 288.57" xmlns="http://www.w3.org/2000/svg" xmlns:xlink="http://www.w3.org/1999/xlink">
<g id="graph0" class="graph" transform="scale(1 1) rotate(0) translate(4 284.57)">
<polygon fill="white" stroke="transparent" points="-4,4 -4,-284.57 896.78,-284.57 896.78,4 -4,4"/>
<!-- educational_intervention -->
<g id="node1" class="node">
<title>educational_intervention</title>
<ellipse fill="none" stroke="black" cx="462.87" cy="-170.57" rx="71.63" ry="18"/>
<text text-anchor="middle" x="462.87" y="-168.07" font-family="Helvetica" font-size="10.00">educational_intervention</text>
</g>
<!-- mental_health_score -->
<g id="node4" class="node">
<title>mental_health_score</title>
<ellipse fill="none" stroke="black" cx="829.79" cy="-170.57" rx="62.97" ry="18"/>
<text text-anchor="middle" x="829.79" y="-168.07" font-family="Helvetica" font-size="10.00">mental_health_score</text>
</g>
<!-- educational_intervention&#45;&gt;mental_health_score -->
<g id="edge1" class="edge">
<title>educational_intervention&#45;&gt;mental_health_score</title>
<path fill="none" stroke="black" d="M535.1,-170.57C599.91,-170.57 695,-170.57 759.27,-170.57"/>
<polygon fill="black" stroke="black" points="759.56,-173.02 766.56,-170.57 759.56,-168.12 759.56,-173.02"/>
</g>
<!-- baseline_cognitive_score -->
<g id="node7" class="node">
<title>baseline_cognitive_score</title>
<ellipse fill="none" stroke="black" cx="657.22" cy="-124.57" rx="73.67" ry="18"/>
<text text-anchor="middle" x="657.22" y="-122.07" font-family="Helvetica" font-size="10.00">baseline_cognitive_score</text>
</g>
<!-- educational_intervention&#45;&gt;baseline_cognitive_score -->
<g id="edge2" class="edge">
<title>educational_intervention&#45;&gt;baseline_cognitive_score</title>
<path fill="none" stroke="black" d="M515.42,-158.25C540.55,-152.24 570.9,-144.98 596.98,-138.74"/>
<polygon fill="black" stroke="black" points="597.63,-141.1 603.86,-137.09 596.49,-136.34 597.63,-141.1"/>
</g>
<!-- coping_strategy_improvement -->
<g id="node2" class="node">
<title>coping_strategy_improvement</title>
<ellipse fill="none" stroke="black" cx="256.16" cy="-147.57" rx="85.89" ry="18"/>
<text text-anchor="middle" x="256.16" y="-145.07" font-family="Helvetica" font-size="10.00">coping_strategy_improvement</text>
</g>
<!-- coping_strategy_improvement&#45;&gt;educational_intervention -->
<g id="edge3" class="edge">
<title>coping_strategy_improvement&#45;&gt;educational_intervention</title>
<path fill="none" stroke="black" d="M332.22,-156.01C350.96,-158.11 371.02,-160.36 389.61,-162.45"/>
<polygon fill="black" stroke="black" points="389.71,-164.93 396.94,-163.28 390.25,-160.06 389.71,-164.93"/>
</g>
<!-- social_support_enhancement -->
<g id="node3" class="node">
<title>social_support_enhancement</title>
<ellipse fill="none" stroke="black" cx="462.87" cy="-262.57" rx="84.54" ry="18"/>
<text text-anchor="middle" x="462.87" y="-260.07" font-family="Helvetica" font-size="10.00">social_support_enhancement</text>
</g>
<!-- coping_strategy_improvement&#45;&gt;social_support_enhancement -->
<g id="edge4" class="edge">
<title>coping_strategy_improvement&#45;&gt;social_support_enhancement</title>
<path fill="none" stroke="black" d="M279.33,-165.17C302.84,-183.26 341.57,-211.41 378.1,-230.57 388.04,-235.78 399.01,-240.6 409.66,-244.82"/>
<polygon fill="black" stroke="black" points="408.82,-247.12 416.23,-247.37 410.6,-242.56 408.82,-247.12"/>
</g>
<!-- coping_strategy_improvement&#45;&gt;mental_health_score -->
<g id="edge5" class="edge">
<title>coping_strategy_improvement&#45;&gt;mental_health_score</title>
<path fill="none" stroke="black" d="M316.26,-160.45C325.12,-163.27 334,-166.62 342.1,-170.57 360.08,-179.34 359.13,-191.25 378.1,-197.57 517.34,-243.98 693.99,-208.06 778.85,-185.42"/>
<polygon fill="black" stroke="black" points="779.67,-187.73 785.78,-183.54 778.39,-183 779.67,-187.73"/>
</g>
<!-- school_quality_score -->
<g id="node6" class="node">
<title>school_quality_score</title>
<ellipse fill="none" stroke="black" cx="462.87" cy="-78.57" rx="63.65" ry="18"/>
<text text-anchor="middle" x="462.87" y="-76.07" font-family="Helvetica" font-size="10.00">school_quality_score</text>
</g>
<!-- coping_strategy_improvement&#45;&gt;school_quality_score -->
<g id="edge6" class="edge">
<title>coping_strategy_improvement&#45;&gt;school_quality_score</title>
<path fill="none" stroke="black" d="M302.34,-132.34C335.54,-121.15 380.55,-105.98 414.3,-94.61"/>
<polygon fill="black" stroke="black" points="415.47,-96.8 421.32,-92.24 413.9,-92.15 415.47,-96.8"/>
</g>
<!-- coping_strategy_improvement&#45;&gt;baseline_cognitive_score -->
<g id="edge7" class="edge">
<title>coping_strategy_improvement&#45;&gt;baseline_cognitive_score</title>
<path fill="none" stroke="black" d="M339.36,-142.83C409.37,-138.8 509.26,-133.04 578.08,-129.08"/>
<polygon fill="black" stroke="black" points="578.63,-131.5 585.47,-128.65 578.34,-126.61 578.63,-131.5"/>
</g>
<!-- social_support_enhancement&#45;&gt;mental_health_score -->
<g id="edge8" class="edge">
<title>social_support_enhancement&#45;&gt;mental_health_score</title>
<path fill="none" stroke="black" d="M547.71,-261.68C601.36,-258.9 671.73,-251.1 730.81,-230.57 756.37,-221.69 782.36,-205.37 801.14,-191.99"/>
<polygon fill="black" stroke="black" points="802.99,-193.68 807.22,-187.58 800.12,-189.71 802.99,-193.68"/>
</g>
<!-- socioeconomic_status -->
<g id="node5" class="node">
<title>socioeconomic_status</title>
<ellipse fill="none" stroke="black" cx="67.11" cy="-78.57" rx="67.22" ry="18"/>
<text text-anchor="middle" x="67.11" y="-76.07" font-family="Helvetica" font-size="10.00">socioeconomic_status</text>
</g>
<!-- socioeconomic_status&#45;&gt;coping_strategy_improvement -->
<g id="edge9" class="edge">
<title>socioeconomic_status&#45;&gt;coping_strategy_improvement</title>
<path fill="none" stroke="black" d="M107.32,-93.04C136,-103.62 175.12,-118.05 205.91,-129.4"/>
<polygon fill="black" stroke="black" points="205.33,-131.8 212.74,-131.93 207.02,-127.2 205.33,-131.8"/>
</g>
<!-- socioeconomic_status&#45;&gt;social_support_enhancement -->
<g id="edge10" class="edge">
<title>socioeconomic_status&#45;&gt;social_support_enhancement</title>
<path fill="none" stroke="black" d="M112.96,-91.85C120.62,-95.46 128.07,-99.98 134.22,-105.57 159.79,-128.87 143.57,-152.52 170.22,-174.57 228.86,-223.12 313.77,-244.9 376.87,-254.66"/>
<polygon fill="black" stroke="black" points="376.78,-257.12 384.06,-255.73 377.5,-252.27 376.78,-257.12"/>
</g>
<!-- socioeconomic_status&#45;&gt;mental_health_score -->
<g id="edge11" class="edge">
<title>socioeconomic_status&#45;&gt;mental_health_score</title>
<path fill="none" stroke="black" d="M93.3,-61.92C113.23,-49.77 142.28,-34.3 170.22,-27.57 333.3,11.72 382.83,5.66 547.64,-25.57 633.58,-41.86 654.36,-55.07 730.81,-97.57 757.19,-112.24 784.51,-133.15 803.58,-148.84"/>
<polygon fill="black" stroke="black" points="802.27,-150.94 809.22,-153.53 805.4,-147.17 802.27,-150.94"/>
</g>
<!-- socioeconomic_status&#45;&gt;school_quality_score -->
<g id="edge12" class="edge">
<title>socioeconomic_status&#45;&gt;school_quality_score</title>
<path fill="none" stroke="black" d="M134.46,-78.57C205.87,-78.57 318.98,-78.57 391.8,-78.57"/>
<polygon fill="black" stroke="black" points="392.16,-81.02 399.16,-78.57 392.16,-76.12 392.16,-81.02"/>
</g>
<!-- socioeconomic_status&#45;&gt;baseline_cognitive_score -->
<g id="edge13" class="edge">
<title>socioeconomic_status&#45;&gt;baseline_cognitive_score</title>
<path fill="none" stroke="black" d="M113.98,-65.69C200.83,-43.51 394.3,-4.82 547.64,-51.57 580.01,-61.44 611.48,-84.55 632.14,-102.14"/>
<polygon fill="black" stroke="black" points="630.77,-104.21 637.67,-106.95 633.99,-100.51 630.77,-104.21"/>
</g>
<!-- baseline_cognitive_score&#45;&gt;mental_health_score -->
<g id="edge14" class="edge">
<title>baseline_cognitive_score&#45;&gt;mental_health_score</title>
<path fill="none" stroke="black" d="M707.56,-137.88C729.13,-143.7 754.46,-150.53 776.38,-156.44"/>
<polygon fill="black" stroke="black" points="775.96,-158.86 783.36,-158.32 777.24,-154.13 775.96,-158.86"/>
</g>
<!-- random_noise -->
<g id="node8" class="node">
<title>random_noise</title>
<ellipse fill="none" stroke="black" cx="67.11" cy="-132.57" rx="45.15" ry="18"/>
<text text-anchor="middle" x="67.11" y="-130.07" font-family="Helvetica" font-size="10.00">random_noise</text>
</g>
</g>
</svg>
