<?xml version="1.0" encoding="UTF-8" standalone="no"?>
<!DOCTYPE svg PUBLIC "-//W3C//DTD SVG 1.1//EN"
 "http://www.w3.org/Graphics/SVG/1.1/DTD/svg11.dtd">
<!-- Generated by graphviz version 2.44.0 (0)
 -->
<!-- Pages: 1 -->
<svg width="734pt" height="169pt"
 viewBox="0.00 0.00 733.60 169.30" xmlns="http://www.w3.org/2000/svg" xmlns:xlink="http://www.w3.org/1999/xlink">
<g id="graph0" class="graph" transform="scale(1 1) rotate(0) translate(4 165.3)">
<polygon fill="white" stroke="transparent" points="-4,4 -4,-165.3 729.6,-165.3 729.6,4 -4,4"/>
<!-- education_quality_index -->
<g id="node1" class="node">
<title>education_quality_index</title>
<ellipse fill="none" stroke="black" cx="71.23" cy="-97.3" rx="71.46" ry="18"/>
<text text-anchor="middle" x="71.23" y="-94.8" font-family="Helvetica" font-size="10.00">education_quality_index</text>
</g>
<!-- baseline_graduation_rate -->
<g id="node2" class="node">
<title>baseline_graduation_rate</title>
<ellipse fill="none" stroke="black" cx="386.93" cy="-143.3" rx="73.67" ry="18"/>
<text text-anchor="middle" x="386.93" y="-140.8" font-family="Helvetica" font-size="10.00">baseline_graduation_rate</text>
</g>
<!-- education_quality_index&#45;&gt;baseline_graduation_rate -->
<g id="edge1" class="edge">
<title>education_quality_index&#45;&gt;baseline_graduation_rate</title>
<path fill="none" stroke="black" d="M128.93,-107.96C144.92,-110.83 162.35,-113.82 178.46,-116.3 223.07,-123.19 273.25,-129.76 313.1,-134.69"/>
<polygon fill="black" stroke="black" points="313.16,-137.16 320.41,-135.59 313.76,-132.3 313.16,-137.16"/>
</g>
<!-- school_enrollment -->
<g id="node4" class="node">
<title>school_enrollment</title>
<ellipse fill="none" stroke="black" cx="386.93" cy="-89.3" rx="55.85" ry="18"/>
<text text-anchor="middle" x="386.93" y="-86.8" font-family="Helvetica" font-size="10.00">school_enrollment</text>
</g>
<!-- education_quality_index&#45;&gt;school_enrollment -->
<g id="edge2" class="edge">
<title>education_quality_index&#45;&gt;school_enrollment</title>
<path fill="none" stroke="black" d="M136.85,-90.08C192.04,-87.07 270.85,-85.1 324.96,-85.39"/>
<polygon fill="black" stroke="black" points="325.08,-87.84 332.1,-85.44 325.11,-82.94 325.08,-87.84"/>
</g>
<!-- graduation_rate -->
<g id="node5" class="node">
<title>graduation_rate</title>
<ellipse fill="none" stroke="black" cx="545.38" cy="-66.3" rx="48.72" ry="18"/>
<text text-anchor="middle" x="545.38" y="-63.8" font-family="Helvetica" font-size="10.00">graduation_rate</text>
</g>
<!-- education_quality_index&#45;&gt;graduation_rate -->
<g id="edge3" class="edge">
<title>education_quality_index&#45;&gt;graduation_rate</title>
<path fill="none" stroke="black" d="M87.78,-79.73C106.83,-59.68 141.19,-28.01 178.46,-15.3 293.49,23.93 438.72,-22.86 506.41,-49.82"/>
<polygon fill="black" stroke="black" points="505.7,-52.18 513.11,-52.53 507.53,-47.63 505.7,-52.18"/>
</g>
<!-- irrelevant_index -->
<g id="node6" class="node">
<title>irrelevant_index</title>
<ellipse fill="none" stroke="black" cx="227.9" cy="-42.3" rx="49.4" ry="18"/>
<text text-anchor="middle" x="227.9" y="-39.8" font-family="Helvetica" font-size="10.00">irrelevant_index</text>
</g>
<!-- education_quality_index&#45;&gt;irrelevant_index -->
<g id="edge4" class="edge">
<title>education_quality_index&#45;&gt;irrelevant_index</title>
<path fill="none" stroke="black" d="M113.27,-82.71C135.5,-74.81 162.89,-65.07 185.21,-57.13"/>
<polygon fill="black" stroke="black" points="186.19,-59.38 191.97,-54.73 184.55,-54.76 186.19,-59.38"/>
</g>
<!-- baseline_graduation_rate&#45;&gt;graduation_rate -->
<g id="edge5" class="edge">
<title>baseline_graduation_rate&#45;&gt;graduation_rate</title>
<path fill="none" stroke="black" d="M431.08,-128.73C440.9,-125 451.18,-120.78 460.52,-116.3 479.14,-107.38 499.03,-95.63 514.76,-85.76"/>
<polygon fill="black" stroke="black" points="516.19,-87.75 520.8,-81.94 513.57,-83.61 516.19,-87.75"/>
</g>
<!-- subsidy_policy -->
<g id="node3" class="node">
<title>subsidy_policy</title>
<ellipse fill="none" stroke="black" cx="677.92" cy="-66.3" rx="47.86" ry="18"/>
<text text-anchor="middle" x="677.92" y="-63.8" font-family="Helvetica" font-size="10.00">subsidy_policy</text>
</g>
<!-- subsidy_policy&#45;&gt;graduation_rate -->
<g id="edge6" class="edge">
<title>subsidy_policy&#45;&gt;graduation_rate</title>
<path fill="none" stroke="black" d="M633.23,-72.72C622.06,-73.08 609.94,-73.15 598.4,-72.93"/>
<polygon fill="black" stroke="black" points="598.36,-70.48 591.3,-72.75 598.24,-75.38 598.36,-70.48"/>
</g>
<!-- school_enrollment&#45;&gt;education_quality_index -->
<g id="edge7" class="edge">
<title>school_enrollment&#45;&gt;education_quality_index</title>
<path fill="none" stroke="black" d="M334.28,-95.78C283.7,-98.92 206.02,-101.14 148.36,-101.25"/>
<polygon fill="black" stroke="black" points="148.07,-98.8 141.07,-101.25 148.07,-103.7 148.07,-98.8"/>
</g>
<!-- school_enrollment&#45;&gt;graduation_rate -->
<g id="edge8" class="edge">
<title>school_enrollment&#45;&gt;graduation_rate</title>
<path fill="none" stroke="black" d="M438.3,-81.9C455.57,-79.36 474.93,-76.52 492.33,-73.96"/>
<polygon fill="black" stroke="black" points="493.09,-76.32 499.66,-72.88 492.37,-71.47 493.09,-76.32"/>
</g>
<!-- graduation_rate&#45;&gt;subsidy_policy -->
<g id="edge9" class="edge">
<title>graduation_rate&#45;&gt;subsidy_policy</title>
<path fill="none" stroke="black" d="M591.3,-59.86C602.54,-59.51 614.67,-59.46 626.17,-59.71"/>
<polygon fill="black" stroke="black" points="626.17,-62.16 633.23,-59.89 626.3,-57.26 626.17,-62.16"/>
</g>
<!-- irrelevant_index&#45;&gt;school_enrollment -->
<g id="edge10" class="edge">
<title>irrelevant_index&#45;&gt;school_enrollment</title>
<path fill="none" stroke="black" d="M266.52,-53.56C288.06,-60.01 315.3,-68.17 338.33,-75.06"/>
<polygon fill="black" stroke="black" points="337.92,-77.49 345.33,-77.15 339.32,-72.8 337.92,-77.49"/>
</g>
<!-- irrelevant_index&#45;&gt;graduation_rate -->
<g id="edge11" class="edge">
<title>irrelevant_index&#45;&gt;graduation_rate</title>
<path fill="none" stroke="black" d="M276.48,-45.92C333.87,-50.29 430.14,-57.61 490.3,-62.19"/>
<polygon fill="black" stroke="black" points="490.28,-64.65 497.45,-62.73 490.66,-59.76 490.28,-64.65"/>
</g>
</g>
</svg>
